<svg width="1225" height="1429" viewBox="0 0 1225 1429" fill="none" xmlns="http://www.w3.org/2000/svg">
<path d="M769.026 652.085L766.134 662.681L769.026 652.085C697.69 632.818 627.318 613.552 568.514 587.542C446.085 543.229 347.757 449.787 294.736 332.262C292.808 346.712 291.844 362.125 291.844 377.538C291.844 653.048 534.773 725.297 749.746 789.839C930.979 843.785 1102.57 895.805 1102.57 1058.61C1102.57 1112.55 1088.11 1157.83 1064.01 1196.36C1004.24 1318.7 877.959 1403.47 732.394 1403.47C723.718 1403.47 708.294 1403.47 708.294 1403.47C699.618 1403.47 689.014 1402.51 682.266 1402.51C516.457 1390.95 355.469 1314.85 242.68 1193.47C-82.1889 855.345 39.2755 285.06 460.545 89.5056C478.861 80.8357 498.141 72.1658 518.385 65.4226C550.197 53.8627 583.938 49.0461 617.678 49.0461H616.714C694.798 49.0461 767.098 69.2759 830.723 103.955C837.471 107.809 845.183 111.662 852.895 115.515C937.727 157.901 1015.81 242.674 1057.26 389.098L1062.08 405.475H1079.44C1091 405.475 1100.64 401.621 1107.39 394.878C1112.21 390.062 1115.1 383.318 1115.1 377.538C1118.96 355.382 1131.49 278.316 1136.31 221.48L1137.28 213.774L1132.46 207.031C1021.6 48.0828 834.579 -11.6431 671.662 1.84342C403.669 10.5133 156.884 196.434 56.6276 442.081C-57.1248 705.067 3.60738 1026.82 210.868 1225.26C308.233 1319.67 434.517 1387.1 568.514 1412.14C568.514 1412.14 715.042 1448.75 869.283 1414.07H870.247C895.311 1409.25 919.411 1403.47 942.547 1396.73C1118.96 1340.86 1225 1214.66 1225 1058.61C1225 775.39 983.035 709.884 769.026 652.085Z" fill="#F5F2EE"/>
</svg>
