<svg width="400" height="422" viewBox="0 0 400 422" fill="none" xmlns="http://www.w3.org/2000/svg">
<path d="M102.645 30.5978C104.913 32.6375 108.54 33.3174 112.168 32.1842C113.301 31.9576 114.208 31.5043 115.115 31.0511C118.289 29.238 119.649 26.2918 118.969 23.3456C117.609 17.9064 112.621 17.9064 108.767 17.6798C104.459 17.6798 102.419 17.2265 101.739 14.7336C101.058 12.014 102.645 9.97434 104.686 9.06782C106.726 8.16129 109.9 8.61456 112.168 12.4673L112.621 13.1472L113.528 12.9206L114.435 12.2407V11.5608C114.435 11.5608 114.208 9.97434 114.208 8.61456V8.16129L113.981 7.93466C110.581 4.98846 105.593 5.21509 102.645 7.02814C99.698 8.84119 98.3377 12.014 99.2446 15.1869C100.605 20.3994 105.593 20.626 109.674 20.8526C113.528 21.0793 115.795 21.3059 116.475 23.5722C117.156 26.0652 115.342 28.1048 113.301 28.7847C110.354 29.9179 106.5 29.238 104.232 25.1586L102.872 24.932L101.965 25.1586C101.285 25.3853 101.058 26.0652 101.285 26.5184L102.645 30.1445V30.5978Z" fill="#977E68"/>
<path d="M144.816 25.6093C144.816 24.9294 144.363 24.4762 143.91 24.4762H143.683C143.456 24.4762 143.229 24.2495 143.229 24.2495C143.229 24.2495 143.229 24.0229 143.229 23.7963L144.59 20.3968L157.513 19.7169L159.1 22.8898C159.327 23.1164 159.327 23.343 159.327 23.343L158.873 23.5697C158.646 23.5697 158.646 23.5697 158.646 23.5697C158.193 23.7963 157.966 24.2495 157.966 24.9294V25.836L165.675 25.3827V24.4762C165.675 23.7963 165.221 23.343 164.768 23.343C164.314 23.343 163.408 22.8898 162.727 21.9832L151.845 0.226631V0L146.857 0.226631V1.13316C146.857 1.58642 147.31 2.03968 147.764 2.26631C147.991 2.26631 148.217 2.49294 148.671 2.71958L140.509 22.8898C140.055 24.0229 138.922 24.4762 138.468 24.4762C138.015 24.7028 137.788 25.1561 137.788 25.836V26.7425L144.59 26.5159L144.816 25.6093ZM150.031 5.43915L155.926 16.9973L145.497 17.4506L150.031 5.43915Z" fill="#977E68"/>
<path d="M205.351 24.9292L203.991 24.7025C203.537 24.7025 202.857 24.9292 202.63 25.3824C202.404 25.6091 201.497 26.9688 200.136 26.7422L191.748 25.3824C191.521 25.3824 191.294 25.3824 191.068 25.1558L190.614 24.9292V24.7025V24.4759L193.562 5.21224C193.562 4.53235 194.015 4.53235 194.922 4.30572C195.149 4.30572 195.149 4.30572 195.375 4.30572C195.829 4.30572 196.282 3.85246 196.282 3.17256L196.509 2.26604L188.12 0.90625L187.893 1.81278C187.893 2.26604 188.12 2.94593 188.347 3.17256C188.347 3.17256 188.574 3.39919 188.8 3.39919C189.707 3.85246 189.934 4.07909 189.934 4.75898L186.987 23.5694C186.76 24.4759 186.533 24.4759 185.4 24.7025C185.173 24.7025 185.173 24.7025 184.946 24.7025C184.493 24.7025 184.039 25.1558 184.039 25.8357L183.812 26.7422L202.63 29.6884L205.351 24.9292Z" fill="#977E68"/>
<path d="M233.238 38.98C235.959 39.8865 238.906 40.1131 241.627 39.2066C245.934 38.0734 249.335 34.9006 250.696 30.8212C251.829 27.4218 251.829 23.7957 250.242 20.3962C248.655 16.9967 245.934 14.5038 242.534 13.3706C239.133 12.2375 235.505 12.2375 232.104 13.8239C228.93 15.4103 226.436 18.1299 225.076 21.5294C223.942 24.9288 223.942 28.5549 225.529 31.9544C227.117 35.1272 229.837 37.6202 233.238 38.98ZM228.477 22.6625C229.837 19.0364 232.331 16.5435 235.732 15.637C237.772 15.1837 239.813 15.1837 241.627 15.8636C244.121 16.7701 246.161 18.8098 247.295 21.3027C248.428 23.7957 248.428 26.7419 247.295 29.6881C245.254 35.5805 239.586 38.5267 234.145 36.487C231.424 35.5805 229.384 33.5408 228.477 31.0479C227.57 28.3283 227.57 25.6087 228.477 22.6625Z" fill="#977E68"/>
<path d="M269.967 54.3906C270.194 53.9373 270.194 53.2574 269.967 53.0308L269.74 52.8042C269.06 52.1243 268.833 51.671 269.287 50.9911L277.675 37.1666L280.169 61.8694V62.096L284.25 64.589L284.704 63.6825C284.93 63.2292 284.93 62.5493 284.704 62.3227L284.477 62.096C283.797 61.4161 283.57 60.9629 284.024 60.283L293.999 44.1922C294.453 43.5123 294.906 43.5123 295.813 43.7389C296.04 43.7389 296.04 43.7389 296.266 43.7389C296.72 43.9655 297.173 43.5123 297.627 43.059L298.08 42.1525L291.505 38.0731L291.052 38.9797C290.825 39.4329 290.825 40.1128 291.052 40.3394C291.052 40.3394 291.279 40.5661 291.279 40.7927C291.959 41.4726 292.186 41.6992 291.959 42.1525L283.343 56.2036L280.849 31.7275V31.2742L276.768 28.7812L276.315 29.6878C276.088 30.141 276.088 30.8209 276.315 31.0476L276.542 31.2742C277.222 31.9541 277.449 32.4074 276.995 33.0872L267.019 49.1781C266.566 49.858 266.113 49.858 265.206 49.6313C264.979 49.6313 264.979 49.6313 264.752 49.4047C264.299 49.4047 263.845 49.6313 263.392 50.0846L262.938 50.9911L269.513 55.0705L269.967 54.3906Z" fill="#977E68"/>
<path d="M335.035 107.651C335.941 107.424 336.622 106.971 337.302 106.518C341.609 102.892 339.569 98.359 337.982 94.7329C336.168 90.8802 335.715 88.8405 337.528 87.2541C339.796 85.441 342.29 85.8943 343.877 87.4807C345.464 89.0671 346.597 92.0133 344.103 95.6394L343.65 96.3193L344.103 96.9992C344.33 97.2258 344.784 97.4525 345.01 97.4525C345.237 97.4525 345.464 97.4525 345.69 97.2258C346.597 96.5459 347.504 96.0927 348.184 95.6394L348.411 95.4128V94.9595C349.545 90.6535 347.277 86.3475 344.33 84.3079C341.383 82.4948 337.982 82.4948 335.488 84.7611C331.407 88.1606 333.221 92.9198 334.808 96.5459C336.395 100.172 337.075 102.438 335.261 103.798C333.221 105.385 330.727 104.705 329.14 103.118C326.873 101.079 325.739 96.9992 328.46 93.1465L328.913 92.4666L328.233 91.7867C327.779 91.3334 327.099 91.3334 326.646 91.7867L323.925 94.5063V94.7329C322.565 99.2655 325.512 104.025 328.913 106.064C330.727 107.878 332.994 108.331 335.035 107.651Z" fill="#977E68"/>
<path d="M348.412 136.433L349.319 138.246L373.805 136.433C374.938 136.433 375.619 137.113 376.072 137.566C376.299 137.793 376.752 138.019 377.206 137.793C377.206 137.793 377.432 137.793 377.432 137.566L378.339 137.113L374.938 130.767L374.032 131.447C373.578 131.674 373.351 132.127 373.351 132.58C373.351 132.58 373.351 132.807 373.351 133.033C373.351 133.26 373.351 133.487 373.351 133.487C373.351 133.487 373.125 133.713 372.671 133.713L353.173 135.3L365.189 119.662C365.416 119.436 365.416 119.436 365.87 119.889L366.096 120.115C366.55 120.569 367.003 120.569 367.457 120.115L368.364 119.662L364.736 112.863L363.829 113.317C363.376 113.543 363.149 113.996 363.149 114.676C363.149 115.356 363.376 116.263 362.696 117.169L348.412 136.433Z" fill="#977E68"/>
<path d="M374.258 160.682C370.631 161.815 367.683 164.081 366.096 167.254C364.282 170.427 364.056 174.053 364.962 177.679C367.003 184.705 374.711 188.784 381.74 186.744H381.967C385.367 185.611 388.315 183.345 390.129 180.172C391.942 176.999 392.169 173.373 391.262 169.747C388.995 162.722 381.286 158.642 374.258 160.682ZM387.635 178.359C386.274 180.625 383.78 182.439 381.06 183.345C378.339 184.252 375.392 184.025 372.898 182.892C370.404 181.759 368.59 179.492 367.683 176.773C366.776 174.053 367.23 171.334 368.59 168.841C369.95 166.574 372.444 164.761 375.165 163.855H375.392C378.112 162.948 381.06 163.175 383.327 164.308C385.821 165.441 387.635 167.707 388.541 170.427C389.222 173.373 388.995 176.093 387.635 178.359Z" fill="#977E68"/>
<path d="M396.477 207.141C396.477 207.141 396.477 207.368 396.477 207.594C396.25 208.501 396.25 208.954 395.57 208.954L376.299 210.767C375.392 210.767 375.165 210.54 374.938 209.634C374.938 209.407 374.712 209.407 374.712 209.181C374.485 208.727 374.031 208.501 373.351 208.501H372.444L373.578 220.512C374.031 225.951 377.886 228.218 381.286 227.991C381.74 227.991 382.42 227.764 382.873 227.764C385.367 227.084 387.181 225.271 387.861 222.778C389.675 224.365 391.942 225.045 394.436 224.365C397.157 223.685 400.104 220.739 399.651 215.3L398.744 206.461V206.234H397.837C397.157 206.461 396.703 206.688 396.477 207.141ZM385.367 219.606C385.594 221.419 384.914 222.778 383.554 223.685C382.193 224.591 380.153 224.818 378.793 224.138C377.432 223.458 376.525 222.099 376.299 220.286L375.845 215.3C375.845 214.166 376.072 214.166 376.299 213.94H376.525L384.687 213.26L385.367 219.606ZM396.93 215.753C397.157 217.339 396.704 218.699 395.797 219.606C395.116 220.512 393.983 220.965 392.849 221.192C391.716 221.192 390.582 220.965 389.675 220.286C388.768 219.379 388.088 218.246 387.861 216.659L387.635 213.26L396.703 212.353L396.93 215.753Z" fill="#977E68"/>
<path d="M387.634 249.747C384.007 249.294 380.379 250.427 377.659 252.693C374.711 254.959 373.124 258.132 372.671 261.758C372.217 265.384 373.351 269.011 375.618 271.73C377.885 274.676 381.059 276.263 384.687 276.716C386.501 276.943 388.315 276.716 389.902 276.263C395.343 274.676 399.197 270.144 399.651 264.705C400.104 261.079 398.97 257.452 396.703 254.733C394.436 252.013 391.262 250.2 387.634 249.747ZM396.93 264.478C396.703 267.198 395.343 269.69 393.076 271.277C390.808 272.863 388.088 273.543 384.914 273.317C378.792 272.637 374.485 267.877 375.165 262.212C375.391 259.492 376.979 256.999 379.019 255.413C381.286 253.826 384.007 253.146 386.954 253.373C393.529 254.053 397.61 258.812 396.93 264.478Z" fill="#977E68"/>
<path d="M389.902 301.874C389.902 301.874 389.675 302.1 389.675 302.327C389.222 303.007 388.995 303.46 388.088 303.233L369.95 297.341C369.043 297.114 369.043 296.661 369.043 295.754C369.043 295.528 369.043 295.528 369.043 295.301C369.043 294.848 368.59 294.395 368.136 294.168L367.23 293.941L364.282 302.78C362.015 310.032 365.643 317.284 372.444 319.551C374.938 320.457 377.432 320.457 379.926 319.777C384.234 318.644 387.634 315.245 388.995 310.939L391.942 302.1L391.035 301.874C390.809 301.42 390.355 301.42 389.902 301.874ZM386.954 309.579C385.367 314.112 379.926 317.738 374.031 315.925C368.136 313.885 365.869 307.766 367.23 303.233L367.91 301.42C368.136 300.514 368.363 300.514 368.59 300.514C368.817 300.514 369.043 300.514 369.27 300.514L388.088 306.633L386.954 309.579Z" fill="#977E68"/>
<path d="M370.177 350.596C369.95 350.823 369.724 351.049 369.27 351.276L356.347 334.052C355.667 333.146 355.894 332.012 355.894 331.559C355.894 331.106 355.667 330.426 355.213 330.199L354.307 329.746L350.906 335.865L351.813 336.318C352.266 336.545 352.946 336.545 353.173 336.318L353.4 336.092C353.626 335.865 353.853 335.639 353.853 335.639C353.853 335.639 354.08 335.639 354.307 335.865L356.347 338.811L349.999 350.143L346.371 349.916C346.145 349.916 345.918 349.69 345.918 349.69V349.236C345.918 349.01 345.918 349.01 345.918 349.01C345.918 348.556 345.691 348.103 345.238 347.65L344.331 347.197L340.477 353.996L341.383 354.449C341.837 354.676 342.517 354.676 342.744 354.449C343.424 353.769 344.331 353.316 345.011 353.542L369.497 355.809L371.991 351.503L371.084 351.049C371.084 350.143 370.404 350.143 370.177 350.596ZM353.173 350.143L358.388 340.851L366.096 351.276L353.173 350.143Z" fill="#977E68"/>
<path d="M180.865 238.644L180.185 241.137L180.865 238.644C164.088 234.112 147.537 229.579 133.707 223.46C104.913 213.035 81.7879 191.052 69.3182 163.403C68.8648 166.802 68.638 170.428 68.638 174.054C68.638 238.871 125.772 255.868 176.331 271.052C218.954 283.744 259.311 295.982 259.311 334.283C259.311 346.974 255.91 357.626 250.242 366.691C236.185 395.473 206.485 415.417 172.25 415.417C170.209 415.417 166.582 415.417 166.582 415.417C164.541 415.417 162.047 415.19 160.46 415.19C121.464 412.47 83.6016 394.566 57.0753 366.011C-19.3298 286.463 9.23709 152.298 108.314 106.292C112.622 104.252 117.156 102.212 121.918 100.626C129.399 97.9062 137.335 96.773 145.27 96.773H145.043C163.407 96.773 180.412 101.532 195.375 109.691C196.962 110.598 198.776 111.504 200.59 112.411C220.541 122.382 238.906 142.326 248.655 176.774L249.788 180.627H253.869C256.59 180.627 258.857 179.72 260.444 178.134C261.578 177 262.258 175.414 262.258 174.054C263.165 168.842 266.112 150.711 267.246 137.34L267.473 135.527L266.339 133.941C240.266 96.5464 196.282 82.4952 157.966 85.6681C94.9377 87.7077 36.8971 131.448 13.3181 189.239C-13.435 251.109 0.84841 326.804 49.5935 373.49C72.4923 395.7 102.193 411.564 133.707 417.456C133.707 417.456 168.169 426.068 204.444 417.909H204.671C210.566 416.776 216.234 415.417 221.675 413.83C263.165 400.686 288.104 370.997 288.104 334.283C288.104 267.653 231.197 252.242 180.865 238.644Z" fill="#977E68"/>
</svg>
