<svg width="516" height="120" viewBox="0 0 516 120" fill="none" xmlns="http://www.w3.org/2000/svg">
<path d="M15.4674 104.249C11.3752 103.523 8.10799 101.774 5.66587 99.0019C3.22375 96.2958 1.70567 92.8966 1.11164 88.8044C0.45161 84.7122 0.517614 80.125 1.30965 75.0427C2.03569 69.9605 3.42176 64.5152 5.46786 58.7069C7.64597 52.7006 10.5171 46.5293 14.0813 40.193C17.7115 33.7907 21.6717 27.8504 25.9619 22.3721C30.3181 16.8278 35.0373 12.1416 40.1196 8.3134C45.2019 4.48521 49.9871 2.27409 54.4753 1.68006C57.6435 1.15204 60.5146 1.48206 63.0887 2.67012C63.1548 2.67012 63.2208 2.70312 63.2868 2.76912C63.3528 2.83513 63.3858 2.86813 63.3858 2.86813C63.4518 2.86813 63.4848 2.86813 63.4848 2.86813C65.7289 4.05619 67.181 6.10229 67.841 9.00643C68.435 11.5146 68.336 14.2537 67.544 17.2238C66.8179 20.128 65.6629 22.5371 64.0788 24.4512C63.6168 24.9132 63.1547 24.9462 62.6927 24.5502C62.2307 24.1542 62.1977 23.7252 62.5937 23.2631C64.0458 21.5471 65.1018 19.369 65.7619 16.7288C66.4879 14.0227 66.5869 11.5806 66.0589 9.40245C65.5309 6.96033 64.3428 5.27725 62.4947 4.3532C60.2506 3.42915 56.2574 4.18819 50.5151 6.63031C43.3868 9.66647 36.0934 16.2008 28.635 26.2333C21.2427 36.2658 15.2694 47.7174 10.7151 60.588C8.40501 67.0563 6.91993 73.1286 6.2599 78.8049C5.59987 84.4812 5.92988 89.3985 7.24995 93.5567C8.57002 97.7809 10.8801 100.619 14.1803 102.071C17.6125 102.929 21.2427 103.094 25.0708 102.566C28.965 102.104 33.1232 100.883 37.5455 98.9029C42.0337 96.9228 46.4229 94.6457 50.7131 92.0716C55.0033 89.4975 59.2276 86.6263 63.3858 83.4582C67.61 80.29 71.3722 77.2538 74.6723 74.3497C77.9725 71.5116 80.9096 68.7724 83.4838 66.1323C85.7939 63.7562 87.642 61.7761 89.028 60.192C89.4241 59.73 89.8531 59.73 90.3151 60.192C90.7771 60.588 90.8101 61.017 90.4141 61.4791C89.028 63.0631 87.18 65.0432 84.8698 67.4194C82.4277 69.8615 79.5236 72.5346 76.1574 75.4388C72.8572 78.4089 68.798 81.6761 63.9798 85.2402C59.2276 88.8044 54.4753 92.0056 49.7231 94.8437C45.0368 97.6819 40.0536 100.058 34.7733 101.972C29.5591 103.886 24.8728 104.843 20.7146 104.843C18.8665 104.843 17.1174 104.645 15.4674 104.249ZM129.289 60.291C129.685 59.895 130.114 59.895 130.576 60.291C131.038 60.687 131.071 61.116 130.675 61.5781C128.629 63.6902 127.375 65.0102 126.913 65.5383C123.151 69.3665 118.167 73.1286 111.963 76.8248C105.759 80.587 100.512 82.4681 96.2214 82.4681C95.5613 82.4681 94.9013 82.4021 94.2413 82.2701C93.7792 82.2041 93.3172 82.0721 92.8552 81.8741C90.1491 81.082 88.103 79.3 86.7169 76.5278C85.7928 74.6797 85.4298 72.6336 85.6278 70.3895C85.7598 68.0794 86.1889 65.9013 86.9149 63.8552C87.6409 61.8091 88.664 59.796 89.9841 57.8159C91.8982 54.9117 94.1093 52.8326 96.6174 51.5786C99.1255 50.3245 101.667 49.8295 104.241 50.0935H104.34L104.538 50.1925H104.637C104.637 50.1925 104.67 50.1925 104.736 50.1925C104.802 50.1925 104.835 50.1925 104.835 50.1925C106.155 50.4565 107.145 51.1495 107.805 52.2716C108.597 53.6577 108.663 55.0767 108.003 56.5288C106.551 59.829 101.931 61.5451 94.1423 61.6771C93.3502 63.1951 92.6572 64.8122 92.0632 66.5283C91.5351 68.2444 91.0731 70.0925 90.6771 72.0726C90.3471 74.0527 90.5121 75.8018 91.1721 77.3199C91.8321 78.9039 92.9872 79.96 94.6373 80.488C98.2675 81.148 103.284 79.663 109.686 76.0328C116.088 72.4026 121.402 68.4754 125.626 64.2512C126.088 63.7232 127.309 62.4031 129.289 60.291ZM105.231 52.2716C101.997 51.5456 98.6635 54.0537 95.2313 59.796C101.568 59.532 105.264 58.2119 106.32 55.8358C106.716 54.9117 106.683 54.0537 106.221 53.2616C106.023 52.8656 105.693 52.5356 105.231 52.2716ZM171.681 60.291C172.143 59.829 172.572 59.796 172.968 60.192C173.43 60.588 173.463 61.017 173.067 61.4791C172.077 62.6011 170.922 63.8552 169.602 65.2412C168.282 66.5613 166.203 68.5744 163.365 71.2806C160.526 73.9867 157.82 76.3628 155.246 78.4089C152.738 80.455 149.999 82.2701 147.029 83.8542C144.125 85.5043 141.715 86.3293 139.801 86.3293C139.339 86.3293 138.844 86.2633 138.316 86.1313C136.666 85.8013 135.412 85.0422 134.554 83.8542C133.696 82.7321 133.267 81.3791 133.267 79.795C133.333 78.2769 133.498 76.7918 133.762 75.3398C134.092 73.9537 134.554 72.6336 135.148 71.3796C136.402 68.4754 138.382 64.5482 141.088 59.598C138.25 58.4099 136.27 57.5519 135.148 57.0238C134.092 58.2119 132.805 59.565 131.287 61.083L130.792 61.5781C130.594 61.7761 130.363 61.8751 130.099 61.8751C129.901 61.8751 129.703 61.7761 129.505 61.5781C129.043 61.182 129.043 60.753 129.505 60.291L129.901 59.796C131.221 58.5419 132.409 57.2879 133.465 56.0338C129.175 53.4597 127.426 49.8955 128.218 45.3413C128.284 45.0112 128.35 44.6482 128.416 44.2522C129.01 42.2061 130.165 40.721 131.881 39.797C133.597 38.8729 135.379 38.6089 137.227 39.0049C138.745 39.2689 139.966 40.028 140.89 41.282C141.88 42.4701 142.243 43.9882 141.979 45.8363C141.715 47.7504 140.494 50.1595 138.316 53.0636C142.474 54.2517 145.016 55.0437 145.94 55.4398C146.138 55.5058 146.303 55.5718 146.435 55.6378C147.095 56.0338 147.524 56.5948 147.722 57.3209C147.92 58.0469 147.854 58.7399 147.524 59.4C144.422 64.7462 141.979 69.4655 140.197 73.5577C137.359 79.894 136.963 83.5242 139.009 84.4482C140.791 84.7122 143.201 83.9862 146.237 82.2701C149.339 80.554 152.54 78.2769 155.84 75.4388C159.14 72.6006 162.11 69.9275 164.751 67.4194C167.391 64.8452 169.701 62.4691 171.681 60.291ZM136.237 52.3706C136.303 52.3706 136.369 52.4036 136.435 52.4696C138.679 49.5655 139.933 47.2883 140.197 45.6383C140.329 44.6482 140.23 43.8232 139.9 43.1631C139.636 42.4371 139.207 41.9091 138.613 41.5791C138.085 41.183 137.491 40.919 136.831 40.787C136.435 40.655 136.039 40.589 135.643 40.589C134.389 40.589 133.234 40.952 132.178 41.6781C131.188 42.4041 130.528 43.4272 130.198 44.7472C130.198 44.8132 130.165 44.9782 130.099 45.2422C129.703 48.1464 131.749 50.5225 136.237 52.3706ZM221.357 60.291C221.753 59.829 222.149 59.829 222.545 60.291C223.008 60.753 223.041 61.182 222.645 61.5781C221.588 62.6341 220.169 63.9542 218.387 65.5383C216.671 67.0563 213.965 69.3995 210.269 72.5676C206.573 75.7358 202.679 78.5739 198.586 81.082C194.56 83.5902 190.996 85.2402 187.894 86.0323C185.716 86.6263 183.736 86.9233 181.953 86.9233C180.105 86.9233 178.422 86.6263 176.904 86.0323C173.934 84.9102 171.723 82.8311 170.271 79.795C168.819 76.7588 168.456 73.2276 169.182 69.2014C169.446 67.8154 169.809 66.3303 170.271 64.7462C170.271 64.6802 170.271 64.6472 170.271 64.6472C170.271 64.5812 170.304 64.5152 170.37 64.4492C170.502 63.8552 170.667 63.2611 170.865 62.6671C171.063 62.0071 171.294 61.3141 171.558 60.588C171.822 59.994 172.086 59.367 172.35 58.7069C172.35 58.6409 172.383 58.5089 172.449 58.3109C172.515 58.1789 172.548 58.1129 172.548 58.1129C172.746 57.6509 172.878 57.2879 172.944 57.0238C175.65 50.3575 179.511 42.8331 184.528 34.4507C184.132 34.3187 183.208 34.0877 181.755 33.7577C174.957 31.9756 170.172 30.8535 167.4 30.3915C165.948 29.9955 164.562 29.9295 163.242 30.1935C161.921 30.3915 160.865 30.6225 160.073 30.8865C159.281 31.0845 158.555 31.4476 157.895 31.9756C157.169 32.4376 156.707 32.7676 156.509 32.9656C156.311 33.1636 156.179 33.2956 156.113 33.3617C155.717 33.8897 155.288 33.9557 154.826 33.5597C154.298 33.1636 154.232 32.7346 154.628 32.2726C154.76 32.0746 154.958 31.8766 155.222 31.6786C155.486 31.4146 156.014 31.0185 156.806 30.4905C157.598 29.8965 158.456 29.4675 159.38 29.2034C160.304 28.8734 161.525 28.5764 163.044 28.3124C164.496 28.0484 166.047 28.1144 167.697 28.5104C170.535 29.0384 175.386 30.1935 182.25 31.9756C183.505 32.3056 184.594 32.5696 185.518 32.7676C192.316 21.4151 198.091 13.1646 202.844 8.01638C203.372 7.42235 203.999 7.12534 204.725 7.12534C205.517 7.05934 206.177 7.29035 206.705 7.81838C207.299 8.3464 207.596 9.00643 207.596 9.79847C207.662 10.5245 207.431 11.1845 206.903 11.7786C203.075 15.9368 197.926 23.4282 191.458 34.2527C200.236 36.3648 206.903 37.2888 211.457 37.0248C213.239 36.8928 214.79 36.5958 216.11 36.1338C217.43 35.6058 218.255 35.2097 218.585 34.9457C218.915 34.6157 219.146 34.3517 219.278 34.1537C219.674 33.6257 220.103 33.5597 220.565 33.9557C221.093 34.2857 221.192 34.6817 220.862 35.1437C220.664 35.4738 220.367 35.8368 219.971 36.2328C219.575 36.5628 218.585 37.0578 217.001 37.7179C215.417 38.3779 213.602 38.7409 211.556 38.8069C211.028 38.8729 210.434 38.9059 209.774 38.9059C205.22 38.9059 198.784 37.9159 190.468 35.9358C181.227 51.5786 175.947 62.9971 174.627 70.1915C174.033 72.8976 173.901 75.6038 174.231 78.3099C174.561 81.016 175.353 82.8641 176.607 83.8542C179.181 85.3723 182.779 85.5043 187.399 84.2502C189.841 83.5902 192.679 82.3031 195.913 80.389C199.213 78.4749 202.183 76.4948 204.824 74.4487C207.53 72.4026 210.269 70.1915 213.041 67.8154C215.879 65.3733 217.826 63.6572 218.882 62.6671C220.004 61.6111 220.829 60.819 221.357 60.291ZM251.846 60.291C252.308 59.829 252.737 59.829 253.133 60.291C253.595 60.753 253.595 61.182 253.133 61.5781C252.209 62.5021 250.988 63.6242 249.47 64.9442C247.952 66.2643 245.609 68.2114 242.441 70.7855C239.273 73.2937 236.006 75.3728 232.639 77.0228C229.339 78.7389 226.468 79.597 224.026 79.597C223.564 79.597 223.135 79.564 222.739 79.498H222.64H222.541C222.343 79.432 222.178 79.366 222.046 79.3C221.914 79.3 221.749 79.267 221.551 79.2009C219.967 78.6729 218.812 77.8149 218.086 76.6268C217.294 75.4388 216.931 74.1187 216.997 72.6666C217.063 71.1485 217.261 69.7295 217.591 68.4094C217.921 67.0893 218.35 65.8023 218.878 64.5482C219.868 62.3041 221.947 58.4759 225.115 53.0636C225.511 52.4036 226.072 51.9746 226.798 51.7766C227.524 51.5786 228.217 51.6776 228.877 52.0736C229.537 52.4696 229.966 53.0306 230.164 53.7567C230.362 54.4827 230.263 55.1757 229.867 55.8358C226.765 61.182 224.785 64.8452 223.927 66.8253C223.399 68.0134 222.937 69.1354 222.541 70.1915C222.211 71.2475 221.914 72.3366 221.65 73.4587C221.386 74.5807 221.353 75.5048 221.551 76.2308C221.749 76.9568 222.178 77.4189 222.838 77.6169C225.148 78.0789 228.382 77.1548 232.54 74.8447C236.699 72.6006 240.329 70.2245 243.431 67.7164C246.599 65.1422 249.404 62.6671 251.846 60.291ZM231.055 50.4895C230.461 50.6215 229.867 50.5225 229.273 50.1925C228.745 49.8625 228.382 49.4005 228.184 48.8064C228.052 48.1464 228.151 47.5524 228.481 47.0243C228.877 46.4303 229.372 46.0673 229.966 45.9353C230.626 45.7373 231.22 45.8033 231.748 46.1333C232.276 46.4633 232.606 46.9583 232.738 47.6184C232.936 48.2124 232.87 48.8064 232.54 49.4005C232.21 49.9285 231.715 50.2915 231.055 50.4895ZM306.754 60.291C307.15 59.829 307.546 59.829 307.942 60.291C308.404 60.753 308.437 61.182 308.041 61.5781C305.797 63.6902 303.52 65.7693 301.21 67.8154C297.447 71.1155 292.695 74.3497 286.953 77.5179C281.211 80.686 276.194 82.8641 271.904 84.0522C264.578 86.0323 258.01 86.5273 252.202 85.5373C253.258 91.2796 253.39 97.4179 252.598 103.952C251.41 113.325 248.836 118.506 244.876 119.496C244.216 119.694 243.589 119.793 242.995 119.793C242.599 119.793 242.203 119.727 241.807 119.595C239.959 119.397 238.473 118.605 237.351 117.219C236.229 115.833 235.536 114.051 235.272 111.873C234.942 109.694 234.777 107.417 234.777 105.041C234.777 102.665 235.008 100.157 235.47 97.5169C235.866 94.8767 236.262 92.6326 236.658 90.7845C237.054 88.9364 237.483 87.2203 237.945 85.6363C240.916 75.0097 246.229 63.6242 253.885 51.4796C252.037 51.0175 250.057 50.4565 247.945 49.7965C247.351 49.5985 247.153 49.2354 247.351 48.7074C247.549 48.1134 247.945 47.8824 248.539 48.0144C250.783 48.7404 252.895 49.3675 254.875 49.8955C257.449 45.9353 259.892 42.6021 262.202 39.896C274.346 25.5073 285.402 18.2469 295.368 18.1149C298.404 18.0489 301.045 18.8409 303.289 20.491C303.949 20.953 304.51 21.4481 304.972 21.9761C304.972 22.0421 304.972 22.1081 304.972 22.1741C305.038 22.1741 305.071 22.1741 305.071 22.1741C305.137 22.1741 305.17 22.2071 305.17 22.2731C306.556 23.9892 307.051 26.0683 306.655 28.5104C306.061 31.6786 303.982 35.0777 300.418 38.7079C296.919 42.3381 292.596 45.4733 287.448 48.1134C278.669 52.6676 269.363 54.1857 259.528 52.6676C254.248 60.522 249.991 68.4094 246.757 76.3298C247.153 76.3298 247.516 76.4288 247.846 76.6268C249.496 77.4849 250.783 79.795 251.707 83.5572C257.383 84.6792 263.951 84.2502 271.409 82.2701C275.501 81.148 280.386 79.0029 286.062 75.8348C291.738 72.7326 296.391 69.5975 300.022 66.4293C302.398 64.3832 304.642 62.3371 306.754 60.291ZM266.36 43.4602C264.578 45.6383 262.697 48.1464 260.717 50.9845C269.825 52.1726 278.471 50.6545 286.656 46.4303C289.824 44.8462 292.728 42.9981 295.368 40.886C298.008 38.7079 300.154 36.5298 301.804 34.3517C303.454 32.1076 304.477 30.0285 304.873 28.1144C305.203 26.1343 304.774 24.5172 303.586 23.2631C302.86 22.4051 302.002 21.7781 301.012 21.382C300.154 21.052 299.163 20.887 298.041 20.887C294.279 20.953 289.461 23.0651 283.587 27.2233C277.778 31.3816 272.036 36.7938 266.36 43.4602ZM246.262 78.4089C245.8 79.531 245.932 80.488 246.658 81.2801C247.318 82.0061 248.341 82.6001 249.727 83.0621C248.935 80.422 248.011 78.8049 246.955 78.2109C246.889 78.1449 246.823 78.1119 246.757 78.1119C246.493 78.1119 246.328 78.2109 246.262 78.4089ZM250.717 103.754C251.575 96.9558 251.41 90.7515 250.222 85.1412C247.978 84.5472 246.328 83.6892 245.272 82.5671C245.14 82.3031 244.975 82.0391 244.777 81.7751C244.183 83.6232 243.721 85.2402 243.391 86.6263C242.797 88.8704 242.236 91.3786 241.708 94.1507C241.18 96.9228 240.685 100.289 240.223 104.249C239.694 108.209 239.727 111.477 240.322 114.051C240.916 116.625 242.137 117.879 243.985 117.813C244.183 117.813 244.348 117.78 244.48 117.714C245.47 117.45 246.394 116.724 247.252 115.536C248.044 114.348 248.737 112.731 249.331 110.685C249.925 108.704 250.387 106.394 250.717 103.754ZM337.219 60.291C337.681 59.829 338.11 59.829 338.506 60.291C338.968 60.753 338.968 61.182 338.506 61.5781C337.582 62.5021 336.361 63.6242 334.843 64.9442C333.325 66.2643 330.981 68.2114 327.813 70.7855C324.645 73.2937 321.378 75.3728 318.012 77.0228C314.712 78.7389 311.841 79.597 309.398 79.597C308.936 79.597 308.507 79.564 308.111 79.498H308.012H307.913C307.715 79.432 307.55 79.366 307.418 79.3C307.286 79.3 307.121 79.267 306.923 79.2009C305.339 78.6729 304.184 77.8149 303.458 76.6268C302.666 75.4388 302.303 74.1187 302.369 72.6666C302.435 71.1485 302.633 69.7295 302.963 68.4094C303.293 67.0893 303.722 65.8023 304.25 64.5482C305.24 62.3041 307.319 58.4759 310.487 53.0636C310.883 52.4036 311.444 51.9746 312.171 51.7766C312.897 51.5786 313.59 51.6776 314.25 52.0736C314.91 52.4696 315.339 53.0306 315.537 53.7567C315.735 54.4827 315.636 55.1757 315.24 55.8358C312.138 61.182 310.157 64.8452 309.299 66.8253C308.771 68.0134 308.309 69.1354 307.913 70.1915C307.583 71.2475 307.286 72.3366 307.022 73.4587C306.758 74.5807 306.725 75.5048 306.923 76.2308C307.121 76.9568 307.55 77.4189 308.21 77.6169C310.52 78.0789 313.755 77.1548 317.913 74.8447C322.071 72.6006 325.701 70.2245 328.803 67.7164C331.972 65.1422 334.777 62.6671 337.219 60.291ZM316.428 50.4895C315.834 50.6215 315.24 50.5225 314.646 50.1925C314.118 49.8625 313.755 49.4005 313.557 48.8064C313.425 48.1464 313.524 47.5524 313.854 47.0243C314.25 46.4303 314.745 46.0673 315.339 45.9353C315.999 45.7373 316.593 45.8033 317.121 46.1333C317.649 46.4633 317.979 46.9583 318.111 47.6184C318.309 48.2124 318.243 48.8064 317.913 49.4005C317.583 49.9285 317.088 50.2915 316.428 50.4895ZM377.672 60.291C378.068 59.895 378.497 59.895 378.959 60.291C379.421 60.687 379.454 61.116 379.058 61.5781C377.012 63.6902 375.757 65.0102 375.295 65.5383C371.533 69.3665 366.55 73.1286 360.346 76.8248C354.141 80.587 348.894 82.4681 344.604 82.4681C343.944 82.4681 343.284 82.4021 342.624 82.2701C342.162 82.2041 341.7 82.0721 341.238 81.8741C339.786 81.4781 338.598 80.851 337.674 79.993C336.75 79.2009 335.891 78.0459 335.099 76.5278C334.175 74.6797 333.812 72.6336 334.01 70.3895C334.142 68.0794 334.571 65.9013 335.297 63.8552C336.023 61.8091 337.047 59.796 338.367 57.8159C340.281 54.9117 342.492 52.8326 345 51.5786C347.508 50.3245 350.049 49.8295 352.623 50.0935H352.722C352.722 50.0935 352.722 50.1265 352.722 50.1925C352.788 50.1925 352.821 50.1925 352.821 50.1925C352.887 50.1925 352.953 50.1925 353.019 50.1925C353.085 50.1925 353.151 50.1925 353.217 50.1925C354.339 50.4565 355.197 51.0175 355.791 51.8756C356.65 53.1296 356.881 54.6477 356.485 56.4298C356.287 57.0238 355.89 57.2548 355.296 57.1228C354.702 56.9248 354.504 56.5288 354.702 55.9348C354.966 54.6807 354.834 53.6577 354.306 52.8656C354.108 52.6676 353.877 52.4696 353.613 52.2716C350.181 51.4796 346.65 54.3177 343.02 60.786C342.228 62.1721 341.502 63.7562 340.842 65.5383C340.182 67.3204 339.621 69.2674 339.159 71.3796C338.763 73.4917 338.862 75.4058 339.456 77.1218C340.05 78.8379 341.238 79.96 343.02 80.488C346.65 81.148 351.666 79.663 358.069 76.0328C364.471 72.4026 369.784 68.4754 374.008 64.2512C374.47 63.7232 375.691 62.4031 377.672 60.291ZM423.729 60.291C424.125 59.895 424.554 59.895 425.016 60.291C425.478 60.687 425.511 61.116 425.115 61.5781C424.125 62.6341 422.97 63.8552 421.65 65.2412C420.33 66.6273 418.251 68.6734 415.413 71.3796C412.574 74.0857 409.868 76.4618 407.294 78.5079C404.72 80.554 401.981 82.3691 399.077 83.9532C396.173 85.5373 393.763 86.3293 391.849 86.3293C391.123 86.3293 390.463 86.2303 389.869 86.0323C388.285 85.6363 387.097 84.8442 386.305 83.6562C385.579 82.4681 385.216 81.115 385.216 79.597C385.282 78.0789 385.48 76.6268 385.81 75.2407C386.14 73.9207 386.602 72.6336 387.196 71.3796C387.724 70.1255 388.45 68.6074 389.374 66.8253C388.978 67.2213 388.648 67.5514 388.384 67.8154C385.15 71.3136 382.708 73.0626 381.058 73.0626C380.926 73.0626 380.761 73.0296 380.563 72.9636H380.464C380.464 72.9636 380.431 72.9636 380.365 72.9636C377.989 72.3696 376.636 70.5545 376.306 67.5184C376.042 64.4162 376.933 61.182 378.979 57.8159C380.827 54.9777 383.071 53.0966 385.711 52.1726C388.417 51.1825 390.859 51.3146 393.037 52.5686C394.556 53.1626 395.282 54.0867 395.216 55.3408C395.15 55.9348 394.82 56.2318 394.226 56.2318C393.631 56.1658 393.334 55.8358 393.334 55.2417C393.4 54.9777 393.202 54.7137 392.74 54.4497C391.42 53.8557 389.935 54.1857 388.285 55.4398C386.635 56.6938 385.084 58.4759 383.632 60.786C382.312 62.8981 381.355 65.0102 380.761 67.1223C380.233 69.2344 380.332 70.5875 381.058 71.1815C382.114 71.3136 384.094 69.7955 386.998 66.6273C389.968 63.4592 392.542 60.159 394.721 56.7268C395.117 56.0668 395.678 55.6378 396.404 55.4398C397.13 55.2417 397.823 55.3408 398.483 55.7368C399.143 56.1328 399.572 56.6938 399.77 57.4199C399.968 58.1459 399.869 58.8389 399.473 59.499C396.437 64.8452 394.027 69.5645 392.245 73.6567C389.407 79.993 388.978 83.5902 390.958 84.4482C392.74 84.7782 395.15 84.0852 398.186 82.3691C401.288 80.719 404.489 78.4419 407.789 75.5378C411.155 72.6996 414.159 70.0265 416.799 67.5184C419.439 64.9442 421.749 62.5351 423.729 60.291ZM473.511 60.291C473.907 59.829 474.303 59.829 474.699 60.291C475.161 60.753 475.194 61.182 474.798 61.5781C473.742 62.6341 472.323 63.9542 470.541 65.5383C468.824 67.0563 466.118 69.3995 462.422 72.5676C458.726 75.7358 454.832 78.5739 450.74 81.082C446.713 83.5902 443.149 85.2402 440.047 86.0323C437.869 86.6263 435.889 86.9233 434.107 86.9233C432.259 86.9233 430.576 86.6263 429.057 86.0323C426.087 84.9102 423.876 82.8311 422.424 79.795C420.972 76.7588 420.609 73.2276 421.335 69.2014C421.599 67.8154 421.962 66.3303 422.424 64.7462C422.424 64.6802 422.424 64.6472 422.424 64.6472C422.424 64.5812 422.457 64.5152 422.523 64.4492C422.655 63.8552 422.82 63.2611 423.018 62.6671C423.216 62.0071 423.447 61.3141 423.711 60.588C423.975 59.994 424.239 59.367 424.503 58.7069C424.503 58.6409 424.536 58.5089 424.602 58.3109C424.668 58.1789 424.701 58.1129 424.701 58.1129C424.899 57.6509 425.031 57.2879 425.097 57.0238C427.803 50.3575 431.665 42.8331 436.681 34.4507C436.285 34.3187 435.361 34.0877 433.909 33.7577C427.11 31.9756 422.325 30.8535 419.553 30.3915C418.101 29.9955 416.715 29.9295 415.395 30.1935C414.075 30.3915 413.019 30.6225 412.227 30.8865C411.435 31.0845 410.709 31.4476 410.048 31.9756C409.322 32.4376 408.86 32.7676 408.662 32.9656C408.464 33.1636 408.332 33.2956 408.266 33.3617C407.87 33.8897 407.441 33.9557 406.979 33.5597C406.451 33.1636 406.385 32.7346 406.781 32.2726C406.913 32.0746 407.111 31.8766 407.375 31.6786C407.639 31.4146 408.167 31.0185 408.959 30.4905C409.751 29.8965 410.61 29.4675 411.534 29.2034C412.458 28.8734 413.679 28.5764 415.197 28.3124C416.649 28.0484 418.2 28.1144 419.85 28.5104C422.688 29.0384 427.539 30.1935 434.404 31.9756C435.658 32.3056 436.747 32.5696 437.671 32.7676C444.469 21.4151 450.245 13.1646 454.997 8.01638C455.525 7.42235 456.152 7.12534 456.878 7.12534C457.67 7.05934 458.33 7.29035 458.858 7.81838C459.452 8.3464 459.749 9.00643 459.749 9.79847C459.815 10.5245 459.584 11.1845 459.056 11.7786C455.228 15.9368 450.079 23.4282 443.611 34.2527C452.39 36.3648 459.056 37.2888 463.61 37.0248C465.392 36.8928 466.943 36.5958 468.263 36.1338C469.583 35.6058 470.409 35.2097 470.739 34.9457C471.069 34.6157 471.3 34.3517 471.432 34.1537C471.828 33.6257 472.257 33.5597 472.719 33.9557C473.247 34.2857 473.346 34.6817 473.016 35.1437C472.818 35.4738 472.521 35.8368 472.125 36.2328C471.729 36.5628 470.739 37.0578 469.154 37.7179C467.57 38.3779 465.755 38.7409 463.709 38.8069C463.181 38.8729 462.587 38.9059 461.927 38.9059C457.373 38.9059 450.938 37.9159 442.621 35.9358C433.381 51.5786 428.1 62.9971 426.78 70.1915C426.186 72.8976 426.054 75.6038 426.384 78.3099C426.714 81.016 427.506 82.8641 428.76 83.8542C431.335 85.3723 434.932 85.5043 439.552 84.2502C441.994 83.5902 444.832 82.3031 448.066 80.389C451.367 78.4749 454.337 76.4948 456.977 74.4487C459.683 72.4026 462.422 70.1915 465.194 67.8154C468.032 65.3733 469.979 63.6572 471.036 62.6671C472.158 61.6111 472.983 60.819 473.511 60.291ZM513.9 60.291C514.296 59.895 514.725 59.895 515.187 60.291C515.649 60.687 515.682 61.116 515.286 61.5781C513.24 63.6902 511.986 65.0102 511.524 65.5383C507.762 69.3665 502.779 73.1286 496.574 76.8248C490.37 80.587 485.123 82.4681 480.832 82.4681C480.172 82.4681 479.512 82.4021 478.852 82.2701C478.39 82.2041 477.928 82.0721 477.466 81.8741C474.76 81.082 472.714 79.3 471.328 76.5278C470.404 74.6797 470.041 72.6336 470.239 70.3895C470.371 68.0794 470.8 65.9013 471.526 63.8552C472.252 61.8091 473.275 59.796 474.595 57.8159C476.509 54.9117 478.72 52.8326 481.228 51.5786C483.737 50.3245 486.278 49.8295 488.852 50.0935H488.951L489.149 50.1925H489.248C489.248 50.1925 489.281 50.1925 489.347 50.1925C489.413 50.1925 489.446 50.1925 489.446 50.1925C490.766 50.4565 491.756 51.1495 492.416 52.2716C493.208 53.6577 493.274 55.0767 492.614 56.5288C491.162 59.829 486.542 61.5451 478.753 61.6771C477.961 63.1951 477.268 64.8122 476.674 66.5283C476.146 68.2444 475.684 70.0925 475.288 72.0726C474.958 74.0527 475.123 75.8018 475.783 77.3199C476.443 78.9039 477.598 79.96 479.248 80.488C482.879 81.148 487.895 79.663 494.297 76.0328C500.699 72.4026 506.013 68.4754 510.237 64.2512C510.699 63.7232 511.92 62.4031 513.9 60.291ZM489.842 52.2716C486.608 51.5456 483.275 54.0537 479.842 59.796C486.179 59.532 489.875 58.2119 490.931 55.8358C491.327 54.9117 491.294 54.0537 490.832 53.2616C490.634 52.8656 490.304 52.5356 489.842 52.2716Z" fill="#5A3600"/>
</svg>
