<svg width="69" height="63" viewBox="0 0 69 63" fill="none" xmlns="http://www.w3.org/2000/svg">
<path fill-rule="evenodd" clip-rule="evenodd" d="M29.6259 0.0466747C29.6259 0.0723458 29.2812 0.105724 28.8599 0.120812C28.3978 0.137365 28.0693 0.172696 28.0321 0.209819C27.996 0.245802 27.7827 0.271364 27.5183 0.271364C27.2697 0.271364 27.0663 0.292314 27.0663 0.317876C27.0663 0.343493 26.8647 0.378173 26.6184 0.394998C26.3721 0.411823 26.1618 0.45193 26.151 0.484168C26.1399 0.517275 25.9914 0.542729 25.8092 0.542729C25.632 0.542729 25.487 0.563732 25.487 0.589404C25.487 0.615075 25.3487 0.650298 25.1797 0.667719C25.0107 0.685087 24.8465 0.72514 24.8148 0.756673C24.7831 0.788259 24.6518 0.814093 24.523 0.814093C24.3942 0.814093 24.2889 0.838516 24.2889 0.868366C24.2889 0.898216 24.1725 0.923399 24.0302 0.924376C23.8879 0.925298 23.7239 0.961932 23.6658 1.00578C23.6076 1.04958 23.479 1.08546 23.3799 1.08546C23.2808 1.08546 23.1997 1.10988 23.1997 1.13973C23.1997 1.16958 23.1201 1.19476 23.0227 1.19574C22.9253 1.19666 22.7981 1.2333 22.74 1.27715C22.6818 1.32095 22.5532 1.35682 22.4541 1.35682C22.355 1.35682 22.2739 1.38124 22.2739 1.41109C22.2739 1.44094 22.1864 1.46537 22.0794 1.46537C21.9724 1.46537 21.8481 1.502 21.8032 1.54678C21.7583 1.59155 21.662 1.62819 21.5893 1.62819C21.5165 1.62819 21.457 1.65261 21.457 1.68246C21.457 1.71231 21.3852 1.73673 21.2975 1.73673C21.2098 1.73673 21.1013 1.77337 21.0563 1.81814C21.0114 1.86292 20.8994 1.89955 20.8073 1.89955C20.7154 1.89955 20.6401 1.92397 20.6401 1.95382C20.6401 1.98367 20.5788 2.0081 20.5039 2.0081C20.4291 2.0081 20.3678 2.03057 20.3678 2.05808C20.3678 2.08554 20.2943 2.12413 20.2044 2.14378C20.1146 2.16343 20.041 2.20201 20.041 2.22948C20.041 2.25699 19.9658 2.27946 19.8738 2.27946C19.7818 2.27946 19.6697 2.3161 19.6248 2.36087C19.5799 2.40565 19.4836 2.44228 19.4109 2.44228C19.3381 2.44228 19.2786 2.4667 19.2786 2.49655C19.2786 2.5264 19.2173 2.55083 19.1425 2.55083C19.0676 2.55083 19.0063 2.57476 19.0063 2.60407C19.0063 2.63332 18.945 2.67261 18.8702 2.69134C18.7953 2.71006 18.734 2.74718 18.734 2.77378C18.734 2.80043 18.6728 2.82219 18.5979 2.82219C18.523 2.82219 18.4617 2.84661 18.4617 2.87646C18.4617 2.90631 18.411 2.93074 18.3489 2.93074C18.2868 2.93074 18.1993 2.96737 18.1544 3.01214C18.1095 3.05692 18.0132 3.09355 17.9405 3.09355C17.8677 3.09355 17.8082 3.11532 17.8082 3.14197C17.8082 3.16856 17.7469 3.20568 17.6721 3.22441C17.5972 3.24313 17.5359 3.28242 17.5359 3.31168C17.5359 3.34098 17.4992 3.36492 17.4542 3.36492C17.4093 3.36492 17.3725 3.38934 17.3725 3.41919C17.3725 3.44904 17.3113 3.47346 17.2364 3.47346C17.1615 3.47346 17.1002 3.4974 17.1002 3.52671C17.1002 3.55596 17.039 3.59525 16.9641 3.61398C16.8892 3.6327 16.8279 3.66982 16.8279 3.69642C16.8279 3.72307 16.7667 3.74483 16.6918 3.74483C16.6169 3.74483 16.5556 3.76762 16.5556 3.79547C16.5556 3.82331 16.5005 3.8632 16.4331 3.88415C16.3657 3.90515 16.2983 3.93788 16.2833 3.95693C16.224 4.03242 15.9557 4.17901 15.8768 4.17901C15.8308 4.17901 15.7932 4.20343 15.7932 4.23328C15.7932 4.26313 15.7565 4.28756 15.7115 4.28756C15.6666 4.28756 15.6298 4.31149 15.6298 4.3408C15.6298 4.37005 15.5686 4.40935 15.4937 4.42807C15.4188 4.44679 15.3575 4.48392 15.3575 4.51051C15.3575 4.53716 15.3078 4.55892 15.2469 4.55892C15.186 4.55892 15.1222 4.59556 15.105 4.64033C15.0877 4.68511 15.0394 4.72174 14.9977 4.72174C14.956 4.72174 14.9219 4.74616 14.9219 4.77601C14.9219 4.80586 14.8818 4.83029 14.8328 4.83029C14.7838 4.83029 14.687 4.89134 14.6175 4.96597C14.5482 5.04059 14.4501 5.10165 14.3997 5.10165C14.3493 5.10165 14.2513 5.16271 14.1819 5.23733C14.1125 5.31196 14.0267 5.37301 13.9913 5.37301C13.9559 5.37301 13.8701 5.43407 13.8007 5.5087C13.7313 5.58332 13.6366 5.64438 13.5902 5.64438C13.5438 5.64438 13.5059 5.6688 13.5059 5.69865C13.5059 5.7285 13.4692 5.75293 13.4242 5.75293C13.3793 5.75293 13.3425 5.78956 13.3425 5.83433C13.3425 5.88047 13.2937 5.91574 13.23 5.91574C13.1681 5.91574 13.0365 6.00122 12.9376 6.1057C12.8387 6.21017 12.7312 6.29565 12.6987 6.29565C12.6662 6.29565 12.5783 6.35671 12.5034 6.43134C12.4285 6.50596 12.3416 6.56702 12.3103 6.56702C12.2789 6.56702 12.2534 6.60365 12.2534 6.64843C12.2534 6.69364 12.2049 6.72984 12.1444 6.72984C12.0845 6.72984 12.0355 6.75426 12.0355 6.78411C12.0355 6.81396 11.9988 6.83838 11.9538 6.83838C11.9089 6.83838 11.8721 6.87502 11.8721 6.91979C11.8721 6.96457 11.844 7.0012 11.8096 7.0012C11.7751 7.0012 11.6637 7.08668 11.5619 7.19116C11.46 7.29563 11.353 7.38111 11.324 7.38111C11.2949 7.38111 11.1879 7.46659 11.0861 7.57107C10.9842 7.67554 10.8744 7.76102 10.8419 7.76102C10.8095 7.76102 10.783 7.79766 10.783 7.84243C10.783 7.88721 10.7567 7.92384 10.7246 7.92384C10.6492 7.92384 10.5107 8.06191 10.5107 8.13708C10.5107 8.16905 10.4728 8.1952 10.4264 8.1952C10.38 8.1952 10.2853 8.25626 10.2159 8.33089C10.1465 8.40551 10.0619 8.46657 10.0279 8.46657C9.99389 8.46657 9.96606 8.49273 9.96606 8.5247C9.96606 8.58798 9.83198 8.73793 9.77545 8.73793C9.71892 8.73793 9.58485 8.88789 9.58485 8.95117C9.58485 8.98314 9.5586 9.0093 9.52652 9.0093C9.45109 9.0093 9.31255 9.14737 9.31255 9.22254C9.31255 9.2545 9.2863 9.28066 9.25422 9.28066C9.19072 9.28066 9.04025 9.41428 9.04025 9.47062C9.04025 9.52695 8.88978 9.66057 8.82628 9.66057C8.7942 9.66057 8.76796 9.68673 8.76796 9.7187C8.76796 9.79387 8.62941 9.93194 8.55398 9.93194C8.52191 9.93194 8.49566 9.9581 8.49566 9.99006C8.49566 10.0652 8.35711 10.2033 8.28169 10.2033C8.24961 10.2033 8.22336 10.2644 8.22336 10.339C8.22336 10.4136 8.19711 10.4747 8.16504 10.4747C8.08961 10.4747 7.95107 10.6127 7.95107 10.6879C7.95107 10.7199 7.92482 10.746 7.89274 10.746C7.82733 10.746 7.67877 10.8803 7.67877 10.9395C7.67877 10.9606 7.6175 11.0344 7.54262 11.1036C7.46774 11.1727 7.40647 11.2537 7.40647 11.2835C7.40647 11.3134 7.3207 11.4208 7.21586 11.5223C7.11103 11.6237 7.02526 11.7348 7.02526 11.7691C7.02526 11.8034 6.9885 11.8315 6.94357 11.8315C6.89864 11.8315 6.86188 11.8681 6.86188 11.9129C6.86188 11.9577 6.83737 11.9943 6.80742 11.9943C6.77747 11.9943 6.75296 12.0432 6.75296 12.1029C6.75296 12.1631 6.71664 12.2114 6.67127 12.2114C6.62634 12.2114 6.58958 12.2369 6.58958 12.2681C6.58958 12.2993 6.52831 12.3859 6.45343 12.4606C6.37855 12.5352 6.31729 12.6228 6.31729 12.6552C6.31729 12.6876 6.23151 12.7948 6.12668 12.8933C6.02184 12.9918 5.93607 13.123 5.93607 13.1847C5.93607 13.2482 5.90067 13.2969 5.85438 13.2969C5.80945 13.2969 5.77269 13.3335 5.77269 13.3783C5.77269 13.423 5.74818 13.4597 5.71823 13.4597C5.68828 13.4597 5.66377 13.4974 5.66377 13.5437C5.66377 13.5899 5.60251 13.6843 5.52762 13.7534C5.45274 13.8226 5.39148 13.9081 5.39148 13.9434C5.39148 13.9787 5.33021 14.0642 5.25533 14.1333C5.18045 14.2025 5.11918 14.3002 5.11918 14.3504C5.11918 14.4007 5.05791 14.4983 4.98303 14.5675C4.90815 14.6367 4.84688 14.7332 4.84688 14.782C4.84688 14.8308 4.82238 14.8708 4.79242 14.8708C4.76247 14.8708 4.73796 14.9048 4.73796 14.9464C4.73796 14.9879 4.7012 15.036 4.65627 15.0532C4.61135 15.0704 4.57459 15.134 4.57459 15.1947C4.57459 15.2553 4.55275 15.305 4.52601 15.305C4.49932 15.305 4.46207 15.366 4.44328 15.4406C4.4245 15.5153 4.38507 15.5763 4.35571 15.5763C4.32631 15.5763 4.30229 15.613 4.30229 15.6577C4.30229 15.7025 4.27778 15.7391 4.24783 15.7391C4.21788 15.7391 4.19337 15.7887 4.19337 15.8494C4.19337 15.91 4.15661 15.9737 4.11168 15.9909C4.06675 16.0081 4.02999 16.0684 4.02999 16.1249C4.02999 16.1814 4.00815 16.2276 3.98141 16.2276C3.95473 16.2276 3.91748 16.2886 3.89869 16.3633C3.8799 16.4379 3.84047 16.499 3.81112 16.499C3.78171 16.499 3.7577 16.56 3.7577 16.6346C3.7577 16.7093 3.73586 16.7703 3.70912 16.7703C3.68243 16.7703 3.64518 16.8314 3.62639 16.906C3.60761 16.9806 3.56818 17.0417 3.53882 17.0417C3.50942 17.0417 3.4854 17.0783 3.4854 17.1231C3.4854 17.1679 3.46089 17.2045 3.43094 17.2045C3.40099 17.2045 3.37648 17.2656 3.37648 17.3402C3.37648 17.4148 3.35246 17.4759 3.32306 17.4759C3.2937 17.4759 3.25427 17.5369 3.23548 17.6115C3.2167 17.6862 3.17945 17.7472 3.15276 17.7472C3.12602 17.7472 3.10418 17.8066 3.10418 17.8791C3.10418 17.9515 3.06742 18.0475 3.02249 18.0922C2.97757 18.137 2.9408 18.2242 2.9408 18.2861C2.9408 18.3479 2.9163 18.3985 2.88635 18.3985C2.85639 18.3985 2.83189 18.4596 2.83189 18.5342C2.83189 18.6088 2.80787 18.6699 2.77846 18.6699C2.74911 18.6699 2.70968 18.7309 2.69089 18.8056C2.6721 18.8802 2.63485 18.9412 2.60817 18.9412C2.58143 18.9412 2.55959 19.0023 2.55959 19.0769C2.55959 19.1515 2.53781 19.2126 2.51118 19.2126C2.4846 19.2126 2.4467 19.2981 2.42704 19.4026C2.40738 19.507 2.36789 19.5925 2.3393 19.5925C2.31071 19.5925 2.28729 19.6658 2.28729 19.7553C2.28729 19.8449 2.26551 19.9181 2.23888 19.9181C2.2123 19.9181 2.1744 20.0036 2.15474 20.1081C2.13508 20.2126 2.0956 20.2981 2.067 20.2981C2.03841 20.2981 2.015 20.3591 2.015 20.4337C2.015 20.5084 1.99049 20.5694 1.96054 20.5694C1.93058 20.5694 1.90521 20.6243 1.90417 20.6915C1.90308 20.7587 1.86719 20.8747 1.82439 20.9493C1.78158 21.024 1.74569 21.1522 1.74461 21.2343C1.74357 21.3163 1.71819 21.3835 1.68824 21.3835C1.65829 21.3835 1.63378 21.4585 1.63378 21.5502C1.63378 21.6419 1.59702 21.7535 1.55209 21.7983C1.50716 21.8431 1.4704 21.9391 1.4704 22.0115C1.4704 22.084 1.4459 22.1433 1.41594 22.1433C1.38599 22.1433 1.36148 22.2393 1.36148 22.3566C1.36148 22.4738 1.32472 22.6064 1.27979 22.6512C1.23487 22.6959 1.19811 22.8198 1.19811 22.9264C1.19811 23.033 1.1736 23.1202 1.14365 23.1202C1.11369 23.1202 1.08919 23.1905 1.08919 23.2764C1.08919 23.3624 1.05243 23.5203 1.0075 23.6275C0.962569 23.7346 0.925809 23.8963 0.925809 23.9869C0.925809 24.0774 0.901302 24.1514 0.87135 24.1514C0.841397 24.1514 0.81689 24.2687 0.81689 24.4119C0.81689 24.5552 0.79173 24.6975 0.760961 24.7282C0.730245 24.7588 0.690054 24.9102 0.671702 25.0647C0.653349 25.2191 0.617242 25.3454 0.591483 25.3454C0.565669 25.3454 0.544594 25.5022 0.544594 25.6937C0.544594 25.8862 0.519324 26.0503 0.488065 26.0607C0.456968 26.0711 0.416614 26.2562 0.398479 26.4723C0.38029 26.6883 0.344455 26.8651 0.31886 26.8651C0.293264 26.8651 0.272297 27.1072 0.272297 27.4033C0.272297 27.6993 0.249533 27.9496 0.221758 27.9596C0.193984 27.9695 0.153739 28.3012 0.132391 28.6968C0.111043 29.0923 0.0724854 29.4159 0.0467806 29.4159C0.0210758 29.4159 0 30.344 0 31.4783C0 32.6126 0.0209669 33.5406 0.0465627 33.5406C0.0721586 33.5406 0.110389 33.8765 0.131574 34.2869C0.152758 34.6974 0.193058 35.0413 0.221214 35.0512C0.249315 35.0612 0.272297 35.3115 0.272297 35.6075C0.272297 35.9036 0.293264 36.1457 0.31886 36.1457C0.344455 36.1457 0.379691 36.3154 0.397172 36.5229C0.414599 36.7303 0.454899 36.9485 0.486758 37.0078C0.518562 37.067 0.544594 37.227 0.544594 37.3633C0.544594 37.4996 0.5691 37.6111 0.599053 37.6111C0.629005 37.6111 0.653512 37.7286 0.653512 37.8721C0.653512 38.0176 0.688911 38.1797 0.733459 38.2384C0.777462 38.2964 0.814222 38.4598 0.815148 38.6016C0.816128 38.7433 0.837966 38.8594 0.86378 38.8594C0.889539 38.8594 0.925646 38.9857 0.943998 39.1401C0.962351 39.2946 1.00254 39.446 1.03326 39.4766C1.06403 39.5073 1.08919 39.613 1.08919 39.7115C1.08919 39.81 1.11048 39.8906 1.13657 39.8906C1.1626 39.8906 1.19696 40.0058 1.21292 40.1466C1.22882 40.2874 1.26879 40.4115 1.30169 40.4225C1.33458 40.4334 1.36148 40.5258 1.36148 40.6278C1.36148 40.7297 1.38599 40.8132 1.41594 40.8132C1.4459 40.8132 1.47116 40.8926 1.47215 40.9896C1.47307 41.0866 1.50983 41.2134 1.55383 41.2713C1.59778 41.3293 1.63378 41.4331 1.63378 41.502C1.63378 41.5709 1.65829 41.6273 1.68824 41.6273C1.71819 41.6273 1.74346 41.7066 1.74444 41.8037C1.74537 41.9007 1.78213 42.0275 1.82613 42.0854C1.87008 42.1434 1.90608 42.2471 1.90608 42.3161C1.90608 42.385 1.93058 42.4414 1.96054 42.4414C1.99049 42.4414 2.015 42.5024 2.015 42.5771C2.015 42.6517 2.03841 42.7128 2.067 42.7128C2.0956 42.7128 2.13508 42.7982 2.15474 42.9027C2.1744 43.0072 2.2123 43.0927 2.23888 43.0927C2.26551 43.0927 2.28729 43.1659 2.28729 43.2555C2.28729 43.345 2.30908 43.4183 2.33571 43.4183C2.36228 43.4183 2.40019 43.5038 2.41985 43.6083C2.43951 43.7127 2.47899 43.7982 2.50758 43.7982C2.53617 43.7982 2.55959 43.8593 2.55959 43.9339C2.55959 44.0085 2.58361 44.0696 2.61301 44.0696C2.64237 44.0696 2.6818 44.1306 2.70058 44.2053C2.71937 44.2799 2.75662 44.3409 2.78331 44.3409C2.81005 44.3409 2.83189 44.4264 2.83189 44.5309C2.83189 44.6354 2.85372 44.7209 2.88046 44.7209C2.90715 44.7209 2.9444 44.7819 2.96319 44.8565C2.98198 44.9312 3.0214 44.9922 3.05076 44.9922C3.08017 44.9922 3.10418 45.0533 3.10418 45.1279C3.10418 45.2025 3.12602 45.2636 3.15276 45.2636C3.17945 45.2636 3.2167 45.3246 3.23548 45.3993C3.25427 45.4739 3.2937 45.5349 3.32306 45.5349C3.35246 45.5349 3.37648 45.596 3.37648 45.6706C3.37648 45.7453 3.4005 45.8063 3.4299 45.8063C3.45926 45.8063 3.49869 45.8674 3.51747 45.942C3.53626 46.0166 3.57351 46.0777 3.6002 46.0777C3.62694 46.0777 3.64878 46.1387 3.64878 46.2134C3.64878 46.288 3.66936 46.349 3.69447 46.349C3.71963 46.349 3.78699 46.4465 3.84423 46.5655C3.90147 46.6846 3.96671 46.7822 3.98915 46.7826C4.01158 46.783 4.02999 46.8295 4.02999 46.886C4.02999 46.9425 4.06675 47.0028 4.11168 47.02C4.15661 47.0371 4.19337 47.1008 4.19337 47.1614C4.19337 47.2221 4.21521 47.2717 4.24195 47.2717C4.26863 47.2717 4.30588 47.3327 4.32467 47.4074C4.34346 47.482 4.38289 47.543 4.41224 47.543C4.44165 47.543 4.46567 47.5797 4.46567 47.6245C4.46567 47.6692 4.49017 47.7059 4.52013 47.7059C4.55008 47.7059 4.57459 47.7521 4.57459 47.8086C4.57459 47.8651 4.61135 47.9254 4.65627 47.9426C4.7012 47.9597 4.73796 48.0234 4.73796 48.0841C4.73796 48.1447 4.76247 48.1943 4.79242 48.1943C4.82238 48.1943 4.84688 48.2205 4.84688 48.2524C4.84688 48.2845 4.87754 48.3447 4.91496 48.3863C5.07659 48.5659 5.11918 48.6273 5.11918 48.6805C5.11918 48.7116 5.14102 48.737 5.16776 48.737C5.19444 48.737 5.23169 48.7981 5.25048 48.8727C5.26927 48.9474 5.3087 49.0084 5.33805 49.0084C5.36746 49.0084 5.39148 49.0346 5.39148 49.0665C5.39148 49.0986 5.42214 49.1587 5.45955 49.2004C5.62119 49.38 5.66377 49.4413 5.66377 49.4946C5.66377 49.5257 5.68828 49.5511 5.71823 49.5511C5.74818 49.5511 5.77269 49.5867 5.77269 49.6301C5.77269 49.6735 5.83396 49.7701 5.90884 49.8447C5.98372 49.9193 6.04499 50.0059 6.04499 50.0372C6.04499 50.0684 6.08175 50.0939 6.12668 50.0939C6.17297 50.0939 6.20837 50.1425 6.20837 50.2061C6.20837 50.2678 6.29414 50.3989 6.39897 50.4974C6.50381 50.5959 6.58958 50.6984 6.58958 50.725C6.58958 50.7516 6.65085 50.8392 6.72573 50.9197C6.80061 51.0002 6.86188 51.0915 6.86188 51.1227C6.86188 51.1538 6.89864 51.1793 6.94357 51.1793C6.9885 51.1793 7.02526 51.216 7.02526 51.2607C7.02526 51.3055 7.04976 51.3421 7.07972 51.3421C7.10967 51.3421 7.13418 51.391 7.13418 51.4507C7.13418 51.511 7.1705 51.5592 7.21586 51.5592C7.26079 51.5592 7.29755 51.5854 7.29755 51.6174C7.29755 51.6925 7.4361 51.8306 7.51152 51.8306C7.5436 51.8306 7.56985 51.8571 7.56985 51.8894C7.56985 51.9217 7.65562 52.0312 7.76046 52.1327C7.86529 52.2341 7.95107 52.3424 7.95107 52.3733C7.95107 52.4042 8.03684 52.5125 8.14167 52.614C8.24651 52.7155 8.33228 52.8249 8.33228 52.8573C8.33228 52.8896 8.35853 52.9161 8.39061 52.9161C8.46603 52.9161 8.60458 53.0541 8.60458 53.1293C8.60458 53.1613 8.63083 53.1874 8.6629 53.1874C8.73833 53.1874 8.87687 53.3255 8.87687 53.4007C8.87687 53.4326 8.90312 53.4588 8.9352 53.4588C9.01063 53.4588 9.14917 53.5969 9.14917 53.672C9.14917 53.704 9.17542 53.7301 9.2075 53.7301C9.28292 53.7301 9.42147 53.8682 9.42147 53.9434C9.42147 53.9754 9.44772 54.0015 9.47979 54.0015C9.55522 54.0015 9.69376 54.1396 9.69376 54.2147C9.69376 54.2467 9.72001 54.2729 9.75209 54.2729C9.82752 54.2729 9.96606 54.4109 9.96606 54.4861C9.96606 54.5181 9.99024 54.5442 10.0198 54.5442C10.0494 54.5442 10.1967 54.6664 10.3473 54.8156C10.4979 54.9649 10.6452 55.087 10.6747 55.087C10.7043 55.087 10.8755 55.2335 11.0552 55.4126C11.235 55.5917 11.396 55.7382 11.4131 55.7382C11.4303 55.7382 11.4784 55.7688 11.5202 55.8061C11.6851 55.9535 11.7601 56.0096 11.792 56.0096C11.8473 56.0096 11.9811 56.1605 11.9811 56.2228C11.9811 56.2548 12.0178 56.281 12.0627 56.281C12.1077 56.281 12.1444 56.3054 12.1444 56.3352C12.1444 56.3651 12.1753 56.3895 12.2131 56.3895C12.2508 56.3895 12.3478 56.4506 12.4285 56.5252C12.5093 56.5998 12.6009 56.6609 12.6322 56.6609C12.6634 56.6609 12.689 56.6975 12.689 56.7423C12.689 56.7875 12.7374 56.8237 12.7979 56.8237C12.8579 56.8237 12.9069 56.8481 12.9069 56.878C12.9069 56.9078 12.9436 56.9323 12.9886 56.9323C13.0335 56.9323 13.0702 56.9689 13.0702 57.0137C13.0702 57.0584 13.107 57.0951 13.1519 57.0951C13.1969 57.0951 13.2336 57.1195 13.2336 57.1493C13.2336 57.1792 13.2715 57.2036 13.3179 57.2036C13.3643 57.2036 13.459 57.2647 13.5284 57.3393C13.5978 57.4139 13.6765 57.475 13.7033 57.475C13.7301 57.475 13.8182 57.536 13.899 57.6107C13.9797 57.6853 14.0848 57.7463 14.1324 57.7463C14.1801 57.7463 14.2759 57.8074 14.3452 57.882C14.4147 57.9566 14.5238 58.0177 14.5878 58.0177C14.6517 58.0177 14.704 58.0439 14.704 58.0758C14.704 58.1716 14.8519 58.2891 14.9725 58.2891C15.0345 58.2891 15.0852 58.3096 15.0852 58.3348C15.0852 58.36 15.1771 58.4271 15.2895 58.4841C15.4018 58.541 15.5059 58.6003 15.5209 58.616C15.597 58.6953 15.8541 58.8318 15.9275 58.8318C15.9734 58.8318 16.011 58.8562 16.011 58.8861C16.011 58.9159 16.0478 58.9403 16.0927 58.9403C16.1377 58.9403 16.1744 58.9643 16.1744 58.9936C16.1744 59.0228 16.2357 59.0621 16.3106 59.0809C16.3855 59.0996 16.4467 59.1367 16.4467 59.1633C16.4467 59.1899 16.508 59.2117 16.5829 59.2117C16.6676 59.2117 16.719 59.2425 16.719 59.2931C16.719 59.3438 16.7704 59.3745 16.8552 59.3745C16.9301 59.3745 16.9913 59.399 16.9913 59.4288C16.9913 59.4587 17.0411 59.4831 17.1019 59.4831C17.1628 59.4831 17.2267 59.5197 17.2439 59.5645C17.2612 59.6093 17.3339 59.6459 17.4056 59.6459C17.4773 59.6459 17.5359 59.6703 17.5359 59.7002C17.5359 59.73 17.5823 59.7544 17.639 59.7544C17.6957 59.7544 17.7562 59.7911 17.7735 59.8358C17.7907 59.8806 17.8546 59.9173 17.9154 59.9173C17.9763 59.9173 18.026 59.9417 18.026 59.9715C18.026 60.0014 18.0731 60.0258 18.1306 60.0258C18.2425 60.0258 18.5859 60.189 18.616 60.2565C18.626 60.2788 18.6934 60.2972 18.7658 60.2972C18.8381 60.2972 18.8974 60.3216 18.8974 60.3514C18.8974 60.3813 18.9447 60.4057 19.0024 60.4057C19.0602 60.4057 19.1442 60.4423 19.1891 60.4871C19.2341 60.5319 19.3338 60.5685 19.4109 60.5685C19.4879 60.5685 19.5509 60.5919 19.5509 60.6204C19.5509 60.6489 19.6367 60.6882 19.7415 60.7078C19.8463 60.7274 19.9321 60.7652 19.9321 60.7916C19.9321 60.8182 19.9934 60.8399 20.0683 60.8399C20.1432 60.8399 20.2044 60.8643 20.2044 60.8942C20.2044 60.924 20.261 60.9484 20.3302 60.9484C20.3993 60.9484 20.5035 60.9843 20.5616 61.0281C20.6197 61.072 20.7224 61.1086 20.7899 61.1095C20.8573 61.1105 20.9124 61.1357 20.9124 61.1655C20.9124 61.1954 20.9877 61.2198 21.0796 61.2198C21.1717 61.2198 21.2837 61.2564 21.3286 61.3012C21.3736 61.346 21.4821 61.3826 21.5698 61.3826C21.6575 61.3826 21.7293 61.407 21.7293 61.4369C21.7293 61.4667 21.7844 61.492 21.8518 61.4931C21.9192 61.4942 22.0356 61.5299 22.1105 61.5726C22.1854 61.6152 22.3263 61.651 22.4236 61.6521C22.521 61.6531 22.6006 61.6784 22.6006 61.7083C22.6006 61.7381 22.6881 61.7625 22.7951 61.7625C22.9021 61.7625 23.0264 61.7992 23.0713 61.8439C23.1163 61.8887 23.2493 61.9254 23.3669 61.9254C23.4846 61.9254 23.5809 61.9466 23.5809 61.9726C23.5809 61.9985 23.6965 62.0328 23.8378 62.0487C23.9791 62.0645 24.1037 62.1043 24.1147 62.1371C24.1256 62.1699 24.2551 62.1967 24.4023 62.1967C24.5496 62.1967 24.6701 62.2211 24.6701 62.251C24.6701 62.2808 24.7906 62.3053 24.9379 62.3053C25.0851 62.3053 25.2141 62.3306 25.2244 62.3616C25.2348 62.3926 25.4206 62.4328 25.6374 62.4509C25.8542 62.469 26.0316 62.5047 26.0316 62.5302C26.0316 62.5557 26.1766 62.5766 26.3538 62.5766C26.5446 62.5766 26.6844 62.6016 26.6965 62.6379C26.7089 62.6751 26.9245 62.7099 27.2456 62.7267C27.5364 62.7418 27.7743 62.7738 27.7743 62.7976C27.7743 62.8215 28.0254 62.8534 28.3325 62.8686C28.6395 62.8838 29.1725 62.92 29.517 62.949C30.3264 63.0171 32.9035 63.017 33.7103 62.9487C34.0548 62.9196 34.6124 62.8835 34.9493 62.8686C35.2863 62.8536 35.562 62.8221 35.562 62.7985C35.562 62.7749 35.7761 62.7405 36.0379 62.7221C36.2997 62.7037 36.5223 62.6634 36.5326 62.6326C36.543 62.6013 36.7175 62.5766 36.928 62.5766C37.1352 62.5766 37.3047 62.5551 37.3047 62.5289C37.3047 62.5026 37.4564 62.4702 37.6419 62.4568C37.8312 62.4432 37.9885 62.4046 38.0004 62.3689C38.0135 62.3298 38.1459 62.3053 38.3439 62.3053C38.5224 62.3053 38.6661 62.2811 38.6661 62.251C38.6661 62.2211 38.7581 62.1959 38.8704 62.1948C38.9827 62.1937 39.1359 62.158 39.2107 62.1153C39.2856 62.0727 39.4388 62.0369 39.5511 62.0358C39.6635 62.0348 39.7553 62.0095 39.7553 61.9796C39.7553 61.9498 39.8349 61.9246 39.9323 61.9236C40.0297 61.9227 40.1569 61.8861 40.215 61.8422C40.2732 61.7984 40.4018 61.7625 40.5009 61.7625C40.6 61.7625 40.6811 61.7381 40.6811 61.7083C40.6811 61.6784 40.7608 61.6532 40.8581 61.6523C40.9555 61.6513 41.0827 61.6147 41.1408 61.5708C41.199 61.527 41.3031 61.4912 41.3723 61.4912C41.4414 61.4912 41.498 61.4667 41.498 61.4369C41.498 61.407 41.5855 61.3826 41.6925 61.3826C41.7995 61.3826 41.9238 61.346 41.9687 61.3012C42.0136 61.2564 42.1099 61.2198 42.1826 61.2198C42.2554 61.2198 42.3149 61.1954 42.3149 61.1655C42.3149 61.1357 42.3981 61.1113 42.4997 61.1113C42.6137 61.1113 42.6965 61.0801 42.7158 61.0299C42.7331 60.9851 42.8092 60.9484 42.8851 60.9484C42.9609 60.9484 43.0229 60.924 43.0229 60.8942C43.0229 60.8643 43.1087 60.8399 43.2135 60.8399C43.3183 60.8399 43.4041 60.816 43.4041 60.7867C43.4041 60.7574 43.4654 60.7181 43.5403 60.6994C43.6151 60.6807 43.6764 60.6435 43.6764 60.6169C43.6764 60.5903 43.7622 60.5685 43.867 60.5685C43.9718 60.5685 44.0576 60.5446 44.0576 60.5153C44.0576 60.486 44.1189 60.4467 44.1938 60.428C44.2686 60.4093 44.3299 60.3722 44.3299 60.3456C44.3299 60.3189 44.3912 60.2972 44.4661 60.2972C44.5409 60.2972 44.6022 60.2727 44.6022 60.2429C44.6022 60.213 44.653 60.1886 44.715 60.1886C44.7771 60.1886 44.8646 60.152 44.9095 60.1072C44.9545 60.0624 45.0507 60.0258 45.1234 60.0258C45.1962 60.0258 45.2557 60.004 45.2557 59.9774C45.2557 59.9508 45.317 59.9137 45.3919 59.895C45.4668 59.8762 45.528 59.8369 45.528 59.8077C45.528 59.7784 45.5893 59.7544 45.6642 59.7544C45.739 59.7544 45.8003 59.7327 45.8003 59.706C45.8003 59.6794 45.8616 59.6423 45.9365 59.6236C46.0113 59.6049 46.0726 59.5656 46.0726 59.5363C46.0726 59.507 46.1094 59.4831 46.1543 59.4831C46.1992 59.4831 46.236 59.4587 46.236 59.4288C46.236 59.399 46.2973 59.3745 46.3721 59.3745C46.447 59.3745 46.5083 59.3506 46.5083 59.3213C46.5083 59.292 46.5696 59.2527 46.6444 59.234C46.7193 59.2153 46.7806 59.1782 46.7806 59.1516C46.7806 59.1249 46.8154 59.1032 46.8579 59.1032C46.955 59.1032 47.2699 58.9271 47.2704 58.8725C47.2706 58.8501 47.3075 58.8318 47.3524 58.8318C47.3973 58.8318 47.4341 58.8079 47.4341 58.7786C47.4341 58.7493 47.4954 58.71 47.5702 58.6913C47.6451 58.6726 47.7064 58.6354 47.7064 58.6088C47.7064 58.5822 47.7677 58.5604 47.8425 58.5604C47.9273 58.5604 47.9787 58.5297 47.9787 58.479C47.9787 58.4338 48.0271 58.3976 48.0876 58.3976C48.1475 58.3976 48.1965 58.3732 48.1965 58.3433C48.1965 58.3135 48.2333 58.2891 48.2782 58.2891C48.3231 58.2891 48.3599 58.2673 48.3599 58.2407C48.3599 58.2141 48.4212 58.1769 48.4961 58.1582C48.5709 58.1395 48.6322 58.1002 48.6322 58.0709C48.6322 58.0416 48.669 58.0177 48.7139 58.0177C48.7588 58.0177 48.7956 57.9949 48.7956 57.9671C48.7956 57.9392 48.8507 57.8991 48.9181 57.8779C48.9855 57.8567 49.0774 57.7975 49.1223 57.7463C49.1673 57.6952 49.2592 57.636 49.3266 57.6148C49.3939 57.5936 49.4491 57.5535 49.4491 57.5256C49.4491 57.4978 49.4753 57.475 49.5074 57.475C49.5395 57.475 49.5999 57.4444 49.6417 57.4071C49.8219 57.2461 49.8835 57.2036 49.9369 57.2036C49.9681 57.2036 49.9937 57.183 49.9937 57.1579C49.9937 57.1327 50.0795 57.0661 50.1843 57.0099C50.2891 56.9536 50.3749 56.8887 50.3749 56.8657C50.3749 56.8426 50.4117 56.8237 50.4566 56.8237C50.5015 56.8237 50.5383 56.7871 50.5383 56.7423C50.5383 56.6975 50.5645 56.6609 50.5966 56.6609C50.6287 56.6609 50.6891 56.6303 50.7309 56.593C50.9111 56.432 50.9727 56.3895 51.0261 56.3895C51.0573 56.3895 51.0829 56.3689 51.0829 56.3438C51.0829 56.3186 51.1686 56.2521 51.2735 56.1958C51.3783 56.1395 51.4641 56.0746 51.4641 56.0516C51.4641 56.0285 51.5008 56.0096 51.5458 56.0096C51.5907 56.0096 51.6275 55.9834 51.6275 55.9515C51.6275 55.888 51.7616 55.7382 51.8185 55.7382C51.8379 55.7382 51.9487 55.6466 52.0646 55.5347C52.3194 55.2887 52.4304 55.1955 52.4684 55.1955C52.4841 55.1955 52.7696 54.9269 53.1027 54.5985C53.4359 54.2702 53.7199 54.0015 53.7338 54.0015C53.7577 54.0015 53.8183 53.9523 53.9809 53.8006C54.1018 53.6879 54.1871 53.5737 54.1871 53.5245C54.1871 53.4985 54.2483 53.4445 54.3232 53.4045C54.3981 53.3646 54.4594 53.312 54.4594 53.2876C54.4594 53.2632 54.6677 53.0357 54.9223 52.782C55.1769 52.5282 55.3852 52.3063 55.3852 52.2888C55.3852 52.2714 55.4158 52.223 55.4532 52.1814C55.6149 52.0018 55.6575 51.9404 55.6575 51.8871C55.6575 51.8561 55.6837 51.8306 55.7158 51.8306C55.7849 51.8306 55.9298 51.695 55.9298 51.6303C55.9298 51.6054 55.991 51.5392 56.0659 51.4831C56.1408 51.4271 56.2021 51.3519 56.2021 51.316C56.2021 51.2802 56.3111 51.1359 56.4443 50.9953C56.5775 50.8547 56.7018 50.6921 56.7203 50.6338C56.7388 50.5756 56.7768 50.528 56.8048 50.528C56.8327 50.528 56.8556 50.4914 56.8556 50.4466C56.8556 50.4019 56.8923 50.3652 56.9373 50.3652C56.9822 50.3652 57.0189 50.3391 57.0189 50.3071C57.0189 50.2751 57.0496 50.2149 57.087 50.1733C57.2486 49.9937 57.2912 49.9323 57.2912 49.8791C57.2912 49.848 57.3157 49.8225 57.3457 49.8225C57.3756 49.8225 57.4002 49.7963 57.4002 49.7644C57.4002 49.7324 57.4308 49.6722 57.4682 49.6305C57.6299 49.451 57.6725 49.3896 57.6725 49.3363C57.6725 49.3052 57.6953 49.2798 57.7233 49.2798C57.7512 49.2798 57.7915 49.2248 57.8127 49.1577C57.834 49.0905 57.8934 48.9989 57.9448 48.9541C57.9961 48.9094 58.0555 48.8177 58.0768 48.7506C58.098 48.6834 58.1383 48.6285 58.1662 48.6285C58.1942 48.6285 58.217 48.5919 58.217 48.5471C58.217 48.5023 58.2411 48.4657 58.2705 48.4657C58.2998 48.4657 58.3393 48.4046 58.358 48.33C58.3768 48.2554 58.4141 48.1943 58.4408 48.1943C58.4675 48.1943 58.4893 48.1565 58.4893 48.1103C58.4893 48.0641 58.5506 47.9697 58.6255 47.9006C58.7004 47.8314 58.7616 47.7227 58.7616 47.6589C58.7616 47.5952 58.7835 47.543 58.8102 47.543C58.8369 47.543 58.8742 47.482 58.8929 47.4074C58.9117 47.3327 58.9512 47.2717 58.9805 47.2717C59.0099 47.2717 59.0339 47.235 59.0339 47.1903C59.0339 47.1455 59.0584 47.1089 59.0884 47.1089C59.1184 47.1089 59.1429 47.0626 59.1429 47.0061C59.1429 46.9496 59.1796 46.8893 59.2245 46.8721C59.2695 46.855 59.3062 46.7913 59.3062 46.7306C59.3062 46.67 59.3281 46.6204 59.3548 46.6204C59.3815 46.6204 59.4187 46.5593 59.4375 46.4847C59.4563 46.4101 59.4958 46.349 59.5251 46.349C59.5545 46.349 59.5785 46.288 59.5785 46.2134C59.5785 46.1387 59.6004 46.0777 59.6271 46.0777C59.6538 46.0777 59.691 46.0166 59.7098 45.942C59.7286 45.8674 59.7681 45.8063 59.7974 45.8063C59.8268 45.8063 59.8508 45.7697 59.8508 45.7249C59.8508 45.6801 59.8753 45.6435 59.9053 45.6435C59.9352 45.6435 59.9597 45.5824 59.9597 45.5078C59.9597 45.4332 59.9838 45.3721 60.0132 45.3721C60.0425 45.3721 60.082 45.3111 60.1007 45.2364C60.1195 45.1618 60.1568 45.1008 60.1835 45.1008C60.2102 45.1008 60.232 45.0153 60.232 44.9108C60.232 44.7782 60.2567 44.7209 60.3137 44.7209C60.3645 44.7209 60.3954 44.6696 60.3954 44.5852C60.3954 44.5105 60.4199 44.4495 60.4499 44.4495C60.4798 44.4495 60.5043 44.3884 60.5043 44.3138C60.5043 44.2392 60.5284 44.1781 60.5578 44.1781C60.5871 44.1781 60.6265 44.1171 60.6453 44.0424C60.6641 43.9678 60.7014 43.9068 60.7281 43.9068C60.7548 43.9068 60.7766 43.8213 60.7766 43.7168C60.7766 43.6123 60.7992 43.5268 60.8268 43.5268C60.8544 43.5268 60.8931 43.4536 60.9128 43.364C60.9325 43.2745 60.9712 43.2012 60.9988 43.2012C61.0264 43.2012 61.0489 43.1279 61.0489 43.0384C61.0489 42.9488 61.0715 42.8756 61.0991 42.8756C61.1266 42.8756 61.1654 42.8023 61.1851 42.7128C61.2048 42.6232 61.2435 42.5499 61.2711 42.5499C61.2987 42.5499 61.3212 42.4645 61.3212 42.36C61.3212 42.2555 61.3457 42.17 61.3757 42.17C61.4056 42.17 61.4301 42.1136 61.4301 42.0447C61.4301 41.9758 61.4661 41.872 61.5101 41.814C61.5541 41.7561 61.5909 41.6294 61.5918 41.5323C61.5928 41.4353 61.618 41.3559 61.648 41.3559C61.6779 41.3559 61.7024 41.2966 61.7024 41.2241C61.7024 41.1516 61.7392 41.0557 61.7841 41.0109C61.8291 40.9661 61.8658 40.8423 61.8658 40.7356C61.8658 40.6291 61.8903 40.5418 61.9203 40.5418C61.9502 40.5418 61.9747 40.461 61.9747 40.3623C61.9747 40.2635 62.0107 40.1353 62.0547 40.0773C62.0987 40.0194 62.1355 39.8926 62.1364 39.7956C62.1374 39.6985 62.1626 39.6192 62.1926 39.6192C62.2225 39.6192 62.247 39.5076 62.247 39.3711C62.247 39.2229 62.2799 39.0902 62.3287 39.0416C62.3793 38.9913 62.4104 38.8581 62.4104 38.6927C62.4104 38.5456 62.4349 38.4252 62.4649 38.4252C62.4948 38.4252 62.5202 38.3336 62.5212 38.2217C62.5223 38.1098 62.5582 37.9571 62.601 37.8825C62.6438 37.8078 62.6797 37.6186 62.6808 37.4619C62.6818 37.3051 62.7072 37.1769 62.7372 37.1769C62.7682 37.1769 62.7916 37.0156 62.7916 36.8015C62.7916 36.5839 62.816 36.418 62.8497 36.4068C62.8825 36.396 62.9216 36.1575 62.9394 35.8596C62.9568 35.5693 62.9904 35.3316 63.014 35.3316C63.0376 35.3316 63.0686 35.0813 63.0829 34.7753C63.0972 34.4694 63.134 34.0359 63.1647 33.812C63.2377 33.2802 63.2381 29.7706 63.1653 29.2802C63.1342 29.0713 63.097 28.6866 63.0825 28.4254C63.068 28.1643 63.0361 27.9505 63.0115 27.9505C62.9869 27.9505 62.9514 27.8895 62.9326 27.8148C62.9138 27.7402 62.8744 27.6792 62.8451 27.6792C62.8156 27.6792 62.7916 27.6181 62.7916 27.5435C62.7916 27.4689 62.7671 27.4078 62.7372 27.4078C62.7072 27.4078 62.6827 27.3712 62.6827 27.3264C62.6827 27.2816 62.6566 27.245 62.6246 27.245C62.5926 27.245 62.4856 27.1595 62.3867 27.055C62.2878 26.9506 62.1696 26.8651 62.1239 26.8651C62.0782 26.8651 62.0267 26.8284 62.0095 26.7837C61.9923 26.7389 61.9284 26.7023 61.8675 26.7023C61.8067 26.7023 61.7569 26.6803 61.7569 26.6535C61.7569 26.6266 61.6405 26.5893 61.4982 26.5706C60.8199 26.4813 60.7091 26.4765 60.6515 26.5338C60.6185 26.5668 60.4861 26.5937 60.3573 26.5937C60.2285 26.5937 60.1231 26.6155 60.1231 26.6421C60.1231 26.6687 60.0619 26.7058 59.987 26.7246C59.9121 26.7433 59.8508 26.7826 59.8508 26.8118C59.8508 26.8411 59.8242 26.8651 59.7916 26.8651C59.7195 26.8651 59.1429 27.4461 59.1429 27.5188C59.1429 27.5473 59.1184 27.5706 59.0884 27.5706C59.0584 27.5706 59.0332 27.6134 59.0322 27.6656C59.0313 27.7178 58.9945 27.808 58.9505 27.8659C58.9066 27.9239 58.8706 28.0521 58.8706 28.1509C58.8706 28.2496 58.8461 28.3304 58.8161 28.3304C58.738 28.3304 58.7452 29.13 58.8235 29.156C58.9118 29.1854 58.9118 33.8254 58.8235 33.8548C58.7823 33.8685 58.7616 34.0737 58.7616 34.4678C58.7616 34.7936 58.7407 35.0603 58.715 35.0603C58.6894 35.0603 58.6516 35.2618 58.6312 35.508C58.6106 35.7543 58.5704 35.9639 58.5416 35.9739C58.5129 35.9838 58.4893 36.1731 58.4893 36.3945C58.4893 36.6159 58.4671 36.797 58.44 36.797C58.4128 36.797 58.3738 36.9191 58.3532 37.0684C58.3326 37.2176 58.2936 37.3397 58.2664 37.3397C58.2393 37.3397 58.217 37.4863 58.217 37.6654C58.217 37.8445 58.1948 37.991 58.1677 37.991C58.1405 37.991 58.1015 38.1131 58.0809 38.2624C58.0603 38.4116 58.0213 38.5337 57.9941 38.5337C57.967 38.5337 57.9448 38.6314 57.9448 38.7508C57.9448 38.8702 57.9202 38.9679 57.8903 38.9679C57.8603 38.9679 57.8358 39.0487 57.8358 39.1475C57.8358 39.2463 57.7998 39.3745 57.7559 39.4324C57.7119 39.4904 57.6751 39.6171 57.6742 39.7142C57.6732 39.8112 57.6479 39.8906 57.618 39.8906C57.588 39.8906 57.5635 39.9499 57.5635 40.0224C57.5635 40.0948 57.5268 40.1908 57.4818 40.2356C57.4369 40.2804 57.4002 40.4042 57.4002 40.5109C57.4002 40.6174 57.3756 40.7047 57.3457 40.7047C57.3157 40.7047 57.2912 40.764 57.2912 40.8365C57.2912 40.9089 57.2545 41.0049 57.2095 41.0497C57.1646 41.0944 57.1279 41.1817 57.1279 41.2435C57.1279 41.3054 57.1034 41.3559 57.0734 41.3559C57.0434 41.3559 57.0189 41.4123 57.0189 41.4813C57.0189 41.5502 56.9829 41.6539 56.939 41.7119C56.895 41.7698 56.8582 41.8722 56.8573 41.9394C56.8563 42.0065 56.8311 42.0615 56.8011 42.0615C56.7712 42.0615 56.7466 42.1121 56.7466 42.1739C56.7466 42.2358 56.7099 42.323 56.665 42.3677C56.62 42.4125 56.5833 42.4963 56.5833 42.5538C56.5833 42.6114 56.5588 42.6585 56.5288 42.6585C56.4989 42.6585 56.4743 42.7203 56.4743 42.7958C56.4743 42.8714 56.4376 42.9473 56.3927 42.9645C56.3477 42.9817 56.311 43.0542 56.311 43.1256C56.311 43.197 56.2865 43.2555 56.2565 43.2555C56.2266 43.2555 56.2021 43.3165 56.2021 43.3912C56.2021 43.4658 56.178 43.5268 56.1486 43.5268C56.1193 43.5268 56.0798 43.5879 56.0611 43.6625C56.0423 43.7372 56.005 43.7982 55.9783 43.7982C55.9516 43.7982 55.9298 43.8488 55.9298 43.9106C55.9298 43.9725 55.8991 44.0571 55.8617 44.0987C55.6878 44.2919 55.6575 44.3438 55.6575 44.4472C55.6575 44.5082 55.6329 44.558 55.603 44.558C55.573 44.558 55.5485 44.5947 55.5485 44.6394C55.5485 44.6842 55.5118 44.7209 55.4669 44.7209C55.416 44.7209 55.3852 44.7721 55.3852 44.8565C55.3852 44.9312 55.3633 44.9922 55.3366 44.9922C55.3099 44.9922 55.2726 45.0533 55.2539 45.1279C55.2351 45.2025 55.1956 45.2636 55.1663 45.2636C55.1369 45.2636 55.1129 45.3157 55.1129 45.3795C55.1129 45.4432 55.0516 45.5519 54.9767 45.6211C54.9018 45.6903 54.8406 45.7847 54.8406 45.8308C54.8406 45.8771 54.8161 45.9149 54.7861 45.9149C54.7562 45.9149 54.7316 45.9515 54.7316 45.9963C54.7316 46.041 54.7088 46.0777 54.6808 46.0777C54.6529 46.0777 54.6129 46.1315 54.592 46.1972C54.571 46.263 54.5265 46.3477 54.493 46.3853C54.3352 46.5629 54.296 46.62 54.296 46.6724C54.296 46.7035 54.2715 46.729 54.2415 46.729C54.2116 46.729 54.1871 46.7645 54.1871 46.8079C54.1871 46.8513 54.1258 46.9479 54.0509 47.0225C53.976 47.0971 53.9148 47.1838 53.9148 47.215C53.9148 47.2462 53.8907 47.2717 53.8613 47.2717C53.832 47.2717 53.7926 47.3327 53.7738 47.4074C53.755 47.482 53.7177 47.543 53.691 47.543C53.6643 47.543 53.6425 47.5756 53.6425 47.6153C53.6425 47.655 53.5812 47.7202 53.5063 47.7601C53.4209 47.8057 53.3702 47.8799 53.3702 47.9593C53.3702 48.0288 53.3439 48.0858 53.3118 48.0858C53.2483 48.0858 53.0979 48.2194 53.0979 48.2757C53.0979 48.2949 53.0673 48.3447 53.0298 48.3863C52.8792 48.5536 52.8256 48.6256 52.8256 48.6605C52.8256 48.6806 52.7398 48.7777 52.635 48.8763C52.5301 48.9748 52.4444 49.0815 52.4444 49.1133C52.4444 49.1452 52.4076 49.1712 52.3627 49.1712C52.3177 49.1712 52.281 49.2083 52.281 49.2536C52.281 49.2989 52.1952 49.419 52.0904 49.5204C51.9855 49.6219 51.8998 49.7314 51.8998 49.7637C51.8998 49.796 51.863 49.8225 51.8181 49.8225C51.7731 49.8225 51.7364 49.8487 51.7364 49.8806C51.7364 49.9558 51.5978 50.0939 51.5224 50.0939C51.4903 50.0939 51.4641 50.1195 51.4641 50.1508C51.4641 50.2251 50.3977 51.2879 50.3231 51.2879C50.2917 51.2879 50.266 51.314 50.266 51.346C50.266 51.4212 50.1274 51.5592 50.052 51.5592C50.0199 51.5592 49.9937 51.5854 49.9937 51.6174C49.9937 51.6825 49.859 51.8306 49.7996 51.8306C49.7784 51.8306 49.7043 51.8917 49.6349 51.9663C49.5655 52.0409 49.4708 52.102 49.4245 52.102C49.3781 52.102 49.3402 52.1386 49.3402 52.1834C49.3402 52.2281 49.3136 52.2648 49.2812 52.2648C49.2487 52.2648 49.1389 52.3503 49.0371 52.4547C48.9353 52.5592 48.8375 52.6447 48.8199 52.6447C48.8022 52.6447 48.7536 52.6752 48.7119 52.7125C48.547 52.8599 48.472 52.9161 48.44 52.9161C48.3847 52.9161 48.251 53.0669 48.251 53.1293C48.251 53.1613 48.2247 53.1874 48.1927 53.1874C48.1605 53.1874 48.1001 53.218 48.0584 53.2553C47.8782 53.4163 47.8166 53.4588 47.7631 53.4588C47.7319 53.4588 47.7064 53.4832 47.7064 53.5131C47.7064 53.5429 47.6707 53.5673 47.6272 53.5673C47.5836 53.5673 47.4867 53.6284 47.4118 53.703C47.3369 53.7776 47.25 53.8387 47.2187 53.8387C47.1874 53.8387 47.1618 53.8615 47.1618 53.8893C47.1618 53.9172 47.1084 53.9568 47.0432 53.9774C46.9781 53.998 46.8619 54.0729 46.7851 54.1439C46.7084 54.2149 46.6146 54.2729 46.5769 54.2729C46.5392 54.2729 46.5083 54.2946 46.5083 54.3213C46.5083 54.3479 46.447 54.385 46.3721 54.4037C46.2973 54.4225 46.236 54.4618 46.236 54.491C46.236 54.5203 46.1992 54.5442 46.1543 54.5442C46.1094 54.5442 46.0726 54.5687 46.0726 54.5985C46.0726 54.6284 46.0347 54.6528 45.9883 54.6528C45.942 54.6528 45.8473 54.7138 45.7779 54.7885C45.7084 54.8631 45.5994 54.9242 45.5354 54.9242C45.4714 54.9242 45.4191 54.9481 45.4191 54.9774C45.4191 55.0066 45.3578 55.0459 45.283 55.0647C45.2081 55.0834 45.1468 55.1205 45.1468 55.1471C45.1468 55.1738 45.0855 55.1955 45.0107 55.1955C44.9259 55.1955 44.8745 55.2263 44.8745 55.2769C44.8745 55.3217 44.8377 55.3583 44.7928 55.3583C44.7479 55.3583 44.7111 55.3828 44.7111 55.4126C44.7111 55.4425 44.6641 55.4669 44.6067 55.4669C44.5493 55.4669 44.4942 55.4852 44.4842 55.5076C44.4579 55.5666 44.1169 55.7382 44.026 55.7382C43.9835 55.7382 43.9487 55.76 43.9487 55.7867C43.9487 55.8133 43.8874 55.8504 43.8125 55.8691C43.7377 55.8878 43.6764 55.9271 43.6764 55.9564C43.6764 55.9857 43.6151 56.0096 43.5403 56.0096C43.4654 56.0096 43.4041 56.0314 43.4041 56.058C43.4041 56.0846 43.3428 56.1217 43.268 56.1405C43.1931 56.1592 43.1318 56.1985 43.1318 56.2277C43.1318 56.257 43.0705 56.281 42.9957 56.281C42.9208 56.281 42.8595 56.3054 42.8595 56.3352C42.8595 56.3651 42.8 56.3895 42.7272 56.3895C42.6545 56.3895 42.5582 56.4262 42.5133 56.4709C42.4684 56.5157 42.3809 56.5523 42.3188 56.5523C42.2568 56.5523 42.206 56.5768 42.206 56.6066C42.206 56.6365 42.1508 56.6616 42.0835 56.6626C42.0161 56.6635 41.9133 56.7002 41.8552 56.744C41.7971 56.7878 41.6929 56.8237 41.6238 56.8237C41.5546 56.8237 41.498 56.8481 41.498 56.878C41.498 56.9078 41.4473 56.9323 41.3852 56.9323C41.3232 56.9323 41.2356 56.9689 41.1907 57.0137C41.1458 57.0584 41.0495 57.0951 40.9768 57.0951C40.904 57.0951 40.8445 57.1195 40.8445 57.1493C40.8445 57.1792 40.757 57.2036 40.65 57.2036C40.543 57.2036 40.4188 57.2402 40.3738 57.285C40.3289 57.3298 40.2326 57.3664 40.1599 57.3664C40.0872 57.3664 40.0276 57.3909 40.0276 57.4207C40.0276 57.4506 39.948 57.4757 39.8506 57.4767C39.7533 57.4776 39.626 57.5143 39.5679 57.5581C39.5098 57.6019 39.3811 57.6378 39.282 57.6378C39.1829 57.6378 39.1018 57.6622 39.1018 57.6921C39.1018 57.7219 39.0038 57.7463 38.884 57.7463C38.7642 57.7463 38.6661 57.7685 38.6661 57.7955C38.6661 57.8226 38.5436 57.8615 38.3938 57.882C38.2441 57.9025 38.1215 57.9415 38.1215 57.9685C38.1215 57.9956 37.999 58.0177 37.8493 58.0177C37.6995 58.0177 37.577 58.039 37.577 58.065C37.577 58.091 37.4299 58.1288 37.2502 58.1491C37.0705 58.1693 36.9234 58.2091 36.9234 58.2375C36.9234 58.2658 36.7519 58.2891 36.5422 58.2891C36.3326 58.2891 36.161 58.3099 36.161 58.3353C36.161 58.3608 35.9466 58.398 35.6845 58.418C35.4224 58.438 35.1998 58.4782 35.1898 58.5074C35.1795 58.5375 34.9172 58.5604 34.5817 58.5604C34.1896 58.5604 33.9848 58.5811 33.9711 58.6221C33.9561 58.6669 33.3101 58.6838 31.6137 58.6838C29.9172 58.6838 29.2712 58.6669 29.2562 58.6221C29.2425 58.5811 29.0377 58.5604 28.6456 58.5604C28.2959 58.5604 28.0481 58.5381 28.0373 58.5055C28.0272 58.4753 27.8168 58.435 27.5698 58.416C27.3229 58.3971 27.1208 58.3607 27.1208 58.3353C27.1208 58.3099 26.9615 58.2891 26.7668 58.2891C26.5721 58.2891 26.4128 58.2678 26.4128 58.2418C26.4128 58.2158 26.2657 58.178 26.086 58.1577C25.9063 58.1374 25.7593 58.0976 25.7593 58.0693C25.7593 58.0409 25.6245 58.0177 25.4597 58.0177C25.295 58.0177 25.1602 57.9964 25.1602 57.9704C25.1602 57.9444 25.0377 57.9069 24.8879 57.8871C24.7382 57.8674 24.6156 57.8276 24.6156 57.7988C24.6156 57.7699 24.5053 57.7463 24.3706 57.7463C24.2358 57.7463 24.1255 57.7275 24.1255 57.7044C24.1255 57.6655 23.8116 57.5663 23.4584 57.4935C23.376 57.4766 23.3086 57.441 23.3086 57.4146C23.3086 57.3881 23.2258 57.3664 23.1246 57.3664C23.0235 57.3664 22.9102 57.3298 22.8729 57.285C22.8356 57.2402 22.7346 57.2036 22.6484 57.2036C22.5622 57.2036 22.4917 57.1792 22.4917 57.1493C22.4917 57.1195 22.4351 57.0951 22.366 57.0951C22.2968 57.0951 22.1927 57.0592 22.1345 57.0154C22.0764 56.9715 21.9614 56.9349 21.879 56.934C21.7967 56.933 21.7293 56.9078 21.7293 56.878C21.7293 56.8481 21.6742 56.8229 21.6067 56.822C21.5393 56.821 21.4366 56.7844 21.3785 56.7406C21.3203 56.6968 21.2162 56.6609 21.1471 56.6609C21.0779 56.6609 21.0213 56.6365 21.0213 56.6066C21.0213 56.5768 20.96 56.5523 20.8852 56.5523C20.8004 56.5523 20.749 56.5216 20.749 56.4709C20.749 56.4203 20.6976 56.3895 20.6129 56.3895C20.538 56.3895 20.4767 56.3651 20.4767 56.3352C20.4767 56.3054 20.426 56.281 20.3639 56.281C20.3018 56.281 20.2143 56.2443 20.1694 56.1996C20.1245 56.1548 20.0282 56.1182 19.9555 56.1182C19.8827 56.1182 19.8232 56.0964 19.8232 56.0697C19.8232 56.0432 19.7619 56.006 19.6871 55.9873C19.6122 55.9686 19.5509 55.9293 19.5509 55.9C19.5509 55.8707 19.4896 55.8468 19.4148 55.8468C19.3399 55.8468 19.2786 55.8273 19.2786 55.8034C19.2786 55.7796 19.1913 55.7286 19.0845 55.6901C18.9777 55.6516 18.877 55.5856 18.8608 55.5435C18.8446 55.5013 18.7726 55.4669 18.701 55.4669C18.6293 55.4669 18.5706 55.443 18.5706 55.4136C18.5706 55.3844 18.5094 55.3451 18.4345 55.3264C18.3596 55.3076 18.2983 55.2705 18.2983 55.2439C18.2983 55.2173 18.2493 55.1955 18.1894 55.1955C18.1295 55.1955 18.0805 55.1738 18.0805 55.1471C18.0805 55.1205 18.0192 55.0834 17.9444 55.0647C17.8695 55.0459 17.8082 55.0066 17.8082 54.9774C17.8082 54.9481 17.7714 54.9242 17.7265 54.9242C17.6816 54.9242 17.6448 54.8997 17.6448 54.8699C17.6448 54.84 17.5951 54.8156 17.5342 54.8156C17.4733 54.8156 17.4095 54.779 17.3922 54.7342C17.375 54.6894 17.3145 54.6528 17.2578 54.6528C17.2011 54.6528 17.1547 54.6284 17.1547 54.5985C17.1547 54.5687 17.1206 54.5442 17.0788 54.5442C17.0371 54.5442 16.9889 54.5076 16.9716 54.4628C16.9544 54.4181 16.8905 54.3814 16.8296 54.3814C16.7688 54.3814 16.719 54.357 16.719 54.3272C16.719 54.2973 16.6823 54.2729 16.6373 54.2729C16.5924 54.2729 16.5556 54.2362 16.5556 54.1915C16.5556 54.1463 16.5072 54.1101 16.4467 54.1101C16.3868 54.1101 16.3378 54.0856 16.3378 54.0558C16.3378 54.0259 16.301 54.0015 16.2561 54.0015C16.2112 54.0015 16.1744 53.9649 16.1744 53.9201C16.1744 53.874 16.1256 53.8387 16.0619 53.8387C15.9999 53.8387 15.8684 53.7532 15.7695 53.6487C15.6706 53.5443 15.5375 53.4588 15.4736 53.4588C15.4098 53.4588 15.3575 53.4326 15.3575 53.4007C15.3575 53.3255 15.219 53.1874 15.1436 53.1874C15.1115 53.1874 15.0852 53.1646 15.0852 53.1368C15.0852 53.1089 15.0309 53.069 14.9646 53.048C14.8983 53.027 14.7639 52.9277 14.6661 52.8273C14.5682 52.7269 14.4737 52.6447 14.456 52.6447C14.4384 52.6447 14.3898 52.6142 14.348 52.5769C14.1831 52.4294 14.1081 52.3733 14.0762 52.3733C14.0209 52.3733 13.8871 52.2225 13.8871 52.1601C13.8871 52.1281 13.8626 52.102 13.8327 52.102C13.8027 52.102 13.6819 52.0104 13.5643 51.8984C13.298 51.6451 13.1932 51.5592 13.1504 51.5592C13.0951 51.5592 12.9613 51.4084 12.9613 51.346C12.9613 51.314 12.9376 51.2879 12.9086 51.2879C12.8546 51.2879 11.5998 50.0597 11.5998 50.0069C11.5998 49.955 11.4461 49.8225 11.3859 49.8225C11.3538 49.8225 11.3275 49.7917 11.3275 49.7541C11.3275 49.7165 11.2663 49.6199 11.1914 49.5394C11.1165 49.4589 11.0552 49.3676 11.0552 49.3364C11.0552 49.3053 11.029 49.2798 10.9969 49.2798C10.9334 49.2798 10.783 49.1462 10.783 49.0898C10.783 49.0335 10.6325 48.8999 10.569 48.8999C10.5369 48.8999 10.5107 48.8388 10.5107 48.7642C10.5107 48.6797 10.4798 48.6285 10.429 48.6285C10.384 48.6285 10.3473 48.5972 10.3473 48.5591C10.3473 48.5209 10.2983 48.4544 10.2384 48.4114C10.1785 48.3684 10.1294 48.3019 10.1294 48.2637C10.1294 48.2256 10.0927 48.1943 10.0478 48.1943C10.0024 48.1943 9.96606 48.1461 9.96606 48.0858C9.96606 48.0261 9.94156 47.9772 9.9116 47.9772C9.88165 47.9772 9.85714 47.9406 9.85714 47.8958C9.85714 47.851 9.82038 47.8144 9.77545 47.8144C9.73053 47.8144 9.69376 47.7882 9.69376 47.7563C9.69376 47.7243 9.6631 47.6641 9.62569 47.6224C9.46406 47.4429 9.42147 47.3815 9.42147 47.3282C9.42147 47.2971 9.39696 47.2717 9.36701 47.2717C9.33706 47.2717 9.31255 47.2409 9.31255 47.2033C9.31255 47.1657 9.25128 47.069 9.1764 46.9885C9.10152 46.9081 9.04025 46.8168 9.04025 46.7856C9.04025 46.7545 9.01624 46.729 8.98683 46.729C8.95747 46.729 8.91805 46.6679 8.89926 46.5933C8.88047 46.5186 8.84322 46.4576 8.81653 46.4576C8.78979 46.4576 8.76796 46.4314 8.76796 46.3995C8.76796 46.3674 8.73735 46.3073 8.69988 46.2656C8.54603 46.0947 8.5072 46.0367 8.47142 45.9242C8.45078 45.8594 8.41103 45.8063 8.38309 45.8063C8.35515 45.8063 8.33228 45.7697 8.33228 45.7249C8.33228 45.6801 8.30777 45.6435 8.27782 45.6435C8.24787 45.6435 8.22336 45.5946 8.22336 45.5349C8.22336 45.4752 8.20152 45.4264 8.17478 45.4264C8.1481 45.4264 8.11085 45.3653 8.09206 45.2907C8.07327 45.2161 8.03384 45.155 8.00449 45.155C7.97508 45.155 7.95107 45.1184 7.95107 45.0736C7.95107 45.0289 7.92923 44.9922 7.90249 44.9922C7.8758 44.9922 7.83855 44.9312 7.81976 44.8565C7.80098 44.7819 7.76155 44.7209 7.73219 44.7209C7.70279 44.7209 7.67877 44.6598 7.67877 44.5852C7.67877 44.5105 7.65693 44.4495 7.63019 44.4495C7.60351 44.4495 7.56626 44.3884 7.54747 44.3138C7.52868 44.2392 7.48925 44.1781 7.4599 44.1781C7.43049 44.1781 7.40647 44.1171 7.40647 44.0424C7.40647 43.9678 7.38806 43.9066 7.36563 43.9064C7.3122 43.9059 7.13418 43.5932 7.13418 43.4998C7.13418 43.46 7.11577 43.4192 7.09333 43.4092C7.02564 43.3793 6.86188 43.037 6.86188 42.9255C6.86188 42.8682 6.83737 42.8213 6.80742 42.8213C6.77747 42.8213 6.75296 42.7717 6.75296 42.7111C6.75296 42.6504 6.7162 42.5867 6.67127 42.5696C6.62634 42.5524 6.58958 42.4799 6.58958 42.4084C6.58958 42.337 6.56507 42.2786 6.53512 42.2786C6.50517 42.2786 6.48066 42.2192 6.48066 42.1467C6.48066 42.0743 6.4439 41.9783 6.39897 41.9336C6.35404 41.8888 6.31729 41.8016 6.31729 41.7397C6.31729 41.6779 6.29278 41.6273 6.26283 41.6273C6.23287 41.6273 6.20837 41.5444 6.20837 41.4431C6.20837 41.3295 6.17711 41.2471 6.12668 41.2277C6.08175 41.2106 6.04499 41.1469 6.04499 41.0863C6.04499 41.0256 6.02048 40.976 5.99053 40.976C5.96058 40.976 5.93607 40.8888 5.93607 40.7822C5.93607 40.6756 5.89931 40.5517 5.85438 40.5069C5.80945 40.4622 5.77269 40.3662 5.77269 40.2938C5.77269 40.2213 5.74818 40.1619 5.71823 40.1619C5.68828 40.1619 5.66377 40.0779 5.66377 39.9752C5.66377 39.8724 5.64204 39.775 5.61547 39.7587C5.58895 39.7423 5.55104 39.6432 5.53133 39.5384C5.51161 39.4336 5.47208 39.3478 5.44348 39.3478C5.41489 39.3478 5.39148 39.2257 5.39148 39.0765C5.39148 38.9272 5.36915 38.8051 5.34181 38.8051C5.31447 38.8051 5.27559 38.7074 5.25533 38.588C5.23507 38.4686 5.19618 38.3709 5.16885 38.3709C5.14151 38.3709 5.11918 38.2366 5.11918 38.0724C5.11918 37.9082 5.09642 37.7739 5.06864 37.7739C5.04087 37.7739 5.00127 37.6396 4.98069 37.4754C4.9601 37.3112 4.92155 37.1769 4.89508 37.1769C4.86856 37.1769 4.84688 37.0304 4.84688 36.8513C4.84688 36.6722 4.82575 36.5256 4.79988 36.5256C4.77402 36.5256 4.73992 36.3646 4.72408 36.1679C4.70823 35.9711 4.66809 35.783 4.63493 35.75C4.60045 35.7156 4.57459 35.4965 4.57459 35.2394C4.57459 34.9916 4.55384 34.7889 4.52851 34.7889C4.50319 34.7889 4.46621 34.4695 4.44639 34.079C4.42657 33.6885 4.38605 33.3238 4.35631 33.2685C4.28399 33.1338 4.28399 29.8771 4.35631 29.7424C4.38605 29.687 4.42657 29.3223 4.44639 28.9318C4.46621 28.5413 4.50319 28.2219 4.52851 28.2219C4.55384 28.2219 4.57459 28.0192 4.57459 27.7714C4.57459 27.5143 4.60045 27.2952 4.63493 27.2608C4.66809 27.2278 4.70823 27.0397 4.72408 26.8429C4.73992 26.6462 4.77184 26.4852 4.79504 26.4852C4.81824 26.4852 4.84944 26.3448 4.86436 26.1731C4.90042 25.7587 5.01718 25.2369 5.07381 25.2369C5.09876 25.2369 5.11918 25.1148 5.11918 24.9655C5.11918 24.8163 5.14091 24.6942 5.16743 24.6942C5.19401 24.6942 5.23229 24.5843 5.2525 24.4499C5.2727 24.3156 5.31224 24.2057 5.34034 24.2057C5.36849 24.2057 5.39148 24.108 5.39148 23.9886C5.39148 23.8692 5.4137 23.7715 5.44082 23.7715C5.46799 23.7715 5.50704 23.6494 5.52762 23.5002C5.54821 23.3509 5.58726 23.2288 5.61443 23.2288C5.64155 23.2288 5.66377 23.1433 5.66377 23.0388C5.66377 22.9344 5.68828 22.8489 5.71823 22.8489C5.74818 22.8489 5.77269 22.7925 5.77269 22.7236C5.77269 22.6546 5.80869 22.5509 5.85264 22.4929C5.89664 22.435 5.9334 22.3326 5.93433 22.2654C5.93531 22.1983 5.96058 22.1433 5.99053 22.1433C6.02048 22.1433 6.04499 22.084 6.04499 22.0115C6.04499 21.9391 6.08175 21.8431 6.12668 21.7983C6.17161 21.7535 6.20837 21.6541 6.20837 21.5773C6.20837 21.5006 6.23287 21.4378 6.26283 21.4378C6.29278 21.4378 6.31729 21.3638 6.31729 21.2733C6.31729 21.1771 6.35121 21.0958 6.39897 21.0775C6.4439 21.0603 6.48066 20.9878 6.48066 20.9164C6.48066 20.845 6.50517 20.7865 6.53512 20.7865C6.56507 20.7865 6.58958 20.7284 6.58958 20.6575C6.58958 20.5865 6.62634 20.4981 6.67127 20.4609C6.7162 20.4237 6.75296 20.3352 6.75296 20.2643C6.75296 20.1933 6.77747 20.1352 6.80742 20.1352C6.83737 20.1352 6.86188 20.1006 6.86188 20.0582C6.86188 19.9676 7.03413 19.6278 7.09333 19.6016C7.11582 19.5916 7.13418 19.5245 7.13418 19.4523C7.13418 19.3801 7.15819 19.3211 7.1876 19.3211C7.21695 19.3211 7.25638 19.2601 7.27517 19.1855C7.29396 19.1108 7.33121 19.0498 7.35789 19.0498C7.38463 19.0498 7.40647 19.0002 7.40647 18.9396C7.40647 18.8789 7.44323 18.8152 7.48816 18.7981C7.53309 18.7809 7.56985 18.7206 7.56985 18.6641C7.56985 18.6076 7.59436 18.5613 7.62431 18.5613C7.65426 18.5613 7.67877 18.5113 7.67877 18.4502C7.67877 18.3891 7.74004 18.2825 7.81492 18.2133C7.8898 18.1441 7.95107 18.0354 7.95107 17.9717C7.95107 17.9079 7.97508 17.8558 8.00449 17.8558C8.03384 17.8558 8.07327 17.7947 8.09206 17.7201C8.11085 17.6455 8.1481 17.5844 8.17478 17.5844C8.20152 17.5844 8.22336 17.5356 8.22336 17.4759C8.22336 17.4162 8.24787 17.3673 8.27782 17.3673C8.30777 17.3673 8.33228 17.3307 8.33228 17.2859C8.33228 17.2411 8.36904 17.2045 8.41397 17.2045C8.46108 17.2045 8.49566 17.1554 8.49566 17.0886C8.49566 17.0249 8.55693 16.9162 8.63181 16.847C8.70669 16.7778 8.76796 16.6834 8.76796 16.6372C8.76796 16.591 8.79246 16.5532 8.82242 16.5532C8.85237 16.5532 8.87687 16.5166 8.87687 16.4718C8.87687 16.427 8.89975 16.3904 8.92768 16.3904C8.95562 16.3904 8.99576 16.3355 9.01694 16.2683C9.03807 16.2011 9.11323 16.0924 9.18397 16.0267C9.25471 15.9609 9.31255 15.8693 9.31255 15.8231C9.31255 15.7769 9.33706 15.7391 9.36701 15.7391C9.39696 15.7391 9.42147 15.7025 9.42147 15.6577C9.42147 15.613 9.45823 15.5763 9.50316 15.5763C9.54809 15.5763 9.58485 15.5397 9.58485 15.4949C9.58485 15.4501 9.60935 15.4135 9.63931 15.4135C9.66926 15.4135 9.69376 15.3757 9.69376 15.3295C9.69376 15.2833 9.75503 15.1889 9.82991 15.1198C9.90479 15.0506 9.96606 14.9775 9.96606 14.9572C9.96606 14.9111 10.0474 14.8116 10.3064 14.5412C10.4188 14.424 10.5107 14.3141 10.5107 14.297C10.5107 14.28 10.5413 14.232 10.5787 14.1904C10.7404 14.0108 10.783 13.9494 10.783 13.8961C10.783 13.865 10.8197 13.8396 10.8646 13.8396C10.9096 13.8396 10.9463 13.8185 10.9463 13.7927C10.9463 13.7669 11.0811 13.6037 11.2459 13.4301C11.4106 13.2565 11.5454 13.0944 11.5454 13.0699C11.5454 13.0455 11.5821 13.0255 11.6271 13.0255C11.672 13.0255 11.7088 13 11.7088 12.9689C11.7088 12.8967 11.7595 12.8376 12.2442 12.3455C12.4637 12.1225 12.6781 11.94 12.7207 11.94C12.7631 11.94 12.7979 11.9139 12.7979 11.8819C12.7979 11.8067 12.9365 11.6687 13.0119 11.6687C13.044 11.6687 13.0702 11.6425 13.0702 11.6105C13.0702 11.5497 13.2035 11.3973 13.2566 11.3973C13.2735 11.3973 13.4367 11.2508 13.6192 11.0717C13.8017 10.8926 13.9676 10.746 13.9877 10.746C14.0079 10.746 14.0905 10.685 14.1712 10.6103C14.252 10.5357 14.3331 10.4747 14.3516 10.4747C14.4069 10.4747 14.5406 10.3238 14.5406 10.2614C14.5406 10.2295 14.5669 10.2033 14.599 10.2033C14.6311 10.2033 14.6915 10.1728 14.7333 10.1355C14.9013 9.98523 14.9734 9.93194 15.0086 9.93194C15.0289 9.93194 15.1023 9.87088 15.1717 9.79626C15.2411 9.72163 15.3358 9.66057 15.3822 9.66057C15.4286 9.66057 15.4665 9.63615 15.4665 9.6063C15.4665 9.57645 15.5032 9.55203 15.5481 9.55203C15.5931 9.55203 15.6298 9.51539 15.6298 9.47062C15.6298 9.42449 15.6786 9.38921 15.7424 9.38921C15.8043 9.38921 15.933 9.30715 16.0283 9.2068C16.1237 9.1065 16.2568 9.00718 16.3242 8.98607C16.3916 8.96496 16.4467 8.92496 16.4467 8.89712C16.4467 8.86927 16.4835 8.84648 16.5284 8.84648C16.5733 8.84648 16.6101 8.82206 16.6101 8.79221C16.6101 8.76236 16.648 8.73793 16.6944 8.73793C16.7408 8.73793 16.8355 8.67688 16.9048 8.60225C16.9743 8.52763 17.0834 8.46657 17.1473 8.46657C17.2144 8.46657 17.2636 8.43211 17.2636 8.38516C17.2636 8.34038 17.3004 8.30375 17.3453 8.30375C17.3902 8.30375 17.427 8.27933 17.427 8.24948C17.427 8.21963 17.476 8.1952 17.5359 8.1952C17.5958 8.1952 17.6448 8.17344 17.6448 8.14679C17.6448 8.1202 17.7061 8.08308 17.781 8.06435C17.8559 8.04563 17.9171 8.00634 17.9171 7.97708C17.9171 7.94777 17.9695 7.92384 18.0334 7.92384C18.0974 7.92384 18.2065 7.86278 18.2759 7.78816C18.3453 7.71353 18.4522 7.65248 18.5136 7.65248C18.5749 7.65248 18.6251 7.62854 18.6251 7.59923C18.6251 7.56998 18.6864 7.53069 18.7612 7.51196C18.8361 7.49324 18.8974 7.45612 18.8974 7.42952C18.8974 7.40287 18.9464 7.38111 19.0063 7.38111C19.0662 7.38111 19.1152 7.35935 19.1152 7.3327C19.1152 7.30611 19.1765 7.26898 19.2514 7.25026C19.3263 7.23154 19.3875 7.19224 19.3875 7.16299C19.3875 7.13368 19.4488 7.10975 19.5237 7.10975C19.5986 7.10975 19.6598 7.08798 19.6598 7.06134C19.6598 7.03474 19.7211 6.99762 19.796 6.9789C19.8709 6.96017 19.9321 6.92088 19.9321 6.89162C19.9321 6.86232 19.9934 6.83838 20.0683 6.83838C20.1432 6.83838 20.2044 6.81396 20.2044 6.78411C20.2044 6.75426 20.261 6.72984 20.3302 6.72984C20.3993 6.72984 20.5035 6.69396 20.5616 6.65016C20.6197 6.60631 20.7102 6.56968 20.7626 6.56876C20.815 6.56778 20.8579 6.5426 20.8579 6.51275C20.8579 6.4829 20.92 6.45847 20.9958 6.45847C21.0716 6.45847 21.1478 6.42184 21.165 6.37706C21.1828 6.33066 21.2641 6.29565 21.3539 6.29565C21.4405 6.29565 21.5114 6.27123 21.5114 6.24138C21.5114 6.21153 21.5745 6.18711 21.6515 6.18711C21.7285 6.18711 21.8283 6.15047 21.8732 6.1057C21.9181 6.06092 22.0144 6.02429 22.0871 6.02429C22.1599 6.02429 22.2194 5.99987 22.2194 5.97002C22.2194 5.94017 22.2899 5.91574 22.3761 5.91574C22.4623 5.91574 22.5633 5.87911 22.6006 5.83433C22.6379 5.78956 22.7267 5.75293 22.7979 5.75293C22.8691 5.75293 22.9274 5.7285 22.9274 5.69865C22.9274 5.6688 23.0111 5.64438 23.1135 5.64438C23.2158 5.64438 23.3085 5.61757 23.3194 5.58479C23.3304 5.55201 23.455 5.51217 23.5963 5.49632C23.7376 5.48042 23.8532 5.44617 23.8532 5.42023C23.8532 5.39424 23.9512 5.37301 24.071 5.37301C24.1908 5.37301 24.2889 5.35011 24.2889 5.32205C24.2889 5.29405 24.3992 5.25465 24.5339 5.23451C24.6687 5.21438 24.779 5.17622 24.779 5.14974C24.779 5.12331 24.9015 5.10165 25.0513 5.10165C25.2011 5.10165 25.3236 5.07951 25.3236 5.05248C25.3236 5.0254 25.4461 4.98648 25.5959 4.96597C25.7457 4.94545 25.8682 4.90654 25.8682 4.87946C25.8682 4.85243 26.0275 4.83029 26.2222 4.83029C26.4169 4.83029 26.5762 4.80923 26.5762 4.78345C26.5762 4.75767 26.7377 4.72369 26.9352 4.7079C27.1326 4.69211 27.3213 4.65211 27.3545 4.61906C27.389 4.5847 27.6088 4.55892 27.8669 4.55892C28.1155 4.55892 28.3189 4.53824 28.3189 4.51301C28.3189 4.48777 28.6359 4.45108 29.0234 4.43154C29.4109 4.412 29.7923 4.37163 29.8711 4.34178C30.0642 4.26862 33.1894 4.27024 33.4384 4.34362C33.543 4.37445 33.9166 4.41483 34.2685 4.43333C34.6205 4.45179 34.9084 4.48766 34.9084 4.51295C34.9084 4.53824 35.1147 4.55892 35.3668 4.55892C35.6353 4.55892 35.833 4.58226 35.844 4.61526C35.8544 4.64625 36.0402 4.68646 36.257 4.70454C36.4738 4.72266 36.6511 4.75837 36.6511 4.78388C36.6511 4.80939 36.8104 4.83029 37.0051 4.83029C37.1998 4.83029 37.3591 4.85243 37.3591 4.87946C37.3591 4.90654 37.4816 4.94545 37.6314 4.96597C37.7812 4.98648 37.9037 5.0254 37.9037 5.05248C37.9037 5.07951 38.0385 5.10165 38.2032 5.10165C38.368 5.10165 38.5028 5.1239 38.5028 5.15115C38.5028 5.17839 38.6008 5.21714 38.7206 5.23733C38.8404 5.25752 38.9384 5.29627 38.9384 5.32352C38.9384 5.35076 39.061 5.37301 39.2107 5.37301C39.3605 5.37301 39.483 5.39744 39.483 5.42729C39.483 5.45714 39.5396 5.48156 39.6088 5.48156C39.6779 5.48156 39.7821 5.51744 39.8402 5.56123C39.8983 5.60509 40.0256 5.64172 40.1229 5.64264C40.2203 5.64362 40.2999 5.6688 40.2999 5.69865C40.2999 5.7285 40.3565 5.75293 40.4257 5.75293C40.4948 5.75293 40.599 5.7888 40.6571 5.8326C40.7152 5.87645 40.8302 5.91308 40.9126 5.91401C40.995 5.91498 41.0624 5.94017 41.0624 5.97002C41.0624 5.99987 41.1175 6.02505 41.1849 6.02603C41.2523 6.02695 41.355 6.06358 41.4131 6.10744C41.4713 6.15123 41.5754 6.18711 41.6446 6.18711C41.7137 6.18711 41.7703 6.21153 41.7703 6.24138C41.7703 6.27123 41.8211 6.29565 41.8831 6.29565C41.9452 6.29565 42.0327 6.33229 42.0776 6.37706C42.1226 6.42184 42.2188 6.45847 42.2916 6.45847C42.3643 6.45847 42.4238 6.4829 42.4238 6.51275C42.4238 6.5426 42.4859 6.56702 42.5617 6.56702C42.6375 6.56702 42.7137 6.60365 42.7309 6.64843C42.7481 6.6932 42.8209 6.72984 42.8926 6.72984C42.9642 6.72984 43.0229 6.75426 43.0229 6.78411C43.0229 6.81396 43.0577 6.83838 43.1002 6.83838C43.1911 6.83838 43.5321 7.01005 43.5584 7.06904C43.5684 7.0914 43.6093 7.10975 43.6493 7.10975C43.7367 7.10975 44.0774 7.28293 44.103 7.34041C44.113 7.36277 44.1681 7.38111 44.2255 7.38111C44.283 7.38111 44.3299 7.40287 44.3299 7.42952C44.3299 7.45612 44.3912 7.49324 44.4661 7.51196C44.5409 7.53069 44.6022 7.56998 44.6022 7.59923C44.6022 7.62854 44.6635 7.65248 44.7384 7.65248C44.8132 7.65248 44.8745 7.67641 44.8745 7.70572C44.8745 7.73497 44.9358 7.77426 45.0107 7.79299C45.0855 7.81171 45.1468 7.84884 45.1468 7.87543C45.1468 7.90208 45.1836 7.92384 45.2285 7.92384C45.2734 7.92384 45.3102 7.94777 45.3102 7.97708C45.3102 8.00634 45.3714 8.04563 45.4463 8.06435C45.5212 8.08308 45.5825 8.1202 45.5825 8.14679C45.5825 8.17344 45.6315 8.1952 45.6914 8.1952C45.7513 8.1952 45.8003 8.21963 45.8003 8.24948C45.8003 8.27933 45.8371 8.30375 45.882 8.30375C45.9269 8.30375 45.9637 8.32654 45.9637 8.35439C45.9637 8.38223 46.0189 8.42212 46.0862 8.44307C46.1536 8.46407 46.221 8.4968 46.236 8.51585C46.2953 8.59134 46.5637 8.73793 46.6425 8.73793C46.6885 8.73793 46.7261 8.75926 46.7261 8.78531C46.7261 8.83823 47.1814 8.91188 47.5158 8.91307C47.8278 8.91421 48.251 8.84056 48.251 8.78515C48.251 8.75915 48.3123 8.73793 48.3871 8.73793C48.462 8.73793 48.5233 8.71514 48.5233 8.6873C48.5233 8.65946 48.5756 8.62016 48.6394 8.59997C48.7948 8.5508 49.3402 8.01155 49.3402 7.90712C49.3402 7.86159 49.3585 7.81622 49.381 7.80623C49.4745 7.76487 49.6125 7.41161 49.6125 7.2139C49.6125 7.09694 49.637 7.0012 49.6669 7.0012C49.6969 7.0012 49.7214 6.91572 49.7214 6.81125C49.7214 6.70677 49.7 6.62129 49.6738 6.62129C49.6477 6.62129 49.6141 6.49413 49.5991 6.33864C49.5841 6.1832 49.5442 6.04687 49.5105 6.03563C49.4767 6.0244 49.4491 5.95623 49.4491 5.8841C49.4491 5.81197 49.4246 5.75293 49.3946 5.75293C49.3647 5.75293 49.3402 5.71363 49.3402 5.66565C49.3402 5.55776 48.7984 5.01851 48.6394 4.96825C48.5756 4.94806 48.5233 4.90876 48.5233 4.88092C48.5233 4.85308 48.4865 4.83029 48.4416 4.83029C48.3967 4.83029 48.3599 4.80852 48.3599 4.78188C48.3599 4.75528 48.2986 4.71816 48.2238 4.69943C48.1489 4.68071 48.0876 4.64142 48.0876 4.61216C48.0876 4.58286 48.0386 4.55892 47.9787 4.55892C47.9188 4.55892 47.8698 4.5345 47.8698 4.50465C47.8698 4.4748 47.833 4.45038 47.7881 4.45038C47.7432 4.45038 47.7064 4.41374 47.7064 4.36897C47.7064 4.31833 47.655 4.28756 47.5702 4.28756C47.4954 4.28756 47.4341 4.26579 47.4341 4.23915C47.4341 4.21255 47.3728 4.17543 47.2979 4.15671C47.2231 4.13798 47.1618 4.09869 47.1618 4.06944C47.1618 4.04013 47.125 4.01619 47.0801 4.01619C47.0352 4.01619 46.9984 3.99177 46.9984 3.96192C46.9984 3.93207 46.9524 3.90765 46.8961 3.90765C46.8399 3.90765 46.7634 3.87101 46.7261 3.82624C46.6888 3.78146 46.6246 3.74483 46.5833 3.74483C46.542 3.74483 46.5083 3.72041 46.5083 3.69056C46.5083 3.66071 46.4496 3.63628 46.378 3.63628C46.3063 3.63628 46.2335 3.59965 46.2163 3.55487C46.1991 3.5101 46.1352 3.47346 46.0743 3.47346C46.0135 3.47346 45.9637 3.44904 45.9637 3.41919C45.9637 3.38934 45.9024 3.36492 45.8275 3.36492C45.7527 3.36492 45.6914 3.34098 45.6914 3.31168C45.6914 3.28242 45.6301 3.24313 45.5552 3.22441C45.4804 3.20568 45.4191 3.16856 45.4191 3.14197C45.4191 3.11532 45.3578 3.09355 45.283 3.09355C45.2081 3.09355 45.1468 3.06962 45.1468 3.04031C45.1468 3.01106 45.0855 2.97177 45.0107 2.95304C44.9358 2.93432 44.8745 2.89719 44.8745 2.8706C44.8745 2.84395 44.8132 2.82219 44.7384 2.82219C44.6635 2.82219 44.6022 2.80048 44.6022 2.77394C44.6022 2.74746 44.5164 2.70968 44.4116 2.69009C44.3068 2.6705 44.221 2.63115 44.221 2.60266C44.221 2.57416 44.1597 2.55083 44.0848 2.55083C44.01 2.55083 43.9487 2.52836 43.9487 2.50084C43.9487 2.47338 43.8752 2.43479 43.7853 2.41514C43.6955 2.3955 43.6219 2.35691 43.6219 2.32945C43.6219 2.30193 43.5362 2.27946 43.4313 2.27946C43.3265 2.27946 43.2407 2.25835 43.2407 2.23257C43.2407 2.17775 42.8174 2.0081 42.6807 2.0081C42.6293 2.0081 42.5872 1.98367 42.5872 1.95382C42.5872 1.92397 42.5306 1.89955 42.4615 1.89955C42.3923 1.89955 42.2882 1.86368 42.23 1.81988C42.1719 1.77603 42.0447 1.73939 41.9473 1.73847C41.8499 1.73749 41.7703 1.71231 41.7703 1.68246C41.7703 1.65261 41.7108 1.62819 41.638 1.62819C41.5653 1.62819 41.4691 1.59155 41.4241 1.54678C41.3792 1.502 41.2549 1.46537 41.1479 1.46537C41.0409 1.46537 40.9534 1.44094 40.9534 1.41109C40.9534 1.38124 40.8782 1.35682 40.7862 1.35682C40.6942 1.35682 40.5821 1.32019 40.5372 1.27541C40.4923 1.23064 40.3592 1.194 40.2416 1.194C40.1239 1.194 40.0276 1.16958 40.0276 1.13973C40.0276 1.10988 39.948 1.0847 39.8506 1.08372C39.7533 1.0828 39.626 1.04616 39.5679 1.00231C39.5098 0.958513 39.3689 0.922639 39.2548 0.922639C39.1407 0.922639 39.0474 0.898216 39.0474 0.868366C39.0474 0.838516 38.9524 0.814093 38.8364 0.814093C38.7203 0.814093 38.5212 0.777459 38.3938 0.732684C38.2665 0.687909 38.0674 0.651275 37.9513 0.651275C37.8353 0.651275 37.7403 0.626852 37.7403 0.597002C37.7403 0.567043 37.5987 0.542729 37.4245 0.542729C37.2507 0.542729 37.0809 0.515158 37.0472 0.481509C37.0134 0.447806 36.8124 0.407915 36.6006 0.392773C36.3888 0.377685 36.2155 0.344199 36.2155 0.318365C36.2155 0.292531 36.0178 0.271364 35.7762 0.271364C35.5346 0.271364 35.2846 0.243414 35.2206 0.209276C35.1566 0.175139 34.7661 0.135085 34.3528 0.120269C33.9396 0.105506 33.6014 0.0723458 33.6014 0.0466747C33.6014 0.0210036 32.7069 0 31.6137 0C30.5204 0 29.6259 0.0210036 29.6259 0.0466747ZM66.6038 2.87646C66.6038 2.90631 66.5104 2.93074 66.3964 2.93074C66.2823 2.93074 66.1414 2.96661 66.0832 3.01041C66.0251 3.05426 65.9346 3.09089 65.8822 3.09182C65.8298 3.09279 65.7869 3.11532 65.7869 3.14197C65.7869 3.16856 65.7256 3.20568 65.6507 3.22441C65.5759 3.24313 65.5146 3.28242 65.5146 3.31168C65.5146 3.34098 65.4883 3.36492 65.4563 3.36492C65.3808 3.36492 65.2423 3.50299 65.2423 3.57816C65.2423 3.61012 65.216 3.63628 65.184 3.63628C65.1086 3.63628 64.97 3.77435 64.97 3.84952C64.97 3.88149 64.9438 3.90765 64.9117 3.90765C64.8482 3.90765 64.6977 4.04127 64.6977 4.0976C64.6977 4.15394 64.5472 4.28756 64.4837 4.28756C64.4517 4.28756 64.4254 4.31372 64.4254 4.34568C64.4254 4.42085 64.2869 4.55892 64.2114 4.55892C64.1794 4.55892 64.1531 4.58508 64.1531 4.61705C64.1531 4.69222 64.0146 4.83029 63.9391 4.83029C63.9071 4.83029 63.8808 4.85645 63.8808 4.88841C63.8808 4.96358 63.7423 5.10165 63.6669 5.10165C63.6348 5.10165 63.6085 5.12781 63.6085 5.15978C63.6085 5.23494 63.47 5.37301 63.3946 5.37301C63.3625 5.37301 63.3362 5.39917 63.3362 5.43114C63.3362 5.50631 63.1977 5.64438 63.1223 5.64438C63.0902 5.64438 63.0639 5.67054 63.0639 5.70251C63.0639 5.77767 62.9254 5.91574 62.85 5.91574C62.8179 5.91574 62.7916 5.9419 62.7916 5.97387C62.7916 6.03715 62.6576 6.18711 62.601 6.18711C62.5445 6.18711 62.4104 6.33706 62.4104 6.40035C62.4104 6.43231 62.3842 6.45847 62.3521 6.45847C62.2886 6.45847 62.1381 6.59209 62.1381 6.64843C62.1381 6.70476 61.9877 6.83838 61.9242 6.83838C61.8921 6.83838 61.8658 6.86454 61.8658 6.89651C61.8658 6.97168 61.7273 7.10975 61.6519 7.10975C61.6198 7.10975 61.5935 7.13591 61.5935 7.16787C61.5935 7.24304 61.455 7.38111 61.3796 7.38111C61.3475 7.38111 61.3212 7.40727 61.3212 7.43924C61.3212 7.51441 61.1827 7.65248 61.1073 7.65248C61.0752 7.65248 61.0489 7.67864 61.0489 7.7106C61.0489 7.78577 60.9104 7.92384 60.835 7.92384C60.8029 7.92384 60.7766 7.95 60.7766 7.98197C60.7766 8.05713 60.6381 8.1952 60.5627 8.1952C60.5306 8.1952 60.5043 8.22136 60.5043 8.25333C60.5043 8.3285 60.3658 8.46657 60.2904 8.46657C60.2583 8.46657 60.232 8.49273 60.232 8.5247C60.232 8.58798 60.098 8.73793 60.0414 8.73793C59.9849 8.73793 59.8508 8.88789 59.8508 8.95117C59.8508 8.98314 59.8246 9.0093 59.7925 9.0093C59.7171 9.0093 59.5785 9.14737 59.5785 9.22254C59.5785 9.2545 59.5523 9.28066 59.5202 9.28066C59.4567 9.28066 59.3062 9.41428 59.3062 9.47062C59.3062 9.52695 59.1558 9.66057 59.0923 9.66057C59.0602 9.66057 59.0339 9.68673 59.0339 9.7187C59.0339 9.79387 58.8954 9.93194 58.82 9.93194C58.7879 9.93194 58.7616 9.9581 58.7616 9.99006C58.7616 10.0652 58.6231 10.2033 58.5477 10.2033C58.5156 10.2033 58.4893 10.2295 58.4893 10.2614C58.4893 10.3366 58.3508 10.4747 58.2754 10.4747C58.2433 10.4747 58.217 10.5008 58.217 10.5328C58.217 10.608 58.0785 10.746 58.0031 10.746C57.971 10.746 57.9448 10.7722 57.9448 10.8042C57.9448 10.8793 57.8062 11.0174 57.7308 11.0174C57.6987 11.0174 57.6725 11.0436 57.6725 11.0755C57.6725 11.1388 57.5384 11.2888 57.4818 11.2888C57.4253 11.2888 57.2912 11.4387 57.2912 11.502C57.2912 11.534 57.265 11.5601 57.2329 11.5601C57.1575 11.5601 57.0189 11.6982 57.0189 11.7734C57.0189 11.8053 56.9927 11.8315 56.9606 11.8315C56.8971 11.8315 56.7466 11.9651 56.7466 12.0214C56.7466 12.0778 56.5962 12.2114 56.5327 12.2114C56.5006 12.2114 56.4743 12.2376 56.4743 12.2695C56.4743 12.3447 56.3358 12.4828 56.2604 12.4828C56.2283 12.4828 56.2021 12.5089 56.2021 12.5409C56.2021 12.6161 56.0635 12.7541 55.9881 12.7541C55.956 12.7541 55.9298 12.7803 55.9298 12.8123C55.9298 12.8874 55.7912 13.0255 55.7158 13.0255C55.6837 13.0255 55.6575 13.0517 55.6575 13.0836C55.6575 13.1588 55.5189 13.2969 55.4435 13.2969C55.4114 13.2969 55.3852 13.323 55.3852 13.355C55.3852 13.4302 55.2466 13.5682 55.1712 13.5682C55.1391 13.5682 55.1129 13.5944 55.1129 13.6263C55.1129 13.7015 54.9743 13.8396 54.8989 13.8396C54.8668 13.8396 54.8406 13.8657 54.8406 13.8977C54.8406 13.961 54.7065 14.1109 54.65 14.1109C54.5934 14.1109 54.4594 14.2609 54.4594 14.3242C54.4594 14.3562 54.4331 14.3823 54.401 14.3823C54.3375 14.3823 54.1871 14.5159 54.1871 14.5723C54.1871 14.6286 54.0366 14.7622 53.9731 14.7622C53.941 14.7622 53.9148 14.7884 53.9148 14.8203C53.9148 14.8955 53.7762 15.0336 53.7008 15.0336C53.6687 15.0336 53.6425 15.0597 53.6425 15.0917C53.6425 15.1669 53.5039 15.305 53.4285 15.305C53.3964 15.305 53.3702 15.3311 53.3702 15.3631C53.3702 15.4382 53.2316 15.5763 53.1562 15.5763C53.1241 15.5763 53.0979 15.6025 53.0979 15.6344C53.0979 15.7096 52.9593 15.8477 52.8839 15.8477C52.8518 15.8477 52.8256 15.8738 52.8256 15.9058C52.8256 15.981 52.687 16.119 52.6116 16.119C52.5795 16.119 52.5533 16.1452 52.5533 16.1772C52.5533 16.2523 52.4147 16.3904 52.3393 16.3904C52.3072 16.3904 52.281 16.4166 52.281 16.4485C52.281 16.5118 52.1469 16.6618 52.0904 16.6618C52.0338 16.6618 51.8998 16.8117 51.8998 16.875C51.8998 16.907 51.8735 16.9331 51.8414 16.9331C51.8093 16.9331 51.748 16.968 51.7053 17.0107C51.6625 17.0533 51.6275 17.1144 51.6275 17.1464C51.6275 17.1783 51.6012 17.2045 51.5691 17.2045C51.5056 17.2045 51.3552 17.3381 51.3552 17.3945C51.3552 17.4508 51.2047 17.5844 51.1412 17.5844C51.1091 17.5844 51.0829 17.6106 51.0829 17.6425C51.0829 17.6746 51.0479 17.7356 51.0051 17.7782C50.9623 17.8209 50.901 17.8558 50.8689 17.8558C50.8368 17.8558 50.8106 17.8819 50.8106 17.9139C50.8106 17.9459 50.7756 18.007 50.7328 18.0496C50.69 18.0922 50.6287 18.1271 50.5966 18.1271C50.5645 18.1271 50.5383 18.1533 50.5383 18.1853C50.5383 18.2173 50.5033 18.2783 50.4605 18.321C50.4177 18.3636 50.3564 18.3985 50.3243 18.3985C50.2922 18.3985 50.266 18.4247 50.266 18.4566C50.266 18.4887 50.231 18.5497 50.1882 18.5923C50.1454 18.635 50.0841 18.6699 50.052 18.6699C50.0199 18.6699 49.9937 18.696 49.9937 18.728C49.9937 18.76 49.9587 18.8211 49.9159 18.8637C49.8731 18.9063 49.8118 18.9412 49.7797 18.9412C49.7476 18.9412 49.7214 18.9674 49.7214 18.9994C49.7214 19.0626 49.5873 19.2126 49.5308 19.2126C49.4743 19.2126 49.3402 19.3626 49.3402 19.4258C49.3402 19.4578 49.3139 19.484 49.2818 19.484C49.2497 19.484 49.1884 19.5189 49.1457 19.5615C49.1029 19.6041 49.0679 19.6652 49.0679 19.6972C49.0679 19.7292 49.0416 19.7553 49.0096 19.7553C48.9461 19.7553 48.7956 19.8889 48.7956 19.9453C48.7956 20.0016 48.6451 20.1352 48.5816 20.1352C48.5495 20.1352 48.5233 20.1614 48.5233 20.1934C48.5233 20.2254 48.4883 20.2864 48.4455 20.329C48.4027 20.3717 48.3414 20.4066 48.3093 20.4066C48.2772 20.4066 48.251 20.4328 48.251 20.4647C48.251 20.4967 48.216 20.5578 48.1732 20.6004C48.1304 20.6431 48.0691 20.678 48.037 20.678C48.0049 20.678 47.9787 20.7041 47.9787 20.7361C47.9787 20.7681 47.9437 20.8292 47.9009 20.8718C47.8581 20.9144 47.7968 20.9493 47.7647 20.9493C47.7326 20.9493 47.7064 20.9755 47.7064 21.0075C47.7064 21.0395 47.6714 21.1005 47.6286 21.1431C47.5858 21.1858 47.5246 21.2207 47.4924 21.2207C47.4603 21.2207 47.4341 21.2469 47.4341 21.2788C47.4341 21.3108 47.3991 21.3719 47.3563 21.4145C47.3135 21.4572 47.2523 21.4921 47.2201 21.4921C47.188 21.4921 47.1618 21.5182 47.1618 21.5502C47.1618 21.5822 47.1268 21.6433 47.084 21.6859C47.0412 21.7285 46.98 21.7634 46.9478 21.7634C46.9158 21.7634 46.8895 21.7896 46.8895 21.8216C46.8895 21.8848 46.7554 22.0348 46.6989 22.0348C46.6424 22.0348 46.5083 22.1847 46.5083 22.248C46.5083 22.28 46.482 22.3062 46.45 22.3062C46.3745 22.3062 46.236 22.4442 46.236 22.5194C46.236 22.5514 46.2097 22.5775 46.1777 22.5775C46.1142 22.5775 45.9637 22.7111 45.9637 22.7675C45.9637 22.8238 45.8132 22.9574 45.7497 22.9574C45.7176 22.9574 45.6914 22.9836 45.6914 23.0156C45.6914 23.0476 45.6564 23.1086 45.6136 23.1512C45.5708 23.1939 45.5096 23.2288 45.4774 23.2288C45.4453 23.2288 45.4191 23.255 45.4191 23.2869C45.4191 23.3189 45.3841 23.38 45.3413 23.4226C45.2985 23.4653 45.2373 23.5002 45.2051 23.5002C45.173 23.5002 45.1468 23.5263 45.1468 23.5583C45.1468 23.5903 45.1118 23.6514 45.069 23.694C45.0262 23.7366 44.965 23.7715 44.9328 23.7715C44.9008 23.7715 44.8745 23.7977 44.8745 23.8296C44.8745 23.8617 44.8395 23.9227 44.7967 23.9653C44.7539 24.008 44.6927 24.0429 44.6605 24.0429C44.6285 24.0429 44.6022 24.069 44.6022 24.101C44.6022 24.133 44.5672 24.1941 44.5244 24.2367C44.4816 24.2794 44.4204 24.3142 44.3882 24.3142C44.3562 24.3142 44.3299 24.3404 44.3299 24.3724C44.3299 24.4357 44.1958 24.5856 44.1393 24.5856C44.0828 24.5856 43.9487 24.7356 43.9487 24.7989C43.9487 24.8308 43.9224 24.857 43.8904 24.857C43.8582 24.857 43.797 24.8919 43.7542 24.9345C43.7114 24.9771 43.6764 25.0382 43.6764 25.0702C43.6764 25.1022 43.6502 25.1283 43.6181 25.1283C43.5546 25.1283 43.4041 25.262 43.4041 25.3183C43.4041 25.3746 43.2536 25.5083 43.1901 25.5083C43.1581 25.5083 43.1318 25.5344 43.1318 25.5664C43.1318 25.5984 43.0968 25.6595 43.054 25.7021C43.0112 25.7447 42.95 25.7796 42.9178 25.7796C42.8858 25.7796 42.8595 25.8058 42.8595 25.8377C42.8595 25.8698 42.8245 25.9308 42.7817 25.9734C42.7389 26.0161 42.6777 26.051 42.6455 26.051C42.6135 26.051 42.5872 26.0771 42.5872 26.1091C42.5872 26.1411 42.5522 26.2022 42.5094 26.2448C42.4666 26.2874 42.4054 26.3223 42.3732 26.3223C42.3412 26.3223 42.3149 26.3485 42.3149 26.3805C42.3149 26.4125 42.2799 26.4735 42.2371 26.5162C42.1943 26.5588 42.1331 26.5937 42.1009 26.5937C42.0689 26.5937 42.0426 26.6199 42.0426 26.6518C42.0426 26.6839 42.0076 26.7449 41.9648 26.7875C41.922 26.8302 41.8608 26.8651 41.8286 26.8651C41.7966 26.8651 41.7703 26.8912 41.7703 26.9232C41.7703 26.9865 41.6362 27.1364 41.5797 27.1364C41.5232 27.1364 41.3891 27.2864 41.3891 27.3497C41.3891 27.3816 41.3629 27.4078 41.3308 27.4078C41.2987 27.4078 41.2374 27.4427 41.1946 27.4854C41.1518 27.528 41.1168 27.589 41.1168 27.621C41.1168 27.653 41.0906 27.6792 41.0585 27.6792C40.995 27.6792 40.8445 27.8128 40.8445 27.8691C40.8445 27.9255 40.694 28.0591 40.6305 28.0591C40.5985 28.0591 40.5722 28.0852 40.5722 28.1172C40.5722 28.1492 40.5372 28.2103 40.4944 28.2529C40.4516 28.2955 40.3904 28.3304 40.3582 28.3304C40.3262 28.3304 40.2999 28.3566 40.2999 28.3886C40.2999 28.4206 40.2649 28.4816 40.2221 28.5243C40.1793 28.5669 40.1181 28.6018 40.0859 28.6018C40.0539 28.6018 40.0276 28.628 40.0276 28.6599C40.0276 28.692 39.9926 28.753 39.9498 28.7956C39.9071 28.8383 39.8458 28.8732 39.8137 28.8732C39.7816 28.8732 39.7553 28.8993 39.7553 28.9313C39.7553 28.9633 39.7203 29.0244 39.6775 29.067C39.6348 29.1096 39.5735 29.1445 39.5414 29.1445C39.5093 29.1445 39.483 29.1707 39.483 29.2027C39.483 29.2347 39.448 29.2957 39.4052 29.3383C39.3625 29.381 39.3012 29.4159 39.2691 29.4159C39.237 29.4159 39.2107 29.4421 39.2107 29.474C39.2107 29.506 39.1757 29.5671 39.1329 29.6097C39.0902 29.6524 39.0289 29.6873 38.9968 29.6873C38.9647 29.6873 38.9384 29.7134 38.9384 29.7454C38.9384 29.8087 38.8044 29.9586 38.7478 29.9586C38.6913 29.9586 38.5572 30.1086 38.5572 30.1719C38.5572 30.2038 38.531 30.23 38.4989 30.23C38.4235 30.23 38.2849 30.3681 38.2849 30.4432C38.2849 30.4752 38.2587 30.5014 38.2266 30.5014C38.1631 30.5014 38.0126 30.635 38.0126 30.6913C38.0126 30.7476 37.8622 30.8813 37.7987 30.8813C37.7666 30.8813 37.7403 30.9074 37.7403 30.9394C37.7403 30.9714 37.7053 31.0325 37.6625 31.0751C37.6198 31.1177 37.5585 31.1526 37.5264 31.1526C37.4943 31.1526 37.468 31.1788 37.468 31.2108C37.468 31.2428 37.433 31.3038 37.3902 31.3464C37.3475 31.3891 37.2862 31.424 37.2541 31.424C37.222 31.424 37.1957 31.4502 37.1957 31.4821C37.1957 31.5141 37.1607 31.5752 37.1179 31.6178C37.0752 31.6605 37.0139 31.6954 36.9818 31.6954C36.9497 31.6954 36.9234 31.7215 36.9234 31.7535C36.9234 31.7855 36.8884 31.8466 36.8456 31.8892C36.8029 31.9318 36.7416 31.9667 36.7095 31.9667C36.6774 31.9667 36.6511 31.9929 36.6511 32.0249C36.6511 32.1 36.5126 32.2381 36.4372 32.2381C36.4051 32.2381 36.3788 32.2642 36.3788 32.2962C36.3788 32.3595 36.2448 32.5095 36.1882 32.5095C36.1317 32.5095 35.9976 32.6594 35.9976 32.7227C35.9976 32.7547 35.9714 32.7808 35.9393 32.7808C35.9072 32.7808 35.8459 32.8157 35.8032 32.8584C35.7604 32.901 35.7253 32.962 35.7253 32.9941C35.7253 33.026 35.6991 33.0522 35.667 33.0522C35.6035 33.0522 35.453 33.1858 35.453 33.2421C35.453 33.3075 35.2977 33.4321 35.2161 33.4321C35.1713 33.4321 32.5 30.8066 29.2799 27.5978C25.2831 23.615 23.3893 21.7634 23.3124 21.7634C23.2504 21.7634 23.1997 21.7393 23.1997 21.7098C23.1997 21.6803 23.1017 21.6406 22.9818 21.6214C22.862 21.6023 22.764 21.5654 22.764 21.5394C22.764 21.5133 22.5312 21.4921 22.2466 21.4921C21.938 21.4921 21.7293 21.514 21.7293 21.5463C21.7293 21.5762 21.6822 21.6006 21.6248 21.6006C21.5673 21.6006 21.4398 21.6433 21.3414 21.6956C21.1682 21.7875 21.1167 21.8226 20.9438 21.9669C20.8991 22.0043 20.8475 22.0348 20.8291 22.0348C20.7738 22.0348 20.6401 22.1857 20.6401 22.248C20.6401 22.28 20.6172 22.3062 20.5893 22.3062C20.5613 22.3062 20.5214 22.36 20.5004 22.4257C20.4795 22.4915 20.4288 22.5787 20.3878 22.6196C20.3469 22.6604 20.3133 22.7287 20.3133 22.7713C20.3133 22.814 20.2888 22.8489 20.2589 22.8489C20.2289 22.8489 20.2044 22.971 20.2044 23.1202C20.2044 23.2695 20.1799 23.3916 20.15 23.3916C20.12 23.3916 20.0955 23.5015 20.0955 23.6358C20.0955 23.7702 20.12 23.8801 20.15 23.8801C20.1799 23.8801 20.2044 24.0022 20.2044 24.1514C20.2044 24.3007 20.2289 24.4228 20.2589 24.4228C20.2888 24.4228 20.3133 24.4577 20.3133 24.5004C20.3133 24.543 20.3469 24.6113 20.3878 24.6521C20.4288 24.693 20.4795 24.7802 20.5004 24.846C20.5214 24.9117 20.5613 24.9655 20.5893 24.9655C20.6172 24.9655 20.6401 24.9932 20.6401 25.0271C20.6401 25.092 20.9109 25.3453 20.9805 25.3454C21.003 25.3454 21.0213 25.3821 21.0213 25.4268C21.0213 25.4716 21.0476 25.5083 21.0796 25.5083C21.1551 25.5083 21.2936 25.6463 21.2936 25.7215C21.2936 25.7535 21.3199 25.7796 21.3519 25.7796C21.4274 25.7796 21.5659 25.9177 21.5659 25.9929C21.5659 26.0248 21.5922 26.051 21.6242 26.051C21.6997 26.051 21.8382 26.1891 21.8382 26.2642C21.8382 26.2962 21.8645 26.3223 21.8965 26.3223C21.96 26.3223 22.1105 26.456 22.1105 26.5123C22.1105 26.5686 22.261 26.7023 22.3245 26.7023C22.3565 26.7023 22.3828 26.7284 22.3828 26.7604C22.3828 26.8356 22.5213 26.9736 22.5968 26.9736C22.6288 26.9736 22.6551 26.9998 22.6551 27.0317C22.6551 27.1069 22.7936 27.245 22.8691 27.245C22.9011 27.245 22.9274 27.2711 22.9274 27.3031C22.9274 27.3783 23.0659 27.5163 23.1414 27.5163C23.1734 27.5163 23.1997 27.5425 23.1997 27.5745C23.1997 27.6378 23.3338 27.7877 23.3903 27.7877C23.4468 27.7877 23.5809 27.9377 23.5809 28.001C23.5809 28.0329 23.6071 28.0591 23.6392 28.0591C23.7147 28.0591 23.8532 28.1971 23.8532 28.2723C23.8532 28.3043 23.8794 28.3304 23.9115 28.3304C23.9869 28.3304 24.1255 28.4685 24.1255 28.5437C24.1255 28.5756 24.1517 28.6018 24.1838 28.6018C24.2592 28.6018 24.3978 28.7399 24.3978 28.815C24.3978 28.847 24.424 28.8732 24.4561 28.8732C24.5315 28.8732 24.6701 29.0112 24.6701 29.0864C24.6701 29.1184 24.6963 29.1445 24.7284 29.1445C24.7919 29.1445 24.9424 29.2782 24.9424 29.3345C24.9424 29.3908 25.0929 29.5244 25.1564 29.5244C25.1884 29.5244 25.2147 29.5506 25.2147 29.5826C25.2147 29.6577 25.3532 29.7958 25.4286 29.7958C25.4607 29.7958 25.487 29.822 25.487 29.8539C25.487 29.9291 25.6255 30.0672 25.7009 30.0672C25.733 30.0672 25.7593 30.0933 25.7593 30.1253C25.7593 30.2005 25.8978 30.3385 25.9732 30.3385C26.0053 30.3385 26.0316 30.3647 26.0316 30.3967C26.0316 30.4599 26.1656 30.6099 26.2222 30.6099C26.2787 30.6099 26.4128 30.7599 26.4128 30.8231C26.4128 30.8551 26.439 30.8813 26.4711 30.8813C26.5465 30.8813 26.6851 31.0193 26.6851 31.0945C26.6851 31.1265 26.7113 31.1526 26.7434 31.1526C26.8188 31.1526 26.9574 31.2907 26.9574 31.3659C26.9574 31.3978 26.9836 31.424 27.0157 31.424C27.0911 31.424 27.2297 31.5621 27.2297 31.6372C27.2297 31.6692 27.2559 31.6954 27.288 31.6954C27.3515 31.6954 27.502 31.829 27.502 31.8853C27.502 31.9417 27.6524 32.0753 27.7159 32.0753C27.748 32.0753 27.7743 32.1014 27.7743 32.1334C27.7743 32.2086 27.9128 32.3466 27.9882 32.3466C28.0203 32.3466 28.0466 32.3728 28.0466 32.4048C28.0466 32.4799 28.1851 32.618 28.2605 32.618C28.2926 32.618 28.3189 32.6442 28.3189 32.6761C28.3189 32.7513 28.4574 32.8894 28.5328 32.8894C28.5649 32.8894 28.5912 32.917 28.5912 32.9509C28.5912 33.0159 28.8619 33.2691 28.9315 33.2692C28.954 33.2692 28.9724 33.3059 28.9724 33.3507C28.9724 33.3955 28.9986 33.4321 29.0307 33.4321C29.1061 33.4321 29.2447 33.5702 29.2447 33.6453C29.2447 33.6773 29.2773 33.7035 29.3172 33.7035C29.357 33.7035 29.4224 33.7645 29.4625 33.8391C29.5026 33.9138 29.5575 33.9748 29.5845 33.9748C29.6525 33.9748 29.7893 34.1173 29.7893 34.1881C29.7893 34.22 29.8155 34.2462 29.8476 34.2462C29.9111 34.2462 30.0616 34.3798 30.0616 34.4361C30.0616 34.4925 30.212 34.6261 30.2755 34.6261C30.3076 34.6261 30.3339 34.6523 30.3339 34.6842C30.3339 34.7594 30.4724 34.8975 30.5478 34.8975C30.5799 34.8975 30.6062 34.9236 30.6062 34.9556C30.6062 35.0308 30.7447 35.1688 30.8201 35.1688C30.8522 35.1688 30.8785 35.195 30.8785 35.227C30.8785 35.3021 31.017 35.4402 31.0924 35.4402C31.1245 35.4402 31.1507 35.4663 31.1507 35.4983C31.1507 35.5616 31.2848 35.7116 31.3414 35.7116C31.3979 35.7116 31.532 35.8615 31.532 35.9248C31.532 35.9568 31.5582 35.9829 31.5903 35.9829C31.6657 35.9829 31.8043 36.121 31.8043 36.1962C31.8043 36.2281 31.8305 36.2543 31.8626 36.2543C31.938 36.2543 32.0766 36.3924 32.0766 36.4675C32.0766 36.4995 32.1028 36.5256 32.1349 36.5256C32.2103 36.5256 32.3489 36.6637 32.3489 36.7389C32.3489 36.7709 32.3751 36.797 32.4072 36.797C32.4826 36.797 32.6212 36.9351 32.6212 37.0103C32.6212 37.0422 32.6474 37.0684 32.6795 37.0684C32.743 37.0684 32.8934 37.202 32.8934 37.2583C32.8934 37.3147 33.0439 37.4483 33.1074 37.4483C33.1395 37.4483 33.1657 37.4744 33.1657 37.5064C33.1657 37.5816 33.3043 37.7197 33.3797 37.7197C33.4118 37.7197 33.438 37.7458 33.438 37.7778C33.438 37.8529 33.5766 37.991 33.652 37.991C33.6841 37.991 33.7103 38.0172 33.7103 38.0491C33.7103 38.132 33.8313 38.2416 33.9716 38.286C34.0375 38.3069 34.0916 38.3467 34.0916 38.3746C34.0916 38.4024 34.1528 38.4252 34.2277 38.4252C34.3026 38.4252 34.3638 38.4496 34.3638 38.4795C34.3638 38.5093 34.423 38.5337 34.4955 38.5337C34.5679 38.5337 34.6357 38.5596 34.6463 38.5913C34.6569 38.6229 34.8489 38.6625 35.0729 38.6793C35.3805 38.7023 35.5319 38.6883 35.6911 38.6218C35.8071 38.5734 35.948 38.5337 36.0043 38.5337C36.0605 38.5337 36.1066 38.5093 36.1066 38.4795C36.1066 38.4496 36.1678 38.4252 36.2427 38.4252C36.3274 38.4252 36.3788 38.3944 36.3788 38.3438C36.3788 38.299 36.4056 38.2624 36.4383 38.2624C36.4709 38.2624 43.7494 31.0357 52.6127 22.203C63.8289 11.0255 68.7277 6.10901 68.7277 6.02966C68.7277 5.96703 68.7511 5.91574 68.7797 5.91574C68.8083 5.91574 68.8478 5.83026 68.8674 5.72579C68.8871 5.62131 68.925 5.53583 68.9516 5.53583C68.9782 5.53583 69 5.29161 69 4.9931C69 4.6946 68.9775 4.45038 68.9498 4.45038C68.9223 4.45038 68.8836 4.37711 68.8639 4.28756C68.8441 4.19801 68.8054 4.12474 68.7779 4.12474C68.7503 4.12474 68.7277 4.07589 68.7277 4.01619C68.7277 3.95649 68.7059 3.90765 68.6791 3.90765C68.6524 3.90765 68.6152 3.84659 68.5964 3.77197C68.5776 3.69734 68.5382 3.63628 68.5088 3.63628C68.4794 3.63628 68.4554 3.59965 68.4554 3.55487C68.4554 3.5101 68.4292 3.47346 68.3971 3.47346C68.3649 3.47346 68.3046 3.44296 68.2628 3.40562C68.0826 3.24454 68.021 3.2021 67.9676 3.2021C67.9364 3.2021 67.9108 3.17768 67.9108 3.14783C67.9108 3.11798 67.8601 3.09355 67.798 3.09355C67.7359 3.09355 67.6484 3.05692 67.6035 3.01214C67.5586 2.96737 67.4255 2.93074 67.3079 2.93074C67.1902 2.93074 67.0939 2.90631 67.0939 2.87646C67.0939 2.84661 66.9836 2.82219 66.8489 2.82219C66.7141 2.82219 66.6038 2.84661 66.6038 2.87646Z" fill="#5A3600"/>
</svg>
