<svg width="32" height="32" viewBox="0 0 32 32" fill="none" xmlns="http://www.w3.org/2000/svg">
<path fill-rule="evenodd" clip-rule="evenodd" d="M16.4225 27.0193C22.7309 27.0193 27.845 21.8663 27.845 15.5097C27.845 9.15305 22.7309 4 16.4225 4C10.114 4 5 9.15305 5 15.5097C5 21.8663 10.114 27.0193 16.4225 27.0193ZM17.3706 7.45312C17.3706 6.92916 16.9458 6.50441 16.4219 6.50441C15.8979 6.50441 15.4732 6.92916 15.4732 7.45312V15.5099C15.4732 15.7726 15.582 16.0235 15.7739 16.2029C15.9658 16.3823 16.2234 16.4741 16.4855 16.4565L25.0523 15.881C25.5751 15.8459 25.9704 15.3936 25.9353 14.8708C25.9002 14.348 25.4479 13.9527 24.9251 13.9878L17.3706 14.4953V7.45312Z" fill="#5A3600"/>
</svg>
