<svg width="32" height="32" viewBox="0 0 32 32" fill="none" xmlns="http://www.w3.org/2000/svg">
<path fill-rule="evenodd" clip-rule="evenodd" d="M16.1904 31.0262C16.1904 31.0262 28.3808 22.8373 28.3808 13.2835C28.3808 10.0257 27.0965 6.90134 24.8103 4.59774C22.5242 2.29415 19.4235 1 16.1904 1C12.9573 1 9.85663 2.29415 7.57049 4.59774C5.28434 6.90134 4 10.0257 4 13.2835C4 22.8373 16.1904 31.0262 16.1904 31.0262ZM20.2529 13.4148C20.2529 15.6761 18.4336 17.5093 16.1894 17.5093C13.9453 17.5093 12.126 15.6761 12.126 13.4148C12.126 11.1535 13.9453 9.32031 16.1894 9.32031C18.4336 9.32031 20.2529 11.1535 20.2529 13.4148Z" fill="#5A3600"/>
</svg>
