<svg width="32" height="32" viewBox="0 0 32 32" fill="none" xmlns="http://www.w3.org/2000/svg">
<path fill-rule="evenodd" clip-rule="evenodd" d="M26.1305 6H5.57006C4.15653 6 3 7.16535 3 8.58968V11.7577C3.19949 11.7576 3.40098 11.8169 3.57639 11.9406L15.8503 20.598L28.1242 11.9406C28.2996 11.8169 28.5011 11.7576 28.7006 11.7577V8.58968C28.7006 7.16535 27.544 6 26.1305 6ZM28.7006 13.9815L16.4267 22.6389C16.0811 22.8826 15.6195 22.8826 15.2739 22.6389L3 13.9815V24.1277C3 25.5521 4.15653 26.7174 5.57006 26.7174H26.1305C27.544 26.7174 28.7006 25.5521 28.7006 24.1277V13.9815Z" fill="#5A3600"/>
</svg>
