<svg width="32" height="32" viewBox="0 0 32 32" fill="none" xmlns="http://www.w3.org/2000/svg">
<path d="M27.485 21.231V24.4946C27.4863 24.7975 27.419 25.0974 27.2872 25.375C27.1555 25.6526 26.9622 25.9018 26.7199 26.1066C26.4776 26.3115 26.1915 26.4674 25.8799 26.5645C25.5684 26.6615 25.2383 26.6976 24.9107 26.6703C21.277 26.3066 17.7866 25.1627 14.7199 23.3306C11.8668 21.6603 9.44782 19.4319 7.63481 16.8034C5.63914 13.9654 4.39719 10.7342 4.00958 7.37164C3.98008 7.07081 4.01888 6.76762 4.12354 6.48136C4.22819 6.19511 4.3964 5.93206 4.61745 5.70898C4.8385 5.48589 5.10755 5.30765 5.40747 5.18561C5.70739 5.06357 6.03161 5.00039 6.35949 5.00011H9.90205C10.4751 4.99491 11.0307 5.18186 11.4652 5.52612C11.8997 5.87038 12.1836 6.34845 12.2638 6.87123C12.4133 7.91565 12.6906 8.94113 13.0904 9.92812C13.2492 10.3175 13.2836 10.7407 13.1894 11.1475C13.0953 11.5543 12.8765 11.9277 12.559 12.2235L11.0593 13.6051C12.7403 16.3286 15.1881 18.5836 18.1444 20.1323L19.6441 18.7507C19.9652 18.4582 20.3705 18.2566 20.8121 18.1699C21.2537 18.0831 21.7131 18.1148 22.1357 18.2611C23.2071 18.6294 24.3202 18.8849 25.4539 19.0226C26.0275 19.0972 26.5514 19.3634 26.9259 19.7705C27.3004 20.1777 27.4994 20.6975 27.485 21.231Z" fill="#5A3600"/>
</svg>
