<svg width="148" height="147" viewBox="0 0 148 147" fill="none" xmlns="http://www.w3.org/2000/svg">
<circle cx="73.5801" cy="73.5" r="73.5" fill="#6E7273"/>
<path d="M33.726 21.256L32.9216 21.2496C32.8408 20.1412 33.2788 19.2591 34.2357 18.6033C34.8846 18.1586 35.4888 17.9789 36.0484 18.0641C36.6299 18.1344 37.1091 18.4444 37.486 18.9943C37.9382 19.6542 38.0001 20.2988 37.6716 20.928C38.0138 20.7905 38.3795 20.7581 38.7688 20.8308C39.3063 20.9311 39.7598 21.2508 40.1291 21.7897C40.604 22.4826 40.7169 23.2134 40.4678 23.9821C40.254 24.6136 39.7952 25.1705 39.0913 25.6529C38.3654 26.1504 37.6602 26.3832 36.9756 26.3513C36.4091 26.303 35.9173 26.1633 35.5001 25.9319L35.834 25.1455C36.2477 25.3953 36.6801 25.5192 37.1313 25.5171C37.6456 25.5364 38.1557 25.3727 38.6617 25.026C39.2226 24.6416 39.5648 24.2211 39.6884 23.7647C39.8444 23.2375 39.7565 22.732 39.4249 22.248C39.1309 21.8191 38.7508 21.5947 38.2846 21.5748C37.885 21.5577 37.4047 21.7414 36.8438 22.1258L36.1509 22.6007L35.7212 21.9737L36.2326 21.6233C36.6616 21.3293 36.933 21.0059 37.0468 20.6531C37.171 20.2447 37.1125 19.8645 36.8713 19.5126C36.6301 19.1606 36.3149 18.9483 35.9256 18.8756C35.5144 18.818 35.0888 18.94 34.6488 19.2415C33.9449 19.7239 33.6373 20.3954 33.726 21.256Z" fill="white"/>
<path d="M46.5271 13.5258L45.9128 12.2455L46.6341 11.8995L50.1642 19.2563L49.4429 19.6024L48.8113 18.2861C48.6347 19.6131 47.9213 20.5766 46.6711 21.1765C45.6734 21.6553 44.6557 21.7073 43.6182 21.3326C42.5806 20.9579 41.7821 20.1876 41.2226 19.0215C40.6746 17.8795 40.561 16.7953 40.8818 15.7688C41.2027 14.7423 41.898 13.9724 42.9679 13.459C44.194 12.8706 45.3805 12.8929 46.5271 13.5258ZM43.3328 14.1269C42.5514 14.5018 42.0138 15.1073 41.7199 15.9434C41.4202 16.7675 41.4983 17.6544 41.9539 18.604C42.375 19.4816 42.9998 20.1209 43.8281 20.522C44.6508 20.9111 45.5069 20.8922 46.3964 20.4653C47.2739 20.0443 47.8152 19.4 48.0201 18.5327C48.2313 17.6475 48.1206 16.7542 47.688 15.8526C47.2092 14.8548 46.5484 14.2328 45.7056 13.9865C44.857 13.7282 44.066 13.775 43.3328 14.1269Z" fill="white"/>
<path d="M52.5479 18.3607L50.1955 10.5472L56.0174 8.7944L58.3698 16.608L57.6038 16.8386L55.4704 9.75276L51.1806 11.0443L53.314 18.1301L52.5479 18.3607Z" fill="white"/>
<path d="M59.0088 8.08949L59.8001 7.97187L60.7616 14.4408L65.4694 6.66418L66.7367 15.1905L65.9454 15.3081L64.9898 8.87875L60.2819 16.6554L59.0088 8.08949Z" fill="white"/>
<path d="M75.6047 7.68993L75.6096 8.74992C74.8321 7.86021 73.89 7.41794 72.7834 7.42311C71.7967 7.42772 70.985 7.77151 70.3482 8.45449C69.7113 9.12414 69.3952 9.96563 69.4 10.9789C69.4051 12.0723 69.7491 12.9307 70.432 13.5542C71.1149 14.1643 71.8963 14.4673 72.7763 14.4632C73.8563 14.4582 74.8406 13.9669 75.7294 12.9894L75.7345 14.0694C74.8847 14.8334 73.8931 15.218 72.7598 15.2233C71.5332 15.229 70.5246 14.8337 69.7342 14.0374C68.9571 13.2277 68.5657 12.2162 68.5601 11.0029C68.5543 9.76289 68.9361 8.73443 69.7057 7.91749C70.4751 7.08722 71.4998 6.66909 72.7798 6.66312C73.8332 6.6582 74.7748 7.00047 75.6047 7.68993Z" fill="white"/>
<path d="M84.6419 9.38113L84.8514 7.97666L85.6426 8.09468L84.4388 16.1654L83.6476 16.0474L83.863 14.6034C82.9724 15.6029 81.8414 16.0004 80.4699 15.7958C79.3753 15.6326 78.5037 15.1049 77.8548 14.2127C77.206 13.3206 76.977 12.2349 77.1678 10.9558C77.3547 9.70294 77.8688 8.7416 78.7101 8.07173C79.5515 7.40185 80.559 7.15445 81.7327 7.32951C83.0778 7.53014 84.0476 8.21401 84.6419 9.38113ZM81.6602 8.08709C80.803 7.95924 80.0182 8.15899 79.306 8.68635C78.5957 9.20053 78.1629 9.97852 78.0075 11.0203C77.8639 11.983 78.0225 12.8627 78.4833 13.6594C78.9462 14.4429 79.6655 14.9075 80.6414 15.053C81.6041 15.1966 82.4135 14.9668 83.0696 14.3637C83.7409 13.7493 84.1504 12.9476 84.2979 11.9586C84.4611 10.864 84.2629 9.97843 83.7033 9.3018C83.1456 8.61198 82.4646 8.20708 81.6602 8.08709Z" fill="white"/>
<path d="M88.4824 17.267L90.5733 10.1686L87.8491 9.36613L88.0638 8.6371L94.2797 10.4681L94.065 11.1971L91.3407 10.3946L89.2498 17.4931L88.4824 17.267Z" fill="white"/>
<path d="M96.0882 11.1565L96.8249 11.4683L95.5 14.5995L97.2866 15.3555C98.1461 15.7192 98.6859 16.2227 98.906 16.866C99.0958 17.4096 99.0634 17.9823 98.8088 18.584C98.523 19.2593 98.0734 19.7061 97.4599 19.9242C96.8936 20.1334 96.2114 20.0692 95.4132 19.7314L92.9083 18.6715L96.0882 11.1565ZM93.9412 18.2833L95.7094 19.0315C96.2251 19.2497 96.6674 19.2993 97.0363 19.1804C97.4996 19.0434 97.8326 18.7355 98.0352 18.2566C98.2483 17.7532 98.2339 17.291 97.9921 16.8702C97.7909 16.5245 97.4386 16.2451 96.9352 16.0321L95.2038 15.2994L93.9412 18.2833Z" fill="white"/>
<path d="M108.736 18.5428L108.2 19.4571C107.984 18.2953 107.4 17.4345 106.445 16.8746C105.594 16.3754 104.72 16.2573 103.824 16.52C102.935 16.7713 102.234 17.334 101.721 18.2081C101.168 19.1512 101.026 20.065 101.296 20.9496C101.572 21.8227 102.09 22.4818 102.849 22.927C103.78 23.4734 104.878 23.5527 106.141 23.1651L105.594 24.0967C104.474 24.3206 103.425 24.1458 102.447 23.5725C101.389 22.9519 100.723 22.0976 100.449 21.0095C100.194 19.9167 100.373 18.847 100.987 17.8004C101.614 16.7308 102.467 16.0408 103.545 15.7305C104.631 15.4086 105.725 15.5715 106.829 16.219C107.738 16.7519 108.373 17.5265 108.736 18.5428Z" fill="white"/>
<path d="M105.601 25.244L109.836 24.0204C109.357 23.6157 109.057 23.1311 108.938 22.5665C108.824 21.9727 108.976 21.407 109.392 20.8692C109.873 20.2472 110.436 19.9237 111.079 19.8988C111.663 19.8624 112.293 20.1054 112.968 20.6277L115.119 22.2927L110.124 28.7453L109.491 28.2556L111.646 25.4721L110.539 24.6152L106.36 25.8316L105.601 25.244ZM112.111 24.8712L114.021 22.404L112.503 21.2287C112.06 20.8859 111.644 20.7156 111.254 20.7176C110.782 20.7398 110.387 20.9564 110.068 21.3676C109.758 21.7683 109.659 22.1801 109.769 22.6032C109.876 22.9889 110.15 23.3531 110.593 23.6959L112.111 24.8712Z" fill="white"/>
<path d="M139.251 74.9187L139.077 77.573C139.027 78.3314 138.829 78.8996 138.484 79.2778C138.067 79.7314 137.532 79.9368 136.88 79.894C136.135 79.8451 135.589 79.5086 135.243 78.8845C135.165 79.2536 134.99 79.5761 134.718 79.8522C134.275 80.2908 133.714 80.4878 133.036 80.4433C132.277 80.3934 131.71 80.0822 131.333 79.5097C130.992 79.0062 130.85 78.3288 130.906 77.4773L131.109 74.3839L139.251 74.9187ZM135.646 75.4837L135.525 77.3397C135.492 77.832 135.58 78.2252 135.788 78.5195C136.032 78.8696 136.38 79.0595 136.833 79.0892C137.272 79.118 137.635 78.9749 137.923 78.6597C138.154 78.4076 138.285 78.0288 138.319 77.5232L138.44 75.6672L135.646 75.4837ZM131.815 75.232L131.664 77.5271C131.624 78.1391 131.713 78.6126 131.931 78.9477C132.199 79.3527 132.592 79.5723 133.111 79.6064C133.59 79.6378 133.981 79.4831 134.284 79.1422C134.544 78.8387 134.695 78.3676 134.737 77.7289L134.888 75.4339L131.815 75.232Z" fill="white"/>
<path d="M138.455 84.1191L138.288 84.9013L134.963 84.1879L134.556 86.0847C134.36 86.9973 133.967 87.622 133.377 87.959C132.878 88.2475 132.31 88.3233 131.671 88.1862C130.954 88.0323 130.431 87.6746 130.101 87.1129C129.789 86.596 129.724 85.9138 129.906 85.0665L130.477 82.407L138.455 84.1191ZM131.052 83.3487L130.649 85.2259C130.532 85.7735 130.566 86.2172 130.752 86.5572C130.974 86.9865 131.339 87.2558 131.847 87.3649C132.382 87.4796 132.833 87.3787 133.201 87.0621C133.503 86.7996 133.711 86.4011 133.826 85.8666L134.22 84.0285L131.052 83.3487ZM137.129 90.2984L136.962 91.0806L128.983 89.3685L129.151 88.5863L137.129 90.2984Z" fill="white"/>
<path d="M134.176 93.6678L134.162 93.7051C134.708 94.2487 135.022 94.8879 135.107 95.6227C135.198 96.3748 135.105 97.1046 134.827 97.8121C134.374 98.9664 133.645 99.7474 132.64 100.155C131.63 100.575 130.536 100.554 129.357 100.091C128.14 99.6138 127.315 98.8529 126.88 97.8084C126.457 96.7688 126.472 95.6718 126.925 94.5175C127.353 93.4253 128.018 92.662 128.919 92.2278C130.079 91.6804 131.603 91.7769 133.489 92.5173C136.543 93.7155 138.273 95.3111 138.679 97.3041C138.72 97.492 138.744 97.6874 138.75 97.8904C138.769 98.0983 138.778 98.274 138.779 98.4176C138.775 98.5736 138.754 98.7731 138.716 99.016C138.691 99.2637 138.665 99.4397 138.638 99.5439C138.624 99.6529 138.593 99.8413 138.545 100.109C138.493 100.389 138.463 100.556 138.456 100.611C138.294 101.607 138.404 102.295 138.785 102.674L138.42 103.605C138.163 103.346 137.964 103.068 137.824 102.769C137.691 102.488 137.614 102.171 137.595 101.82C137.583 101.486 137.584 101.207 137.6 100.984C137.624 100.779 137.661 100.5 137.714 100.148C137.948 98.8217 137.955 97.8003 137.734 97.0837C137.499 96.3325 137.047 95.6608 136.377 95.0685C135.702 94.4885 134.969 94.0217 134.176 93.6678ZM127.632 94.7951C127.213 95.8625 127.228 96.7922 127.677 97.584C128.132 98.3932 128.795 98.9682 129.664 99.3092C130.532 99.6501 131.397 99.6742 132.257 99.3814C133.129 99.0934 133.75 98.4778 134.12 97.5345C134.519 96.5167 134.505 95.5871 134.076 94.7455C133.647 93.904 133.004 93.3152 132.148 92.9792C131.316 92.6528 130.489 92.6075 129.666 92.8431C128.714 93.1143 128.037 93.765 127.632 94.7951Z" fill="white"/>
<path d="M125.622 101.615L120.427 98.4947L120.839 97.8089L131.777 104.38L131.365 105.065L130.148 104.334C130.657 105.558 130.565 106.747 129.871 107.901C129.254 108.93 128.416 109.547 127.36 109.752C126.315 109.964 125.272 109.758 124.232 109.133C123.169 108.495 122.466 107.645 122.124 106.583C121.786 105.541 121.929 104.499 122.554 103.459C122.87 102.933 123.258 102.521 123.718 102.221C124.189 101.929 124.558 101.754 124.826 101.697C125.105 101.647 125.37 101.62 125.622 101.615ZM125.295 102.353C124.424 102.482 123.731 102.976 123.216 103.833C122.701 104.69 122.591 105.534 122.885 106.364C123.18 107.195 123.773 107.877 124.664 108.413C125.59 108.969 126.468 109.139 127.298 108.922C128.14 108.712 128.787 108.23 129.241 107.476C129.687 106.733 129.818 105.932 129.633 105.075C129.441 104.229 128.888 103.531 127.974 102.982C127.071 102.439 126.178 102.23 125.295 102.353Z" fill="white"/>
<path d="M120.359 117.983L121.436 118.908L120.915 119.515L114.722 114.201L115.243 113.594L116.351 114.545C115.979 113.259 116.244 112.09 117.147 111.038C117.867 110.198 118.778 109.74 119.878 109.666C120.979 109.591 122.02 109.975 123.002 110.817C123.963 111.641 124.504 112.588 124.623 113.657C124.743 114.726 124.416 115.711 123.643 116.611C122.758 117.643 121.663 118.101 120.359 117.983ZM123.041 116.147C123.605 115.489 123.853 114.718 123.786 113.835C123.728 112.96 123.3 112.179 122.5 111.493C121.762 110.86 120.932 110.526 120.013 110.492C119.103 110.467 118.327 110.829 117.684 111.578C117.051 112.317 116.815 113.124 116.976 114.001C117.139 114.896 117.6 115.669 118.359 116.32C119.199 117.041 120.054 117.344 120.925 117.23C121.806 117.125 122.511 116.764 123.041 116.147Z" fill="white"/>
<path d="M111.663 117.019L116.582 122.547L118.704 120.659L119.209 121.227L114.369 125.535L113.863 124.967L115.985 123.079L111.065 117.551L111.663 117.019Z" fill="white"/>
<path d="M112.781 126.731L112.126 127.189L110.177 124.404L108.587 125.516C107.822 126.051 107.109 126.241 106.447 126.086C105.886 125.958 105.418 125.627 105.043 125.091C104.623 124.491 104.483 123.872 104.624 123.237C104.747 122.646 105.164 122.102 105.874 121.605L108.103 120.045L112.781 126.731ZM107.883 121.127L106.31 122.228C105.851 122.549 105.574 122.897 105.479 123.273C105.349 123.738 105.433 124.184 105.731 124.61C106.045 125.058 106.444 125.291 106.929 125.31C107.329 125.323 107.753 125.173 108.201 124.859L109.741 123.781L107.883 121.127Z" fill="white"/>
<path d="M95.8626 122.193L95.8498 127.049L102.679 133.156L101.833 133.517L95.8355 128.186L95.9483 136.033L95.1023 136.394L95.0166 122.554L95.8626 122.193Z" fill="white"/>
<path d="M86.4678 137.957L86.1866 136.935C87.1692 137.591 88.194 137.773 89.261 137.479C90.2124 137.218 90.9064 136.674 91.3431 135.849C91.7834 135.036 91.8692 134.141 91.6004 133.164C91.3104 132.11 90.7545 131.371 89.9327 130.947C89.1144 130.536 88.281 130.447 87.4325 130.681C86.3912 130.967 85.5689 131.698 84.9657 132.874L84.6793 131.832C85.3005 130.873 86.1574 130.243 87.2502 129.943C88.4329 129.617 89.5096 129.736 90.4803 130.299C91.4417 130.878 92.0832 131.752 92.405 132.922C92.7339 134.118 92.6334 135.21 92.1034 136.2C91.5771 137.202 90.6968 137.873 89.4626 138.212C88.447 138.491 87.4487 138.406 86.4678 137.957Z" fill="white"/>
<path d="M78.4237 139.984L77.3888 131.89L78.1824 131.788L79.1208 139.129L82.8505 138.652L82.2519 133.97C82.1386 133.084 82.2136 132.409 82.4769 131.945C82.7714 131.41 83.256 131.099 83.9305 131.013C84.0098 131.003 84.1438 130.999 84.3323 131.002L84.4287 131.756C84.2931 131.746 84.1922 131.746 84.126 131.754C83.6764 131.812 83.3487 132.035 83.1431 132.424C82.9951 132.739 82.9626 133.22 83.0454 133.868L83.7404 139.304L78.4237 139.984Z" fill="white"/>
<path d="M74.1933 127.451L72.2218 131.889L76.0054 140.233L75.0855 140.223L71.7498 132.923L68.6859 140.148L67.766 140.138L73.2734 127.441L74.1933 127.451Z" fill="white"/>
<path d="M66.6121 131.748L65.6084 139.846L61.2418 139.305L61.3353 138.551L64.9079 138.994L65.8182 131.65L66.6121 131.748Z" fill="white"/>
<path d="M61.8861 126.422L58.9685 130.303L60.782 139.284L59.8879 139.067L58.2763 131.206L53.6684 137.558L52.7743 137.341L60.992 126.205L61.8861 126.422Z" fill="white"/>
<path d="M45.9242 134.765L45.2085 134.407L48.1319 128.557L39.8146 132.226L43.6677 124.515L44.3833 124.873L41.4779 130.688L49.7951 127.018L45.9242 134.765Z" fill="white"/>
<path d="M32.2725 126.73L36.9268 120.027L37.5839 120.484L33.3631 126.562L36.4515 128.707L39.1437 124.83C39.6532 124.096 40.1611 123.645 40.6673 123.477C41.2444 123.277 41.8122 123.371 42.3707 123.759C42.4364 123.805 42.5383 123.892 42.6765 124.02L42.243 124.644C42.1487 124.546 42.0741 124.478 42.0194 124.44C41.647 124.182 41.2541 124.128 40.8407 124.279C40.5201 124.414 40.1734 124.749 39.8008 125.286L36.6751 129.787L32.2725 126.73Z" fill="white"/>
<path d="M29.542 124.593L28.9581 124.046L33.4289 119.273L24.4105 120.417L30.3032 114.126L30.8871 114.672L26.4437 119.416L35.462 118.272L29.542 124.593Z" fill="white"/>
<path d="M26.4321 109.942L18.1289 113.063L22.5144 106.313L14.5685 107.601L20.7749 101.263L21.2336 101.967L16.6096 106.557L24.0224 105.33L19.9078 111.617L25.9734 109.238L26.4321 109.942Z" fill="white"/>
<path d="M11.397 96.4944L10.0891 97.0476L9.7775 96.3107L17.2929 93.132L17.6045 93.8688L16.2599 94.4376C17.5771 94.6767 18.5058 95.4348 19.0459 96.7119C19.477 97.7311 19.481 98.7501 19.0577 99.7688C18.6344 100.787 17.8272 101.549 16.636 102.053C15.4694 102.546 14.381 102.608 13.3708 102.239C12.3606 101.87 11.6244 101.139 11.1621 100.046C10.6323 98.7939 10.7106 97.6099 11.397 96.4944ZM11.8465 99.7136C12.1841 100.512 12.7636 101.077 13.5849 101.41C14.3939 101.749 15.2834 101.713 16.2536 101.302C17.15 100.923 17.8181 100.329 18.2579 99.5208C18.6854 98.7174 18.707 97.8614 18.3226 96.9527C17.9434 96.0563 17.3255 95.4852 16.4688 95.2395C15.5946 94.9868 14.697 95.0552 13.776 95.4447C12.7568 95.8758 12.1042 96.5065 11.8184 97.3368C11.5203 98.1722 11.5297 98.9645 11.8465 99.7136Z" fill="white"/>
<path d="M7.8566 86.1828L8.88478 85.925C8.20633 86.8924 8.00167 87.9128 8.2708 88.9862C8.51075 89.9433 9.03833 90.6495 9.85356 91.1049C10.6559 91.5636 11.5485 91.6697 12.5314 91.4233C13.5919 91.1574 14.3434 90.6184 14.7859 89.8065C15.2154 88.9977 15.3232 88.1666 15.1092 87.313C14.8465 86.2654 14.1345 85.4267 12.9732 84.7969L14.0207 84.5342C14.9655 85.1771 15.5756 86.0482 15.8512 87.1475C16.1495 88.3374 16.0064 89.4111 15.4217 90.3687C14.8208 91.3166 13.932 91.9381 12.755 92.2332C11.5523 92.5347 10.4624 92.4094 9.48541 91.857C8.4955 91.3079 7.8449 90.4126 7.53362 89.171C7.27746 88.1493 7.38512 87.1532 7.8566 86.1828Z" fill="white"/>
<path d="M14.5436 81.2893L7.19976 82.1995L7.54909 85.0179L6.79486 85.1114L5.99779 78.6806L6.75202 78.5871L7.10135 81.4056L14.4452 80.4953L14.5436 81.2893Z" fill="white"/>
<path d="M10.087 69.298L10.0331 76.2778C11.0464 76.2856 11.8755 75.9787 12.5203 75.357C13.1652 74.7219 13.4911 73.9578 13.498 73.0644C13.503 72.4245 13.3407 71.8565 13.0112 71.3606C12.6683 70.8646 12.2179 70.4812 11.66 70.2102L12.0652 69.5333C12.6495 69.8445 13.1661 70.2951 13.6148 70.8853C14.0503 71.4753 14.2645 72.2237 14.2575 73.1303C14.248 74.3703 13.8404 75.3472 13.0349 76.061C12.216 76.7747 11.1933 77.1268 9.96663 77.1173C8.62 77.1069 7.56968 76.7121 6.81568 75.9329C6.06177 75.1404 5.68899 74.2042 5.69733 73.1242C5.70587 72.0176 6.11963 71.1008 6.9386 70.3737C7.75757 69.6467 8.80704 69.2881 10.087 69.298ZM9.2736 76.2119L9.32054 70.1321C8.49307 70.2324 7.81052 70.5605 7.27288 71.1163C6.73534 71.6589 6.46348 72.3301 6.4573 73.1301C6.45103 73.9434 6.71905 74.6322 7.26138 75.1964C7.79037 75.7605 8.46111 76.099 9.2736 76.2119Z" fill="white"/>
<path d="M12.8857 66.5652L18.859 67.5865L18.7242 68.375L6.14672 66.2245L6.28155 65.436L7.68124 65.6753C6.76241 64.7201 6.41648 63.5788 6.64345 62.2514C6.84569 61.0686 7.40176 60.1897 8.31167 59.6148C9.20843 59.0377 10.2548 58.8514 11.4508 59.0559C12.673 59.2649 13.6364 59.8016 14.3408 60.666C15.0342 61.515 15.2787 62.5375 15.0743 63.7335C14.9709 64.3381 14.7593 64.8632 14.4396 65.3091C14.1068 65.7527 13.8261 66.0496 13.5975 66.1999C13.3557 66.3479 13.1185 66.4697 12.8857 66.5652ZM12.922 65.7597C13.6866 65.3224 14.1532 64.6108 14.3218 63.6251C14.4903 62.6394 14.2866 61.8133 13.7107 61.1467C13.1348 60.4801 12.3343 60.0592 11.3092 59.8839C10.2447 59.7019 9.36498 59.8626 8.6702 60.366C7.96227 60.8672 7.53415 61.5515 7.38583 62.4189C7.23977 63.2732 7.40851 64.0663 7.89207 64.7983C8.37787 65.5171 9.14647 65.9664 10.1979 66.1462C11.2361 66.3237 12.1442 66.1949 12.922 65.7597Z" fill="white"/>
<path d="M11.7699 49.6018L10.4295 49.133L10.6936 48.3779L18.3962 51.0716L18.1321 51.8267L16.7539 51.3448C17.5691 52.4067 17.7477 53.5922 17.29 54.9011C16.9247 55.9457 16.2431 56.7032 15.2452 57.1735C14.2474 57.6438 13.138 57.6654 11.9172 57.2385C10.7215 56.8204 9.87347 56.1353 9.37298 55.1834C8.87249 54.2315 8.81812 53.1955 9.20985 52.0753C9.6588 50.7916 10.5122 49.9671 11.7699 49.6018ZM9.94045 52.2885C9.65435 53.1065 9.70364 53.9148 10.0883 54.7132C10.4604 55.5072 11.1436 56.0781 12.1379 56.4258C13.0566 56.7471 13.9505 56.756 14.8194 56.4525C15.6757 56.1446 16.2667 55.5249 16.5924 54.5936C16.9137 53.6748 16.8396 52.8367 16.37 52.0792C15.8922 51.3047 15.1813 50.7524 14.2374 50.4223C13.1927 50.057 12.2857 50.0858 11.5162 50.5089C10.7342 50.9275 10.2089 51.5207 9.94045 52.2885Z" fill="white"/>
</svg>
