<svg width="146" height="171" viewBox="0 0 146 171" fill="none" xmlns="http://www.w3.org/2000/svg">
<path d="M91.714 77.992L91.3668 79.2772L91.7031 77.992C83.1979 75.6829 74.8771 73.4066 67.8364 70.2807C60.663 67.6279 54.0893 63.564 48.5007 58.3273C42.912 53.0906 38.421 46.7864 35.2908 39.7844C35.0941 41.593 34.9927 43.4108 34.9871 45.2301C34.9871 78.1662 63.9851 86.9121 89.566 94.6343C111.165 101.169 131.561 107.301 131.561 126.797C131.631 132.628 130.039 138.357 126.972 143.309C123.361 150.745 117.741 157.013 110.753 161.398C103.765 165.783 95.6909 168.108 87.4505 168.109H84.5214C83.5125 168.054 82.2215 167.978 81.4079 167.956C61.4338 166.523 42.7335 157.577 29.042 142.906C-9.66549 102.4 4.76307 34.1207 54.8616 10.7475C57.0921 9.67024 59.377 8.7105 61.707 7.8721C65.4904 6.53106 69.4762 5.85672 73.4884 5.87892H73.5535C82.4854 5.86687 91.2721 8.14634 99.0801 12.501C99.9371 12.9802 100.794 13.4268 101.673 13.8625C111.795 18.9488 121.103 29.1106 125.974 46.5371L126.505 48.4867H128.523C129.761 48.5306 130.967 48.0802 131.875 47.2342C132.427 46.7028 132.75 45.9758 132.776 45.2084C133.21 42.5508 134.685 33.3474 135.292 26.5293L135.368 25.56L134.826 24.7649C121.623 5.74822 99.2754 -1.37487 79.9433 0.215296C48.0812 1.19554 18.7577 23.4143 6.7592 52.8869C-6.8123 84.3417 0.412812 122.865 25.2017 146.554C36.9555 157.994 51.7549 165.774 67.8147 168.958C67.8147 168.958 85.3242 173.38 103.615 169.209H103.767C106.676 168.693 109.55 167.991 112.37 167.107C133.416 160.43 146 145.324 146 126.666C146 92.6956 117.165 84.8536 91.7574 77.9375" fill="white"/>
</svg>
