<svg width="180" height="50" viewBox="0 0 180 50" fill="none" xmlns="http://www.w3.org/2000/svg">
<g clip-path="url(#clip0_905_4933)">
<path d="M26.2519 38.1108L26.2038 38.2786L26.2519 38.1108C23.3069 37.3144 20.535 36.5756 20.535 33.6972C20.5106 32.5505 20.9131 31.4354 21.6649 30.5671C22.4168 29.6989 23.4646 29.1391 24.6062 28.9959C26.762 28.7032 29.683 29.7826 30.8091 33.7932L30.8813 34.0474H31.1219C31.2867 34.0535 31.4474 33.995 31.5694 33.8843C31.6037 33.8522 31.6311 33.8136 31.6501 33.7708C31.6692 33.7279 31.6793 33.6817 31.6801 33.6349C31.709 33.4861 31.9303 32.1477 32.017 31.1643V31.0395L31.9448 30.934C29.7985 27.8589 25.8188 27.1489 23.0037 28.0316C21.7455 28.3745 20.639 29.1279 19.8609 30.1715C19.0827 31.2151 18.678 32.4885 18.7112 33.7884C18.7112 38.1059 22.561 39.2669 25.9295 40.2791C28.7832 41.1378 31.4828 41.9438 31.4828 44.5055C31.4828 47.0673 29.3077 48.5832 27.1518 48.8663C24.2068 49.2645 20.7131 47.7341 19.5437 43.4453L19.4571 43.1431L19.1443 43.1959C19.0167 43.1959 18.8943 43.2464 18.804 43.3364C18.7138 43.4264 18.6631 43.5484 18.6631 43.6756L19.0048 47.0001L19.0577 47.0721C20.4532 49.0534 23.0374 50.2383 25.968 50.2383C26.974 50.2404 27.9746 50.0933 28.9371 49.8018C31.7186 48.9239 33.3836 46.9234 33.3836 44.4863C33.3836 40.0249 29.5676 38.9934 26.2038 38.0868" fill="#5A3600"/>
<path d="M54.7019 28.6665C54.75 29.0167 54.8847 29.1462 55.0099 29.1798C55.135 29.2134 55.1879 29.2422 55.2938 29.2757C55.5511 29.317 55.7896 29.4359 55.9771 29.6163C56.0503 29.7785 56.0881 29.9543 56.0881 30.1321C56.0881 30.3098 56.0503 30.4856 55.9771 30.6478L48.5759 47.256L41.0737 30.4655C40.8283 29.6019 41.3047 29.4532 41.8581 29.2805L42.0891 29.2038C42.1987 29.1555 42.29 29.0737 42.3497 28.9701C42.4094 28.8666 42.4344 28.7468 42.4211 28.6281V28.2779H36.6465V28.6281C36.6465 29.0599 36.8919 29.175 36.9545 29.1942L37.0555 29.2326C37.8929 29.4976 38.6003 30.0659 39.0382 30.8253L47.5461 49.9041L47.6376 50.1104H48.7588L57.3149 30.8157C57.7527 30.0493 58.464 29.4755 59.3072 29.2086L59.3842 29.1798C59.4937 29.1315 59.585 29.0497 59.6447 28.9462C59.7045 28.8426 59.7295 28.7228 59.7162 28.6041V28.2539H54.6297L54.7019 28.6665Z" fill="#5A3600"/>
<path d="M73.0221 27.6172C70.7664 27.6172 68.5614 28.284 66.6859 29.5333C64.8104 30.7826 63.3486 32.5583 62.4853 34.6358C61.6221 36.7133 61.3963 38.9994 61.8363 41.2049C62.2764 43.4104 63.3626 45.4362 64.9576 47.0263C66.5526 48.6164 68.5848 49.6992 70.7971 50.1379C73.0095 50.5766 75.3026 50.3515 77.3866 49.4909C79.4706 48.6304 81.2518 47.1731 82.505 45.3034C83.7582 43.4337 84.4271 41.2355 84.4271 38.9868C84.4245 35.9722 83.2221 33.0817 81.0838 30.9501C78.9455 28.8184 76.0461 27.6197 73.0221 27.6172V27.6172ZM73.0221 49.0467C67.6998 49.0467 63.6865 44.7292 63.6865 38.9724C63.6865 33.2156 67.6998 28.8981 73.0221 28.8981C78.3444 28.8981 82.3626 33.2156 82.3626 38.9724C82.3626 44.7292 78.3444 49.0467 73.0221 49.0467Z" fill="#5A3600"/>
<path d="M99.9367 38.5284C100.905 37.9631 101.673 37.1123 102.136 36.0932C102.599 35.0742 102.733 33.9372 102.521 32.8388C102.093 30.6417 100.014 28.0703 95.572 28.0703H87.9302V28.4205C87.9201 28.5313 87.9448 28.6426 88.0008 28.7388C88.0569 28.835 88.1415 28.9116 88.243 28.9578C88.3248 28.9914 88.4355 29.0202 88.5703 29.0586C89.1574 29.2217 90.0476 29.4663 90.1102 30.5649V47.2595C90.1102 48.4828 89.1814 48.7275 88.5606 48.8906L88.2623 48.9769C88.1527 49.0252 88.0614 49.107 88.0017 49.2106C87.942 49.3141 87.9169 49.4339 87.9302 49.5526V49.9028H98.0359C102.444 49.9028 104.561 47.0244 104.667 44.3332C104.763 41.9345 103.324 39.2624 99.9174 38.5284H99.9367ZM92.0254 29.38H95.548C98.9743 29.38 100.533 31.7019 100.533 33.8607C100.543 35.0071 100.101 36.1115 99.3015 36.9357C98.8032 37.4102 98.2138 37.7793 97.5688 38.0208C96.9237 38.2624 96.2364 38.3714 95.548 38.3413H92.0254V29.38ZM98.0118 48.598H93.6808C92.6654 48.598 92.0351 48.3869 91.9966 47.3794V39.6366H98.0118C98.6501 39.6115 99.2864 39.7227 99.8782 39.9626C100.47 40.2025 101.003 40.5657 101.443 41.0278C102.191 41.8807 102.596 42.9796 102.579 44.1125C102.579 46.2713 101.135 48.598 98.0118 48.598Z" fill="#5A3600"/>
<path d="M121.111 27.616C118.855 27.616 116.649 28.2831 114.773 29.5331C112.897 30.783 111.436 32.5596 110.573 34.6379C109.71 36.7163 109.485 39.0031 109.926 41.2089C110.367 43.4148 111.455 45.4407 113.052 47.0302C114.648 48.6197 116.682 49.7014 118.895 50.1384C121.108 50.5755 123.402 50.3483 125.485 49.4856C127.569 48.6228 129.349 47.1633 130.601 45.2917C131.852 43.4201 132.519 41.2205 132.516 38.9712C132.513 35.9565 131.311 33.0661 129.173 30.9344C127.034 28.8028 124.135 27.6041 121.111 27.6016V27.616ZM121.111 49.0455C115.789 49.0455 111.77 44.7279 111.77 38.9712C111.77 33.2144 115.789 28.8968 121.111 28.8968C126.433 28.8968 130.451 33.2144 130.451 38.9712C130.451 44.7279 126.433 49.0455 121.111 49.0455" fill="#5A3600"/>
<path d="M144.281 28.0703H136.659V28.4205C136.649 28.5313 136.673 28.6426 136.729 28.7388C136.785 28.835 136.87 28.9116 136.972 28.9578C137.053 28.9914 137.164 29.0202 137.299 29.0586C137.886 29.2217 138.776 29.4663 138.839 30.5649V47.2595C138.839 48.4828 137.905 48.7275 137.289 48.8906L136.991 48.9769C136.881 49.0252 136.79 49.107 136.73 49.2106C136.67 49.3141 136.645 49.4339 136.659 49.5526V49.9028H144.281C150.59 49.8405 155.527 45.0432 155.527 38.989C155.527 32.9348 150.59 28.1663 144.281 28.0703V28.0703ZM144.127 48.598H142.409C141.572 48.598 140.792 48.4492 140.754 47.3794V29.38H144.122C146.68 29.38 149.132 30.3926 150.94 32.1951C152.748 33.9976 153.764 36.4423 153.764 38.9914C153.764 41.5405 152.748 43.9852 150.94 45.7876C149.132 47.5901 146.68 48.6028 144.122 48.6028" fill="#5A3600"/>
<path d="M179.603 48.9769C178.736 48.7342 177.997 48.1648 177.543 47.389L169.035 28.2814L168.944 28.0703H165.455V28.4205C165.445 28.5338 165.471 28.6473 165.53 28.7447C165.589 28.8421 165.677 28.9184 165.782 28.9626C166.263 29.1301 166.712 29.3766 167.11 29.6918L159.228 47.365C158.778 48.1525 158.034 48.7316 157.159 48.9769C157.049 49.0252 156.958 49.107 156.898 49.2106C156.838 49.3141 156.813 49.4339 156.827 49.5526V49.9028H161.827V49.5526C161.842 49.4374 161.819 49.3204 161.763 49.2186C161.707 49.1168 161.62 49.0355 161.514 48.9865L161.288 48.9098C161.013 48.8234 160.628 48.7083 160.498 48.43C160.405 48.1473 160.425 47.8391 160.556 47.5713L162 44.4003H174.03L175.445 47.5809C175.578 47.8478 175.602 48.1554 175.513 48.4396C175.383 48.6987 175.031 48.8042 174.723 48.9194L174.512 48.9865C174.402 49.0348 174.311 49.1166 174.251 49.2202C174.191 49.3237 174.166 49.4435 174.18 49.5622V49.9124H179.954V49.5622C179.969 49.4433 179.945 49.3228 179.885 49.219C179.825 49.1151 179.733 49.0335 179.622 48.9865L179.603 48.9769ZM162.582 43.1146L167.991 30.9487L173.434 43.1146H162.582Z" fill="#5A3600"/>
<path d="M26.252 12.0418L26.2039 12.2097L26.2472 12.0418C23.3069 11.2503 20.5303 10.4971 20.5303 7.63791C20.5047 6.4909 20.9069 5.3752 21.6589 4.50674C22.411 3.63828 23.4594 3.07881 24.6014 2.93657C26.7573 2.63913 29.6783 3.71853 30.8044 7.73386L30.8765 7.99292H31.122C31.2852 7.99776 31.4439 7.93927 31.5647 7.8298C31.6015 7.79511 31.631 7.75354 31.6517 7.70744C31.6723 7.66134 31.6837 7.61162 31.685 7.56115C31.7427 7.21095 31.94 6.00203 32.017 5.10494V4.98022L31.9448 4.87468C29.7986 1.80441 25.8237 1.0896 23.0038 1.97231C21.7465 2.3167 20.6409 3.07051 19.863 4.11373C19.0852 5.15694 18.6797 6.42959 18.7113 7.72906C18.7113 12.0466 22.561 13.2028 25.9296 14.2198C28.788 15.0737 31.4829 15.8845 31.4829 18.4414C31.4829 20.9984 29.3078 22.5191 27.1519 22.807C24.2068 23.1955 20.7132 21.67 19.5438 17.386L19.4572 17.079L19.1492 17.1318C19.0216 17.1318 18.8992 17.1823 18.8089 17.2723C18.7187 17.3622 18.668 17.4843 18.668 17.6115L19.0096 20.9312L19.0626 21.0032C20.4581 22.9893 23.0423 24.1694 25.9729 24.1694C26.979 24.1739 27.9801 24.0267 28.942 23.7329C31.7235 22.8549 33.3885 20.8545 33.3885 18.4174C33.3885 13.956 29.5724 12.9293 26.2087 12.0178" fill="#5A3600"/>
<path d="M81.7952 20.3575H81.3139C81.2011 20.3486 81.0883 20.3747 80.9909 20.4322C80.8936 20.4898 80.8165 20.5759 80.7702 20.6789C80.6258 21.0627 79.8077 22.4779 78.2871 22.5307H70.78C70.5163 22.5348 70.2525 22.5203 69.9908 22.4875C69.9327 22.4631 69.8709 22.4485 69.808 22.4443C69.7403 22.422 69.6743 22.3947 69.6107 22.3627L69.3893 22.2044C69.3524 22.1739 69.32 22.1384 69.293 22.0989L69.2497 22.0365C69.2348 22.0198 69.2233 22.0002 69.2161 21.979C69.1974 21.9441 69.1765 21.9104 69.1535 21.8782L69.0957 21.7295C69.0779 21.6751 69.0665 21.6187 69.0621 21.5616C69.0621 21.5088 69.0621 21.4705 69.0621 21.4417V4.512C69.1054 3.38943 69.9716 3.15916 70.6068 2.99125L70.9099 2.9001C71.0164 2.85729 71.1061 2.78146 71.1659 2.68382C71.2257 2.58619 71.2524 2.47195 71.242 2.35802V2.00781H64.9861V2.35802C64.9763 2.46817 65.0012 2.57862 65.0573 2.67404C65.1133 2.76947 65.1978 2.84512 65.2989 2.89051C65.4055 2.93159 65.5149 2.96525 65.6262 2.99125C66.2132 3.15436 67.1083 3.39903 67.166 4.49761V21.1922C67.166 22.4155 66.2373 22.6602 65.6213 22.8233C65.5184 22.8471 65.4171 22.8775 65.3182 22.9144C65.2085 22.9612 65.1169 23.0421 65.0571 23.1449C64.9972 23.2478 64.9724 23.3672 64.9861 23.4853V23.8355H80.6884L81.7952 20.3575Z" fill="#5A3600"/>
<path d="M116.553 23.4853C116.567 23.3695 116.545 23.2521 116.487 23.1503C116.43 23.0484 116.342 22.9675 116.235 22.9192C116.129 22.8787 116.02 22.8466 115.908 22.8233C115.268 22.6506 114.387 22.4203 114.344 21.3121V5.53862L115.552 7.11693C127.183 22.334 127.419 22.665 128.328 23.7348L128.463 23.8355H129.527V4.40646C129.608 3.37984 130.451 3.15436 131.067 2.99125C131.192 2.95767 131.307 2.92889 131.379 2.9001C131.485 2.85666 131.575 2.78069 131.634 2.68321C131.694 2.58573 131.721 2.47183 131.711 2.35802V2.00781H126.028V2.35802C126.017 2.46773 126.041 2.57807 126.096 2.67358C126.152 2.76908 126.235 2.84495 126.336 2.89051C126.449 2.93499 126.565 2.97186 126.683 3.00086C127.265 3.15917 128.069 3.38464 128.208 4.25775V20.4822L114.166 2.00781H110.855V2.35802C110.845 2.46817 110.87 2.57862 110.926 2.67404C110.982 2.76947 111.067 2.84512 111.168 2.89051C111.275 2.93159 111.384 2.96525 111.495 2.99125C112.082 3.15436 112.973 3.39903 113.035 4.49761V21.1922C113.035 22.4155 112.106 22.6602 111.49 22.8233C111.388 22.8471 111.286 22.8775 111.187 22.9144C111.078 22.9612 110.986 23.0421 110.926 23.1449C110.866 23.2478 110.841 23.3672 110.855 23.4853V23.8355H116.553V23.4853Z" fill="#5A3600"/>
<path d="M59.2926 22.9144C58.4261 22.6674 57.6884 22.097 57.2329 21.3217L48.6768 2.10855L48.6287 2.00781H45.1447V2.35802C45.1354 2.46994 45.1614 2.58195 45.2193 2.67832C45.2771 2.77469 45.3638 2.85058 45.4671 2.89532C45.9471 3.06388 46.3958 3.31024 46.7953 3.6245L38.9177 21.3025C38.4641 22.0873 37.722 22.6654 36.8484 22.9144C36.7388 22.9612 36.6472 23.042 36.5874 23.1449C36.5275 23.2478 36.5026 23.3672 36.5164 23.4853V23.8355H41.5163V23.4853C41.5309 23.3695 41.5079 23.2521 41.4507 23.1503C41.3936 23.0484 41.3053 22.9675 41.1987 22.9192C41.1263 22.8896 41.0525 22.864 40.9773 22.8425C40.6982 22.7609 40.318 22.641 40.1881 22.3627C40.0945 22.0815 40.1153 21.775 40.2459 21.5088L47.6615 4.867L55.1011 21.5184C55.2328 21.7841 55.2553 22.0905 55.1637 22.3723C55.0386 22.6314 54.6825 22.7369 54.3649 22.8521C54.2976 22.8699 54.2317 22.8923 54.1676 22.9192C54.0579 22.966 53.9663 23.0469 53.9065 23.1497C53.8467 23.2526 53.8218 23.372 53.8355 23.4901V23.8403H59.6102V23.4901C59.6239 23.372 59.5991 23.2526 59.5392 23.1497C59.4794 23.0469 59.3878 22.966 59.2781 22.9192" fill="#5A3600"/>
<path d="M7.06088 44.1021C6.77207 44.0949 6.48648 44.1639 6.23298 44.302C5.97949 44.4402 5.76708 44.6426 5.61721 44.8888C5.4683 44.6977 5.27692 44.5436 5.05814 44.4387C4.83936 44.3338 4.59916 44.281 4.35642 44.2844C4.13096 44.2829 3.90754 44.327 3.69963 44.4139C3.49172 44.5009 3.30363 44.6289 3.14669 44.7903C2.98976 44.9517 2.86723 45.1431 2.7865 45.3529C2.70576 45.5628 2.6685 45.7868 2.67695 46.0114V49.1344H8.85102V45.9011C8.85755 45.6647 8.81598 45.4294 8.72882 45.2095C8.64166 44.9895 8.51071 44.7895 8.34388 44.6213C8.17704 44.4532 7.97777 44.3205 7.75809 44.2313C7.53841 44.1421 7.30288 44.0981 7.06569 44.1021H7.06088ZM3.50946 48.2949V46.0306C3.50551 45.9125 3.52576 45.7949 3.56897 45.6849C3.61218 45.5749 3.67745 45.4749 3.76079 45.3909C3.84412 45.3069 3.94377 45.2408 4.05364 45.1965C4.1635 45.1523 4.28126 45.1308 4.39973 45.1335C4.5165 45.1307 4.6326 45.152 4.7408 45.1958C4.849 45.2397 4.94699 45.3053 5.02868 45.3885C5.11037 45.4718 5.17402 45.5709 5.21566 45.6797C5.2573 45.7885 5.27605 45.9047 5.27073 46.021V48.2949H3.50946ZM6.10805 48.2949V45.8963C6.10805 45.6418 6.20945 45.3977 6.38995 45.2178C6.57044 45.0379 6.81524 44.9368 7.07049 44.9368C7.32575 44.9368 7.57055 45.0379 7.75104 45.2178C7.93154 45.3977 8.03294 45.6418 8.03294 45.8963V48.2949H6.10805Z" fill="#5A3600"/>
<path d="M8.04266 39.6891H6.09852V36.2591H5.27564V39.6891H3.51918V36H2.69629V40.5286H8.87036V36H8.04266V39.6891Z" fill="#5A3600"/>
<path d="M2.69629 30.3392L8.87036 33.0593V32.1238L7.02728 31.3274V28.6074L8.87036 27.811V26.8516L2.69629 29.5716V30.3392ZM6.20439 28.972V30.9676L3.90897 29.965L6.20439 28.972Z" fill="#5A3600"/>
<path d="M6.31988 18.8227H2.69629V19.6622H6.27657C6.51593 19.6498 6.75533 19.686 6.98019 19.7687C7.20505 19.8515 7.41067 19.979 7.58452 20.1434C7.75837 20.3079 7.89681 20.506 7.99142 20.7255C8.08603 20.9451 8.13481 21.1815 8.13481 21.4205C8.13481 21.6594 8.08603 21.8958 7.99142 22.1154C7.89681 22.3349 7.75837 22.533 7.58452 22.6975C7.41067 22.8619 7.20505 22.9894 6.98019 23.0722C6.75533 23.1549 6.51593 23.1911 6.27657 23.1787H2.69629V24.0182H6.31988C6.6715 24.0332 7.02255 23.9772 7.35187 23.8535C7.6812 23.7297 7.98199 23.5408 8.23614 23.2981C8.49029 23.0554 8.69254 22.7639 8.83071 22.4412C8.96887 22.1185 9.04011 21.7713 9.04011 21.4205C9.04011 21.0696 8.96887 20.7224 8.83071 20.3997C8.69254 20.077 8.49029 19.7855 8.23614 19.5428C7.98199 19.3001 7.6812 19.1112 7.35187 18.9874C7.02255 18.8637 6.6715 18.8076 6.31988 18.8227" fill="#5A3600"/>
<path d="M3.51918 13.4471H8.87036V12.5979H3.51918V10.3672H2.69629V15.6826H3.51918V13.4471Z" fill="#5A3600"/>
<path d="M8.87036 5.39388V4.55435H6.19477L2.69629 1.90625V2.95206L5.40556 4.96691L2.69629 6.99137V8.04198L6.22364 5.39388H8.87036Z" fill="#5A3600"/>
<path d="M13.7891 1.72656H12.9277V49.0807H13.7891V1.72656Z" fill="#5A3600"/>
<path d="M98.6857 3.40635L96.9004 6.38548H98.5365L99.9754 3.98203L100.279 3.47352L102.449 -0.148438H100.813L99.0274 2.83548L98.6857 3.40635Z" fill="#5A3600"/>
<path d="M101.905 3.47086L101.144 4.74694C102.35 5.73249 103.314 6.97947 103.963 8.39281C104.611 9.80616 104.928 11.3485 104.888 12.9023C104.888 18.6591 100.875 22.9767 95.5524 22.9767C90.2301 22.9767 86.2119 18.6591 86.2119 12.9023C86.2119 7.14559 90.2253 2.82802 95.5524 2.82802C96.1323 2.82996 96.7107 2.88618 97.28 2.99593L97.997 1.7966C95.2232 1.18852 92.3217 1.63401 89.86 3.04594C87.3983 4.45786 85.5536 6.73463 84.6868 9.43079C83.82 12.127 83.9934 15.0485 85.1732 17.6239C86.353 20.1993 88.4542 22.2433 91.0658 23.3558C93.6774 24.4684 96.6114 24.5696 99.2939 23.6395C101.976 22.7095 104.214 20.8152 105.57 18.3272C106.925 15.8393 107.301 12.9366 106.623 10.1872C105.945 7.43776 104.262 5.03938 101.905 3.46127" fill="#5A3600"/>
</g>
<defs>
<clipPath id="clip0_905_4933">
<rect width="180" height="50" fill="white"/>
</clipPath>
</defs>
</svg>
