<svg width="26" height="25" viewBox="0 0 26 25" fill="none" xmlns="http://www.w3.org/2000/svg">
<path d="M1.5 12C0.947715 12 0.5 12.4477 0.5 13C0.5 13.5523 0.947715 14 1.5 14V12ZM1.5 14C1.50262 14 1.5053 14 1.50803 14C1.51076 14 1.51355 14 1.51638 14C1.51922 14 1.52211 14 1.52505 14C1.52799 14 1.53098 14 1.53403 14C1.53708 14 1.54017 14 1.54332 14C1.54647 14 1.54968 14 1.55293 14C1.55618 14 1.55949 14 1.56285 14C1.56621 14 1.56962 14 1.57308 14C1.57654 14 1.58005 14 1.58362 14C1.58718 14 1.5908 14 1.59446 14C1.59813 14 1.60185 14 1.60562 14C1.60939 14 1.61321 14 1.61708 14C1.62095 14 1.62488 14 1.62885 14C1.63282 14 1.63685 14 1.64092 14C1.645 14 1.64912 14 1.6533 14C1.65748 14 1.6617 14 1.66598 14C1.67026 14 1.67458 14 1.67896 14C1.68334 14 1.68777 14 1.69225 14C1.69672 14 1.70125 14 1.70583 14C1.71041 14 1.71503 14 1.71971 14C1.72439 14 1.72911 14 1.73389 14C1.73867 14 1.74349 14 1.74837 14C1.75324 14 1.75817 14 1.76314 14C1.76812 14 1.77314 14 1.77821 14C1.78328 14 1.78841 14 1.79358 14C1.79875 14 1.80396 14 1.80923 14C1.8145 14 1.81982 14 1.82518 14C1.83055 14 1.83596 14 1.84142 14C1.84688 14 1.85239 14 1.85795 14C1.86351 14 1.86912 14 1.87477 14C1.88043 14 1.88613 14 1.89188 14C1.89763 14 1.90343 14 1.90928 14C1.91512 14 1.92102 14 1.92696 14C1.9329 14 1.93889 14 1.94493 14C1.95097 14 1.95705 14 1.96318 14C1.96931 14 1.97549 14 1.98172 14C1.98794 14 1.99422 14 2.00054 14C2.00686 14 2.01322 14 2.01964 14C2.02605 14 2.03251 14 2.03902 14C2.04553 14 2.05208 14 2.05868 14C2.06528 14 2.07193 14 2.07862 14C2.08531 14 2.09205 14 2.09884 14C2.10563 14 2.11246 14 2.11933 14C2.12621 14 2.13314 14 2.14011 14C2.14707 14 2.15409 14 2.16115 14C2.16821 14 2.17532 14 2.18247 14C2.18962 14 2.19682 14 2.20406 14C2.21131 14 2.21859 14 2.22593 14C2.23326 14 2.24064 14 2.24806 14C2.25549 14 2.26296 14 2.27047 14C2.27798 14 2.28554 14 2.29314 14C2.30075 14 2.3084 14 2.31609 14C2.32378 14 2.33152 14 2.3393 14C2.34708 14 2.3549 14 2.36277 14C2.37064 14 2.37856 14 2.38652 14C2.39447 14 2.40248 14 2.41052 14C2.41857 14 2.42666 14 2.43479 14C2.44293 14 2.4511 14 2.45932 14C2.46754 14 2.47581 14 2.48412 14C2.49242 14 2.50078 14 2.50917 14C2.51756 14 2.526 14 2.53448 14C2.54296 14 2.55149 14 2.56005 14C2.56862 14 2.57723 14 2.58588 14C2.59454 14 2.60323 14 2.61197 14C2.62071 14 2.62949 14 2.63831 14C2.64713 14 2.656 14 2.66491 14C2.67381 14 2.68276 14 2.69175 14C2.70075 14 2.70978 14 2.71886 14C2.72793 14 2.73705 14 2.74621 14C2.75537 14 2.76457 14 2.77381 14C2.78306 14 2.79234 14 2.80167 14C2.81099 14 2.82036 14 2.82977 14C2.83918 14 2.84863 14 2.85812 14C2.86761 14 2.87715 14 2.88672 14C2.89629 14 2.90591 14 2.91556 14C2.92522 14 2.93491 14 2.94465 14C2.95439 14 2.96417 14 2.97398 14C2.9838 14 2.99366 14 3.00356 14C3.01346 14 3.0234 14 3.03338 14C3.04336 14 3.05338 14 3.06344 14C3.07349 14 3.08359 14 3.09373 14C3.10387 14 3.11405 14 3.12427 14C3.13449 14 3.14475 14 3.15505 14C3.16535 14 3.17568 14 3.18606 14C3.19644 14 3.20685 14 3.21731 14C3.22776 14 3.23826 14 3.24879 14C3.25933 14 3.2699 14 3.28051 14C3.29112 14 3.30177 14 3.31246 14C3.32315 14 3.33388 14 3.34465 14C3.35542 14 3.36622 14 3.37706 14C3.38791 14 3.39879 14 3.40971 14C3.42063 14 3.43159 14 3.44259 14C3.45358 14 3.46462 14 3.47569 14C3.48676 14 3.49787 14 3.50902 14C3.52017 14 3.53136 14 3.54258 14C3.5538 14 3.56506 14 3.57636 14C3.58766 14 3.599 14 3.61037 14C3.62174 14 3.63316 14 3.6446 14C3.65605 14 3.66754 14 3.67906 14C3.69058 14 3.70214 14 3.71373 14C3.72533 14 3.73696 14 3.74863 14C3.7603 14 3.77201 14 3.78375 14C3.79549 14 3.80727 14 3.81908 14C3.8309 14 3.84275 14 3.85464 14C3.86652 14 3.87845 14 3.89041 14C3.90237 14 3.91436 14 3.92639 14C3.93842 14 3.95049 14 3.96259 14C3.9747 14 3.98684 14 3.99901 14C4.01118 14 4.02339 14 4.03564 14C4.04788 14 4.06016 14 4.07248 14C4.08479 14 4.09714 14 4.10953 14C4.12191 14 4.13433 14 4.14679 14C4.15924 14 4.17173 14 4.18426 14C4.19678 14 4.20934 14 4.22194 14C4.23453 14 4.24716 14 4.25982 14C4.27249 14 4.28518 14 4.29792 14C4.31065 14 4.32341 14 4.33621 14C4.34901 14 4.36185 14 4.37471 14C4.38758 14 4.40048 14 4.41342 14C4.42635 14 4.43932 14 4.45233 14C4.46533 14 4.47836 14 4.49143 14C4.5045 14 4.51761 14 4.53074 14C4.54388 14 4.55705 14 4.57025 14C4.58345 14 4.59669 14 4.60996 14C4.62323 14 4.63653 14 4.64986 14C4.6632 14 4.67656 14 4.68996 14C4.70336 14 4.71679 14 4.73026 14C4.74372 14 4.75722 14 4.77075 14C4.78428 14 4.79784 14 4.81143 14C4.82503 14 4.83865 14 4.85231 14C4.86597 14 4.87966 14 4.89338 14C4.9071 14 4.92086 14 4.93464 14C4.94843 14 4.96224 14 4.97609 14C4.98994 14 5.00382 14 5.01773 14C5.03164 14 5.04558 14 5.05955 14C5.07353 14 5.08753 14 5.10157 14C5.1156 14 5.12967 14 5.14377 14C5.15786 14 5.17199 14 5.18615 14C5.20031 14 5.2145 14 5.22872 14C5.24294 14 5.25719 14 5.27147 14C5.28575 14 5.30006 14 5.3144 14C5.32874 14 5.34311 14 5.35751 14C5.37192 14 5.38635 14 5.40081 14C5.41527 14 5.42976 14 5.44428 14C5.4588 14 5.47335 14 5.48793 14C5.50251 14 5.51712 14 5.53176 14C5.5464 14 5.56107 14 5.57576 14C5.59046 14 5.60519 14 5.61994 14C5.6347 14 5.64948 14 5.6643 14C5.67911 14 5.69395 14 5.70883 14C5.7237 14 5.7386 14 5.75353 14C5.76845 14 5.78341 14 5.7984 14C5.81338 14 5.8284 14 5.84344 14C5.85848 14 5.87355 14 5.88865 14C5.90375 14 5.91887 14 5.93403 14C5.94918 14 5.96436 14 5.97957 14C5.99478 14 6.01002 14 6.02529 14C6.04055 14 6.05585 14 6.07117 14C6.08649 14 6.10184 14 6.11721 14C6.13259 14 6.14799 14 6.16342 14C6.17885 14 6.1943 14 6.20979 14C6.22527 14 6.24078 14 6.25632 14C6.27186 14 6.28742 14 6.30301 14C6.3186 14 6.33422 14 6.34986 14C6.36551 14 6.38118 14 6.39687 14C6.41257 14 6.42829 14 6.44404 14C6.45979 14 6.47557 14 6.49137 14C6.50717 14 6.523 14 6.53885 14C6.5547 14 6.57058 14 6.58649 14C6.60239 14 6.61832 14 6.63428 14C6.65023 14 6.66621 14 6.68222 14C6.69823 14 6.71426 14 6.73032 14C6.74637 14 6.76245 14 6.77856 14C6.79467 14 6.8108 14 6.82696 14C6.84312 14 6.8593 14 6.8755 14C6.89171 14 6.90794 14 6.9242 14C6.94045 14 6.95673 14 6.97304 14C6.98934 14 7.00567 14 7.02203 14C7.03838 14 7.05476 14 7.07116 14C7.08756 14 7.10399 14 7.12043 14C7.13688 14 7.15336 14 7.16985 14C7.18635 14 7.20287 14 7.21942 14C7.23596 14 7.25253 14 7.26912 14C7.28571 14 7.30233 14 7.31896 14C7.3356 14 7.35226 14 7.36895 14C7.38563 14 7.40234 14 7.41907 14C7.4358 14 7.45255 14 7.46933 14C7.48611 14 7.5029 14 7.51973 14C7.53655 14 7.55339 14 7.57026 14C7.58712 14 7.60401 14 7.62092 14C7.63783 14 7.65477 14 7.67172 14C7.68868 14 7.70566 14 7.72266 14C7.73966 14 7.75668 14 7.77372 14C7.79076 14 7.80783 14 7.82492 14C7.842 14 7.85911 14 7.87624 14C7.89337 14 7.91052 14 7.92769 14C7.94487 14 7.96206 14 7.97927 14C7.99649 14 8.01373 14 8.03098 14C8.04824 14 8.06552 14 8.08282 14C8.10012 14 8.11744 14 8.13478 14C8.15212 14 8.16948 14 8.18686 14C8.20424 14 8.22164 14 8.23907 14C8.25649 14 8.27393 14 8.29139 14C8.30886 14 8.32634 14 8.34384 14C8.36135 14 8.37887 14 8.39641 14C8.41395 14 8.43152 14 8.4491 14C8.46668 14 8.48428 14 8.50191 14C8.51953 14 8.53717 14 8.55483 14C8.57249 14 8.59017 14 8.60787 14C8.62557 14 8.64329 14 8.66102 14C8.67876 14 8.69652 14 8.71429 14C8.73207 14 8.74986 14 8.76768 14C8.78549 14 8.80332 14 8.82117 14C8.83902 14 8.85689 14 8.87478 14C8.89266 14 8.91057 14 8.92849 14C8.94642 14 8.96436 14 8.98232 14C9.00028 14 9.01826 14 9.03626 14C9.05425 14 9.07227 14 9.0903 14C9.10833 14 9.12638 14 9.14445 14C9.16251 14 9.1806 14 9.1987 14C9.2168 14 9.23492 14 9.25306 14C9.2712 14 9.28935 14 9.30752 14C9.32569 14 9.34388 14 9.36209 14C9.38029 14 9.39851 14 9.41675 14C9.43499 14 9.45325 14 9.47152 14C9.48979 14 9.50808 14 9.52639 14C9.54469 14 9.56302 14 9.58135 14C9.59969 14 9.61805 14 9.63642 14C9.65479 14 9.67318 14 9.69158 14C9.70998 14 9.7284 14 9.74684 14C9.76527 14 9.78372 14 9.80219 14C9.82065 14 9.83914 14 9.85763 14C9.87613 14 9.89464 14 9.91317 14C9.9317 14 9.95024 14 9.9688 14C9.98736 14 10.0059 14 10.0245 14C10.0431 14 10.0617 14 10.0803 14C10.099 14 10.1176 14 10.1362 14C10.1549 14 10.1735 14 10.1922 14C10.2109 14 10.2296 14 10.2483 14C10.267 14 10.2857 14 10.3045 14C10.3232 14 10.3419 14 10.3607 14C10.3795 14 10.3983 14 10.417 14C10.4358 14 10.4546 14 10.4735 14C10.4923 14 10.5111 14 10.53 14C10.5488 14 10.5677 14 10.5865 14C10.6054 14 10.6243 14 10.6432 14C10.6621 14 10.681 14 10.6999 14C10.7189 14 10.7378 14 10.7568 14C10.7757 14 10.7947 14 10.8136 14C10.8326 14 10.8516 14 10.8706 14C10.8896 14 10.9086 14 10.9277 14C10.9467 14 10.9657 14 10.9848 14C11.0038 14 11.0229 14 11.042 14C11.0611 14 11.0801 14 11.0992 14C11.1184 14 11.1375 14 11.1566 14C11.1757 14 11.1949 14 11.214 14C11.2331 14 11.2523 14 11.2715 14C11.2907 14 11.3098 14 11.329 14C11.3482 14 11.3674 14 11.3866 14C11.4059 14 11.4251 14 11.4443 14C11.4636 14 11.4828 14 11.5021 14C11.5213 14 11.5406 14 11.5599 14C11.5792 14 11.5985 14 11.6178 14C11.6371 14 11.6564 14 11.6757 14C11.695 14 11.7144 14 11.7337 14C11.7531 14 11.7724 14 11.7918 14C11.8111 14 11.8305 14 11.8499 14C11.8693 14 11.8887 14 11.9081 14C11.9275 14 11.9469 14 11.9663 14C11.9858 14 12.0052 14 12.0246 14C12.0441 14 12.0635 14 12.083 14C12.1024 14 12.1219 14 12.1414 14C12.1609 14 12.1804 14 12.1999 14C12.2194 14 12.2389 14 12.2584 14C12.2779 14 12.2974 14 12.3169 14C12.3365 14 12.356 14 12.3756 14C12.3951 14 12.4147 14 12.4342 14C12.4538 14 12.4734 14 12.493 14C12.5125 14 12.5321 14 12.5517 14C12.5713 14 12.5909 14 12.6105 14C12.6302 14 12.6498 14 12.6694 14C12.689 14 12.7087 14 12.7283 14C12.748 14 12.7676 14 12.7873 14C12.8069 14 12.8266 14 12.8463 14C12.8659 14 12.8856 14 12.9053 14C12.925 14 12.9447 14 12.9644 14C12.9841 14 13.0038 14 13.0235 14C13.0432 14 13.063 14 13.0827 14C13.1024 14 13.1221 14 13.1419 14C13.1616 14 13.1814 14 13.2011 14C13.2209 14 13.2406 14 13.2604 14C13.2802 14 13.2999 14 13.3197 14C13.3395 14 13.3593 14 13.3791 14C13.3988 14 13.4186 14 13.4384 14C13.4582 14 13.478 14 13.4979 14C13.5177 14 13.5375 14 13.5573 14C13.5771 14 13.5969 14 13.6168 14C13.6366 14 13.6564 14 13.6763 14C13.6961 14 13.716 14 13.7358 14C13.7557 14 13.7755 14 13.7954 14C13.8152 14 13.8351 14 13.855 14C13.8748 14 13.8947 14 13.9146 14C13.9345 14 13.9544 14 13.9742 14C13.9941 14 14.014 14 14.0339 14C14.0538 14 14.0737 14 14.0936 14C14.1135 14 14.1334 14 14.1533 14C14.1732 14 14.1931 14 14.213 14C14.233 14 14.2529 14 14.2728 14C14.2927 14 14.3126 14 14.3326 14C14.3525 14 14.3724 14 14.3924 14C14.4123 14 14.4322 14 14.4522 14C14.4721 14 14.4921 14 14.512 14C14.5319 14 14.5519 14 14.5718 14C14.5918 14 14.6117 14 14.6317 14C14.6517 14 14.6716 14 14.6916 14C14.7115 14 14.7315 14 14.7515 14C14.7714 14 14.7914 14 14.8113 14C14.8313 14 14.8513 14 14.8713 14C14.8912 14 14.9112 14 14.9312 14C14.9511 14 14.9711 14 14.9911 14C15.0111 14 15.031 14 15.051 14C15.071 14 15.091 14 15.111 14C15.1309 14 15.1509 14 15.1709 14C15.1909 14 15.2109 14 15.2309 14C15.2508 14 15.2708 14 15.2908 14C15.3108 14 15.3308 14 15.3508 14C15.3708 14 15.3907 14 15.4107 14C15.4307 14 15.4507 14 15.4707 14C15.4907 14 15.5107 14 15.5306 14C15.5506 14 15.5706 14 15.5906 14C15.6106 14 15.6306 14 15.6506 14C15.6705 14 15.6905 14 15.7105 14C15.7305 14 15.7505 14 15.7705 14C15.7905 14 15.8104 14 15.8304 14C15.8504 14 15.8704 14 15.8904 14C15.9103 14 15.9303 14 15.9503 14C15.9703 14 15.9902 14 16.0102 14C16.0302 14 16.0502 14 16.0701 14C16.0901 14 16.1101 14 16.13 14C16.15 14 16.17 14 16.1899 14C16.2099 14 16.2299 14 16.2498 14C16.2698 14 16.2897 14 16.3097 14C16.3296 14 16.3496 14 16.3696 14C16.3895 14 16.4094 14 16.4294 14C16.4493 14 16.4693 14 16.4892 14C16.5092 14 16.5291 14 16.549 14C16.569 14 16.5889 14 16.6088 14C16.6288 14 16.6487 14 16.6686 14C16.6885 14 16.7085 14 16.7284 14C16.7483 14 16.7682 14 16.7881 14C16.808 14 16.8279 14 16.8478 14C16.8677 14 16.8876 14 16.9075 14C16.9274 14 16.9473 14 16.9672 14C16.9871 14 17.007 14 17.0268 14C17.0467 14 17.0666 14 17.0865 14C17.1063 14 17.1262 14 17.1461 14C17.1659 14 17.1858 14 17.2056 14C17.2255 14 17.2453 14 17.2652 14C17.285 14 17.3048 14 17.3247 14C17.3445 14 17.3643 14 17.3842 14C17.404 14 17.4238 14 17.4436 14C17.4634 14 17.4832 14 17.503 14C17.5228 14 17.5426 14 17.5624 14C17.5822 14 17.602 14 17.6218 14C17.6416 14 17.6613 14 17.6811 14C17.7009 14 17.7206 14 17.7404 14C17.7601 14 17.7799 14 17.7996 14C17.8194 14 17.8391 14 17.8588 14C17.8786 14 17.8983 14 17.918 14C17.9377 14 17.9574 14 17.9771 14C17.9968 14 18.0165 14 18.0362 14C18.0559 14 18.0756 14 18.0953 14C18.1149 14 18.1346 14 18.1543 14C18.1739 14 18.1936 14 18.2132 14C18.2329 14 18.2525 14 18.2722 14C18.2918 14 18.3114 14 18.331 14C18.3506 14 18.3702 14 18.3898 14C18.4094 14 18.429 14 18.4486 14C18.4682 14 18.4878 14 18.5074 14C18.5269 14 18.5465 14 18.566 14C18.5856 14 18.6051 14 18.6247 14C18.6442 14 18.6637 14 18.6832 14C18.7028 14 18.7223 14 18.7418 14C18.7613 14 18.7808 14 18.8002 14C18.8197 14 18.8392 14 18.8587 14C18.8781 14 18.8976 14 18.917 14C18.9365 14 18.9559 14 18.9753 14C18.9948 14 19.0142 14 19.0336 14C19.053 14 19.0724 14 19.0918 14C19.1112 14 19.1306 14 19.1499 14C19.1693 14 19.1887 14 19.208 14C19.2273 14 19.2467 14 19.266 14C19.2853 14 19.3047 14 19.324 14C19.3433 14 19.3626 14 19.3819 14C19.4011 14 19.4204 14 19.4397 14C19.4589 14 19.4782 14 19.4974 14C19.5167 14 19.5359 14 19.5551 14C19.5744 14 19.5936 14 19.6128 14C19.632 14 19.6512 14 19.6703 14C19.6895 14 19.7087 14 19.7278 14C19.747 14 19.7661 14 19.7852 14C19.8044 14 19.8235 14 19.8426 14C19.8617 14 19.8808 14 19.8999 14C19.919 14 19.938 14 19.9571 14C19.9761 14 19.9952 14 20.0142 14C20.0333 14 20.0523 14 20.0713 14C20.0903 14 20.1093 14 20.1283 14C20.1472 14 20.1662 14 20.1852 14C20.2041 14 20.2231 14 20.242 14C20.2609 14 20.2799 14 20.2988 14C20.3177 14 20.3366 14 20.3554 14C20.3743 14 20.3932 14 20.412 14C20.4309 14 20.4497 14 20.4685 14C20.4874 14 20.5062 14 20.525 14C20.5438 14 20.5625 14 20.5813 14C20.6001 14 20.6188 14 20.6376 14C20.6563 14 20.675 14 20.6938 14C20.7125 14 20.7312 14 20.7498 14C20.7685 14 20.7872 14 20.8058 14C20.8245 14 20.8431 14 20.8618 14C20.8804 14 20.899 14 20.9176 14C20.9362 14 20.9548 14 20.9733 14C20.9919 14 21.0104 14 21.029 14C21.0475 14 21.066 14 21.0845 14C21.103 14 21.1215 14 21.14 14C21.1585 14 21.1769 14 21.1954 14C21.2138 14 21.2322 14 21.2506 14C21.269 14 21.2874 14 21.3058 14C21.3242 14 21.3426 14 21.3609 14C21.3792 14 21.3976 14 21.4159 14C21.4342 14 21.4525 14 21.4708 14C21.489 14 21.5073 14 21.5255 14C21.5438 14 21.562 14 21.5802 14C21.5984 14 21.6166 14 21.6348 14C21.653 14 21.6712 14 21.6893 14C21.7074 14 21.7256 14 21.7437 14C21.7618 14 21.7799 14 21.7979 14C21.816 14 21.8341 14 21.8521 14C21.8702 14 21.8882 14 21.9062 14C21.9242 14 21.9422 14 21.9601 14C21.9781 14 21.996 14 22.014 14C22.0319 14 22.0498 14 22.0677 14C22.0856 14 22.1035 14 22.1213 14C22.1392 14 22.157 14 22.1749 14C22.1927 14 22.2105 14 22.2283 14C22.246 14 22.2638 14 22.2815 14C22.2993 14 22.317 14 22.3347 14C22.3524 14 22.3701 14 22.3878 14C22.4054 14 22.4231 14 22.4407 14C22.4584 14 22.476 14 22.4936 14C22.5111 14 22.5287 14 22.5463 14C22.5638 14 22.5813 14 22.5989 14C22.6164 14 22.6339 14 22.6513 14C22.6688 14 22.6862 14 22.7037 14C22.7211 14 22.7385 14 22.7559 14C22.7733 14 22.7907 14 22.808 14C22.8254 14 22.8427 14 22.86 14C22.8773 14 22.8946 14 22.9118 14C22.9291 14 22.9463 14 22.9636 14C22.9808 14 22.998 14 23.0152 14C23.0324 14 23.0495 14 23.0667 14C23.0838 14 23.1009 14 23.118 14C23.1351 14 23.1522 14 23.1692 14C23.1863 14 23.2033 14 23.2203 14C23.2373 14 23.2543 14 23.2713 14C23.2882 14 23.3052 14 23.3221 14C23.339 14 23.3559 14 23.3728 14C23.3896 14 23.4065 14 23.4233 14C23.4402 14 23.457 14 23.4738 14C23.4905 14 23.5073 14 23.524 14C23.5408 14 23.5575 14 23.5742 14C23.5909 14 23.6075 14 23.6242 14C23.6408 14 23.6575 14 23.6741 14C23.6907 14 23.7072 14 23.7238 14C23.7403 14 23.7569 14 23.7734 14C23.7899 14 23.8064 14 23.8228 14C23.8393 14 23.8557 14 23.8721 14C23.8885 14 23.9049 14 23.9213 14C23.9376 14 23.954 14 23.9703 14C23.9866 14 24.0029 14 24.0192 14C24.0354 14 24.0517 14 24.0679 14C24.0841 14 24.1003 14 24.1165 14C24.1326 14 24.1488 14 24.1649 14C24.181 14 24.1971 14 24.2131 14C24.2292 14 24.2453 14 24.2613 14C24.2773 14 24.2933 14 24.3092 14C24.3252 14 24.3411 14 24.3571 14C24.373 14 24.3889 14 24.4047 14C24.4206 14 24.4364 14 24.4522 14C24.468 14 24.4838 14 24.4996 14C24.5153 14 24.5311 14 24.5468 14C24.5625 14 24.5782 14 24.5938 14C24.6095 14 24.6251 14 24.6407 14C24.6563 14 24.6719 14 24.6874 14C24.703 14 24.7185 14 24.734 14C24.7495 14 24.7649 14 24.7804 14C24.7958 14 24.8112 14 24.8266 14C24.842 14 24.8574 14 24.8727 14C24.888 14 24.9033 14 24.9186 14C24.9339 14 24.9491 14 24.9643 14C24.9796 14 24.9948 14 25.0099 14C25.0251 14 25.0402 14 25.0553 14C25.0704 14 25.0855 14 25.1006 14C25.1156 14 25.1306 14 25.1456 14C25.1606 14 25.1756 14 25.1905 14C25.2055 14 25.2204 14 25.2353 14C25.2501 14 25.265 14 25.2798 14C25.2946 14 25.3094 14 25.3242 14C25.339 14 25.3537 14 25.3684 14C25.3831 14 25.3978 14 25.4125 14C25.4271 14 25.4417 14 25.4563 14C25.4709 14 25.4855 14 25.5 14V12C25.4855 12 25.4709 12 25.4563 12C25.4417 12 25.4271 12 25.4125 12C25.3978 12 25.3831 12 25.3684 12C25.3537 12 25.339 12 25.3242 12C25.3094 12 25.2946 12 25.2798 12C25.265 12 25.2501 12 25.2353 12C25.2204 12 25.2055 12 25.1905 12C25.1756 12 25.1606 12 25.1456 12C25.1306 12 25.1156 12 25.1006 12C25.0855 12 25.0704 12 25.0553 12C25.0402 12 25.0251 12 25.0099 12C24.9948 12 24.9796 12 24.9643 12C24.9491 12 24.9339 12 24.9186 12C24.9033 12 24.888 12 24.8727 12C24.8574 12 24.842 12 24.8266 12C24.8112 12 24.7958 12 24.7804 12C24.7649 12 24.7495 12 24.734 12C24.7185 12 24.703 12 24.6874 12C24.6719 12 24.6563 12 24.6407 12C24.6251 12 24.6095 12 24.5938 12C24.5782 12 24.5625 12 24.5468 12C24.5311 12 24.5153 12 24.4996 12C24.4838 12 24.468 12 24.4522 12C24.4364 12 24.4206 12 24.4047 12C24.3889 12 24.373 12 24.3571 12C24.3411 12 24.3252 12 24.3092 12C24.2933 12 24.2773 12 24.2613 12C24.2453 12 24.2292 12 24.2131 12C24.1971 12 24.181 12 24.1649 12C24.1488 12 24.1326 12 24.1165 12C24.1003 12 24.0841 12 24.0679 12C24.0517 12 24.0354 12 24.0192 12C24.0029 12 23.9866 12 23.9703 12C23.954 12 23.9376 12 23.9213 12C23.9049 12 23.8885 12 23.8721 12C23.8557 12 23.8393 12 23.8228 12C23.8064 12 23.7899 12 23.7734 12C23.7569 12 23.7403 12 23.7238 12C23.7072 12 23.6907 12 23.6741 12C23.6575 12 23.6408 12 23.6242 12C23.6075 12 23.5909 12 23.5742 12C23.5575 12 23.5408 12 23.524 12C23.5073 12 23.4905 12 23.4738 12C23.457 12 23.4402 12 23.4233 12C23.4065 12 23.3896 12 23.3728 12C23.3559 12 23.339 12 23.3221 12C23.3052 12 23.2882 12 23.2713 12C23.2543 12 23.2373 12 23.2203 12C23.2033 12 23.1863 12 23.1692 12C23.1522 12 23.1351 12 23.118 12C23.1009 12 23.0838 12 23.0667 12C23.0495 12 23.0324 12 23.0152 12C22.998 12 22.9808 12 22.9636 12C22.9463 12 22.9291 12 22.9118 12C22.8946 12 22.8773 12 22.86 12C22.8427 12 22.8254 12 22.808 12C22.7907 12 22.7733 12 22.7559 12C22.7385 12 22.7211 12 22.7037 12C22.6862 12 22.6688 12 22.6513 12C22.6339 12 22.6164 12 22.5989 12C22.5813 12 22.5638 12 22.5463 12C22.5287 12 22.5111 12 22.4936 12C22.476 12 22.4584 12 22.4407 12C22.4231 12 22.4054 12 22.3878 12C22.3701 12 22.3524 12 22.3347 12C22.317 12 22.2993 12 22.2815 12C22.2638 12 22.246 12 22.2283 12C22.2105 12 22.1927 12 22.1749 12C22.157 12 22.1392 12 22.1213 12C22.1035 12 22.0856 12 22.0677 12C22.0498 12 22.0319 12 22.014 12C21.996 12 21.9781 12 21.9601 12C21.9422 12 21.9242 12 21.9062 12C21.8882 12 21.8702 12 21.8521 12C21.8341 12 21.816 12 21.7979 12C21.7799 12 21.7618 12 21.7437 12C21.7256 12 21.7074 12 21.6893 12C21.6712 12 21.653 12 21.6348 12C21.6166 12 21.5984 12 21.5802 12C21.562 12 21.5438 12 21.5255 12C21.5073 12 21.489 12 21.4708 12C21.4525 12 21.4342 12 21.4159 12C21.3976 12 21.3792 12 21.3609 12C21.3426 12 21.3242 12 21.3058 12C21.2874 12 21.269 12 21.2506 12C21.2322 12 21.2138 12 21.1954 12C21.1769 12 21.1585 12 21.14 12C21.1215 12 21.103 12 21.0845 12C21.066 12 21.0475 12 21.029 12C21.0104 12 20.9919 12 20.9733 12C20.9548 12 20.9362 12 20.9176 12C20.899 12 20.8804 12 20.8618 12C20.8431 12 20.8245 12 20.8058 12C20.7872 12 20.7685 12 20.7498 12C20.7312 12 20.7125 12 20.6938 12C20.675 12 20.6563 12 20.6376 12C20.6188 12 20.6001 12 20.5813 12C20.5625 12 20.5438 12 20.525 12C20.5062 12 20.4874 12 20.4685 12C20.4497 12 20.4309 12 20.412 12C20.3932 12 20.3743 12 20.3554 12C20.3366 12 20.3177 12 20.2988 12C20.2799 12 20.2609 12 20.242 12C20.2231 12 20.2041 12 20.1852 12C20.1662 12 20.1472 12 20.1283 12C20.1093 12 20.0903 12 20.0713 12C20.0523 12 20.0333 12 20.0142 12C19.9952 12 19.9761 12 19.9571 12C19.938 12 19.919 12 19.8999 12C19.8808 12 19.8617 12 19.8426 12C19.8235 12 19.8044 12 19.7852 12C19.7661 12 19.747 12 19.7278 12C19.7087 12 19.6895 12 19.6703 12C19.6512 12 19.632 12 19.6128 12C19.5936 12 19.5744 12 19.5551 12C19.5359 12 19.5167 12 19.4974 12C19.4782 12 19.4589 12 19.4397 12C19.4204 12 19.4011 12 19.3819 12C19.3626 12 19.3433 12 19.324 12C19.3047 12 19.2853 12 19.266 12C19.2467 12 19.2273 12 19.208 12C19.1887 12 19.1693 12 19.1499 12C19.1306 12 19.1112 12 19.0918 12C19.0724 12 19.053 12 19.0336 12C19.0142 12 18.9948 12 18.9753 12C18.9559 12 18.9365 12 18.917 12C18.8976 12 18.8781 12 18.8587 12C18.8392 12 18.8197 12 18.8002 12C18.7808 12 18.7613 12 18.7418 12C18.7223 12 18.7028 12 18.6832 12C18.6637 12 18.6442 12 18.6247 12C18.6051 12 18.5856 12 18.566 12C18.5465 12 18.5269 12 18.5074 12C18.4878 12 18.4682 12 18.4486 12C18.429 12 18.4094 12 18.3898 12C18.3702 12 18.3506 12 18.331 12C18.3114 12 18.2918 12 18.2722 12C18.2525 12 18.2329 12 18.2132 12C18.1936 12 18.1739 12 18.1543 12C18.1346 12 18.1149 12 18.0953 12C18.0756 12 18.0559 12 18.0362 12C18.0165 12 17.9968 12 17.9771 12C17.9574 12 17.9377 12 17.918 12C17.8983 12 17.8786 12 17.8588 12C17.8391 12 17.8194 12 17.7996 12C17.7799 12 17.7601 12 17.7404 12C17.7206 12 17.7009 12 17.6811 12C17.6613 12 17.6416 12 17.6218 12C17.602 12 17.5822 12 17.5624 12C17.5426 12 17.5228 12 17.503 12C17.4832 12 17.4634 12 17.4436 12C17.4238 12 17.404 12 17.3842 12C17.3643 12 17.3445 12 17.3247 12C17.3048 12 17.285 12 17.2652 12C17.2453 12 17.2255 12 17.2056 12C17.1858 12 17.1659 12 17.1461 12C17.1262 12 17.1063 12 17.0865 12C17.0666 12 17.0467 12 17.0268 12C17.007 12 16.9871 12 16.9672 12C16.9473 12 16.9274 12 16.9075 12C16.8876 12 16.8677 12 16.8478 12C16.8279 12 16.808 12 16.7881 12C16.7682 12 16.7483 12 16.7284 12C16.7085 12 16.6885 12 16.6686 12C16.6487 12 16.6288 12 16.6088 12C16.5889 12 16.569 12 16.549 12C16.5291 12 16.5092 12 16.4892 12C16.4693 12 16.4493 12 16.4294 12C16.4094 12 16.3895 12 16.3696 12C16.3496 12 16.3296 12 16.3097 12C16.2897 12 16.2698 12 16.2498 12C16.2299 12 16.2099 12 16.1899 12C16.17 12 16.15 12 16.13 12C16.1101 12 16.0901 12 16.0701 12C16.0502 12 16.0302 12 16.0102 12C15.9902 12 15.9703 12 15.9503 12C15.9303 12 15.9103 12 15.8904 12C15.8704 12 15.8504 12 15.8304 12C15.8104 12 15.7905 12 15.7705 12C15.7505 12 15.7305 12 15.7105 12C15.6905 12 15.6705 12 15.6506 12C15.6306 12 15.6106 12 15.5906 12C15.5706 12 15.5506 12 15.5306 12C15.5107 12 15.4907 12 15.4707 12C15.4507 12 15.4307 12 15.4107 12C15.3907 12 15.3708 12 15.3508 12C15.3308 12 15.3108 12 15.2908 12C15.2708 12 15.2508 12 15.2309 12C15.2109 12 15.1909 12 15.1709 12C15.1509 12 15.1309 12 15.111 12C15.091 12 15.071 12 15.051 12C15.031 12 15.0111 12 14.9911 12C14.9711 12 14.9511 12 14.9312 12C14.9112 12 14.8912 12 14.8713 12C14.8513 12 14.8313 12 14.8113 12C14.7914 12 14.7714 12 14.7515 12C14.7315 12 14.7115 12 14.6916 12C14.6716 12 14.6517 12 14.6317 12C14.6117 12 14.5918 12 14.5718 12C14.5519 12 14.5319 12 14.512 12C14.4921 12 14.4721 12 14.4522 12C14.4322 12 14.4123 12 14.3924 12C14.3724 12 14.3525 12 14.3326 12C14.3126 12 14.2927 12 14.2728 12C14.2529 12 14.233 12 14.213 12C14.1931 12 14.1732 12 14.1533 12C14.1334 12 14.1135 12 14.0936 12C14.0737 12 14.0538 12 14.0339 12C14.014 12 13.9941 12 13.9742 12C13.9544 12 13.9345 12 13.9146 12C13.8947 12 13.8748 12 13.855 12C13.8351 12 13.8152 12 13.7954 12C13.7755 12 13.7557 12 13.7358 12C13.716 12 13.6961 12 13.6763 12C13.6564 12 13.6366 12 13.6168 12C13.5969 12 13.5771 12 13.5573 12C13.5375 12 13.5177 12 13.4979 12C13.478 12 13.4582 12 13.4384 12C13.4186 12 13.3988 12 13.3791 12C13.3593 12 13.3395 12 13.3197 12C13.2999 12 13.2802 12 13.2604 12C13.2406 12 13.2209 12 13.2011 12C13.1814 12 13.1616 12 13.1419 12C13.1221 12 13.1024 12 13.0827 12C13.063 12 13.0432 12 13.0235 12C13.0038 12 12.9841 12 12.9644 12C12.9447 12 12.925 12 12.9053 12C12.8856 12 12.8659 12 12.8463 12C12.8266 12 12.8069 12 12.7873 12C12.7676 12 12.748 12 12.7283 12C12.7087 12 12.689 12 12.6694 12C12.6498 12 12.6302 12 12.6105 12C12.5909 12 12.5713 12 12.5517 12C12.5321 12 12.5125 12 12.493 12C12.4734 12 12.4538 12 12.4342 12C12.4147 12 12.3951 12 12.3756 12C12.356 12 12.3365 12 12.3169 12C12.2974 12 12.2779 12 12.2584 12C12.2389 12 12.2194 12 12.1999 12C12.1804 12 12.1609 12 12.1414 12C12.1219 12 12.1024 12 12.083 12C12.0635 12 12.0441 12 12.0246 12C12.0052 12 11.9858 12 11.9663 12C11.9469 12 11.9275 12 11.9081 12C11.8887 12 11.8693 12 11.8499 12C11.8305 12 11.8111 12 11.7918 12C11.7724 12 11.7531 12 11.7337 12C11.7144 12 11.695 12 11.6757 12C11.6564 12 11.6371 12 11.6178 12C11.5985 12 11.5792 12 11.5599 12C11.5406 12 11.5213 12 11.5021 12C11.4828 12 11.4636 12 11.4443 12C11.4251 12 11.4059 12 11.3866 12C11.3674 12 11.3482 12 11.329 12C11.3098 12 11.2907 12 11.2715 12C11.2523 12 11.2331 12 11.214 12C11.1949 12 11.1757 12 11.1566 12C11.1375 12 11.1184 12 11.0992 12C11.0801 12 11.0611 12 11.042 12C11.0229 12 11.0038 12 10.9848 12C10.9657 12 10.9467 12 10.9277 12C10.9086 12 10.8896 12 10.8706 12C10.8516 12 10.8326 12 10.8136 12C10.7947 12 10.7757 12 10.7568 12C10.7378 12 10.7189 12 10.6999 12C10.681 12 10.6621 12 10.6432 12C10.6243 12 10.6054 12 10.5865 12C10.5677 12 10.5488 12 10.53 12C10.5111 12 10.4923 12 10.4735 12C10.4546 12 10.4358 12 10.417 12C10.3983 12 10.3795 12 10.3607 12C10.3419 12 10.3232 12 10.3045 12C10.2857 12 10.267 12 10.2483 12C10.2296 12 10.2109 12 10.1922 12C10.1735 12 10.1549 12 10.1362 12C10.1176 12 10.099 12 10.0803 12C10.0617 12 10.0431 12 10.0245 12C10.0059 12 9.98736 12 9.9688 12C9.95024 12 9.9317 12 9.91317 12C9.89464 12 9.87613 12 9.85763 12C9.83914 12 9.82065 12 9.80219 12C9.78372 12 9.76527 12 9.74684 12C9.7284 12 9.70998 12 9.69158 12C9.67318 12 9.65479 12 9.63642 12C9.61805 12 9.59969 12 9.58135 12C9.56302 12 9.54469 12 9.52639 12C9.50808 12 9.48979 12 9.47152 12C9.45325 12 9.43499 12 9.41675 12C9.39851 12 9.38029 12 9.36209 12C9.34388 12 9.32569 12 9.30752 12C9.28935 12 9.2712 12 9.25306 12C9.23492 12 9.2168 12 9.1987 12C9.1806 12 9.16251 12 9.14445 12C9.12638 12 9.10833 12 9.0903 12C9.07227 12 9.05425 12 9.03626 12C9.01826 12 9.00028 12 8.98232 12C8.96436 12 8.94642 12 8.92849 12C8.91057 12 8.89266 12 8.87478 12C8.85689 12 8.83902 12 8.82117 12C8.80332 12 8.78549 12 8.76768 12C8.74986 12 8.73207 12 8.71429 12C8.69652 12 8.67876 12 8.66102 12C8.64329 12 8.62557 12 8.60787 12C8.59017 12 8.57249 12 8.55483 12C8.53717 12 8.51953 12 8.50191 12C8.48428 12 8.46668 12 8.4491 12C8.43152 12 8.41395 12 8.39641 12C8.37887 12 8.36135 12 8.34384 12C8.32634 12 8.30886 12 8.29139 12C8.27393 12 8.25649 12 8.23907 12C8.22164 12 8.20424 12 8.18686 12C8.16948 12 8.15212 12 8.13478 12C8.11744 12 8.10012 12 8.08282 12C8.06552 12 8.04824 12 8.03098 12C8.01373 12 7.99649 12 7.97927 12C7.96206 12 7.94487 12 7.92769 12C7.91052 12 7.89337 12 7.87624 12C7.85911 12 7.842 12 7.82492 12C7.80783 12 7.79076 12 7.77372 12C7.75668 12 7.73966 12 7.72266 12C7.70566 12 7.68868 12 7.67172 12C7.65477 12 7.63783 12 7.62092 12C7.60401 12 7.58712 12 7.57026 12C7.55339 12 7.53655 12 7.51973 12C7.5029 12 7.48611 12 7.46933 12C7.45255 12 7.4358 12 7.41907 12C7.40234 12 7.38563 12 7.36895 12C7.35226 12 7.3356 12 7.31896 12C7.30233 12 7.28571 12 7.26912 12C7.25253 12 7.23596 12 7.21942 12C7.20287 12 7.18635 12 7.16985 12C7.15336 12 7.13688 12 7.12043 12C7.10399 12 7.08756 12 7.07116 12C7.05476 12 7.03838 12 7.02203 12C7.00567 12 6.98934 12 6.97304 12C6.95673 12 6.94045 12 6.9242 12C6.90794 12 6.89171 12 6.8755 12C6.8593 12 6.84312 12 6.82696 12C6.8108 12 6.79467 12 6.77856 12C6.76245 12 6.74637 12 6.73032 12C6.71426 12 6.69823 12 6.68222 12C6.66621 12 6.65023 12 6.63428 12C6.61832 12 6.60239 12 6.58649 12C6.57058 12 6.5547 12 6.53885 12C6.523 12 6.50717 12 6.49137 12C6.47557 12 6.45979 12 6.44404 12C6.42829 12 6.41257 12 6.39687 12C6.38118 12 6.36551 12 6.34986 12C6.33422 12 6.3186 12 6.30301 12C6.28742 12 6.27186 12 6.25632 12C6.24078 12 6.22527 12 6.20979 12C6.1943 12 6.17885 12 6.16342 12C6.14799 12 6.13259 12 6.11721 12C6.10184 12 6.08649 12 6.07117 12C6.05585 12 6.04055 12 6.02529 12C6.01002 12 5.99478 12 5.97957 12C5.96436 12 5.94918 12 5.93403 12C5.91887 12 5.90375 12 5.88865 12C5.87355 12 5.85848 12 5.84344 12C5.8284 12 5.81338 12 5.7984 12C5.78341 12 5.76845 12 5.75353 12C5.7386 12 5.7237 12 5.70883 12C5.69395 12 5.67911 12 5.6643 12C5.64948 12 5.6347 12 5.61994 12C5.60519 12 5.59046 12 5.57576 12C5.56107 12 5.5464 12 5.53176 12C5.51712 12 5.50251 12 5.48793 12C5.47335 12 5.4588 12 5.44428 12C5.42976 12 5.41527 12 5.40081 12C5.38635 12 5.37192 12 5.35751 12C5.34311 12 5.32874 12 5.3144 12C5.30006 12 5.28575 12 5.27147 12C5.25719 12 5.24294 12 5.22872 12C5.2145 12 5.20031 12 5.18615 12C5.17199 12 5.15786 12 5.14377 12C5.12967 12 5.1156 12 5.10157 12C5.08753 12 5.07353 12 5.05955 12C5.04558 12 5.03164 12 5.01773 12C5.00382 12 4.98994 12 4.97609 12C4.96224 12 4.94843 12 4.93464 12C4.92086 12 4.9071 12 4.89338 12C4.87966 12 4.86597 12 4.85231 12C4.83865 12 4.82503 12 4.81143 12C4.79784 12 4.78428 12 4.77075 12C4.75722 12 4.74372 12 4.73026 12C4.71679 12 4.70336 12 4.68996 12C4.67656 12 4.6632 12 4.64986 12C4.63653 12 4.62323 12 4.60996 12C4.59669 12 4.58345 12 4.57025 12C4.55705 12 4.54388 12 4.53074 12C4.51761 12 4.5045 12 4.49143 12C4.47836 12 4.46533 12 4.45233 12C4.43932 12 4.42635 12 4.41342 12C4.40048 12 4.38758 12 4.37471 12C4.36185 12 4.34901 12 4.33621 12C4.32341 12 4.31065 12 4.29792 12C4.28518 12 4.27249 12 4.25982 12C4.24716 12 4.23453 12 4.22194 12C4.20934 12 4.19678 12 4.18426 12C4.17173 12 4.15924 12 4.14679 12C4.13433 12 4.12191 12 4.10953 12C4.09714 12 4.08479 12 4.07248 12C4.06016 12 4.04788 12 4.03564 12C4.02339 12 4.01118 12 3.99901 12C3.98684 12 3.9747 12 3.96259 12C3.95049 12 3.93842 12 3.92639 12C3.91436 12 3.90237 12 3.89041 12C3.87845 12 3.86652 12 3.85464 12C3.84275 12 3.8309 12 3.81908 12C3.80727 12 3.79549 12 3.78375 12C3.77201 12 3.7603 12 3.74863 12C3.73696 12 3.72533 12 3.71373 12C3.70214 12 3.69058 12 3.67906 12C3.66754 12 3.65605 12 3.6446 12C3.63316 12 3.62174 12 3.61037 12C3.599 12 3.58766 12 3.57636 12C3.56506 12 3.5538 12 3.54258 12C3.53136 12 3.52017 12 3.50902 12C3.49787 12 3.48676 12 3.47569 12C3.46462 12 3.45358 12 3.44259 12C3.43159 12 3.42063 12 3.40971 12C3.39879 12 3.38791 12 3.37706 12C3.36622 12 3.35542 12 3.34465 12C3.33388 12 3.32315 12 3.31246 12C3.30177 12 3.29112 12 3.28051 12C3.2699 12 3.25933 12 3.24879 12C3.23826 12 3.22776 12 3.21731 12C3.20685 12 3.19644 12 3.18606 12C3.17568 12 3.16535 12 3.15505 12C3.14475 12 3.13449 12 3.12427 12C3.11405 12 3.10387 12 3.09373 12C3.08359 12 3.07349 12 3.06344 12C3.05338 12 3.04336 12 3.03338 12C3.0234 12 3.01346 12 3.00356 12C2.99366 12 2.9838 12 2.97398 12C2.96417 12 2.95439 12 2.94465 12C2.93491 12 2.92522 12 2.91556 12C2.90591 12 2.89629 12 2.88672 12C2.87715 12 2.86761 12 2.85812 12C2.84863 12 2.83918 12 2.82977 12C2.82036 12 2.81099 12 2.80167 12C2.79234 12 2.78306 12 2.77381 12C2.76457 12 2.75537 12 2.74621 12C2.73705 12 2.72793 12 2.71886 12C2.70978 12 2.70075 12 2.69175 12C2.68276 12 2.67381 12 2.66491 12C2.656 12 2.64713 12 2.63831 12C2.62949 12 2.62071 12 2.61197 12C2.60323 12 2.59454 12 2.58588 12C2.57723 12 2.56862 12 2.56005 12C2.55149 12 2.54296 12 2.53448 12C2.526 12 2.51756 12 2.50917 12C2.50078 12 2.49242 12 2.48412 12C2.47581 12 2.46754 12 2.45932 12C2.4511 12 2.44293 12 2.43479 12C2.42666 12 2.41857 12 2.41052 12C2.40248 12 2.39447 12 2.38652 12C2.37856 12 2.37064 12 2.36277 12C2.3549 12 2.34708 12 2.3393 12C2.33152 12 2.32378 12 2.31609 12C2.3084 12 2.30075 12 2.29314 12C2.28554 12 2.27798 12 2.27047 12C2.26296 12 2.25549 12 2.24806 12C2.24064 12 2.23326 12 2.22593 12C2.21859 12 2.21131 12 2.20406 12C2.19682 12 2.18962 12 2.18247 12C2.17532 12 2.16821 12 2.16115 12C2.15409 12 2.14707 12 2.14011 12C2.13314 12 2.12621 12 2.11933 12C2.11246 12 2.10563 12 2.09884 12C2.09205 12 2.08531 12 2.07862 12C2.07193 12 2.06528 12 2.05868 12C2.05208 12 2.04553 12 2.03902 12C2.03251 12 2.02605 12 2.01964 12C2.01322 12 2.00686 12 2.00054 12C1.99422 12 1.98794 12 1.98172 12C1.97549 12 1.96931 12 1.96318 12C1.95705 12 1.95097 12 1.94493 12C1.93889 12 1.9329 12 1.92696 12C1.92102 12 1.91512 12 1.90928 12C1.90343 12 1.89763 12 1.89188 12C1.88613 12 1.88043 12 1.87477 12C1.86912 12 1.86351 12 1.85795 12C1.85239 12 1.84688 12 1.84142 12C1.83596 12 1.83055 12 1.82518 12C1.81982 12 1.8145 12 1.80923 12C1.80396 12 1.79875 12 1.79358 12C1.78841 12 1.78328 12 1.77821 12C1.77314 12 1.76812 12 1.76314 12C1.75817 12 1.75324 12 1.74837 12C1.74349 12 1.73867 12 1.73389 12C1.72911 12 1.72439 12 1.71971 12C1.71503 12 1.71041 12 1.70583 12C1.70125 12 1.69672 12 1.69225 12C1.68777 12 1.68334 12 1.67896 12C1.67458 12 1.67026 12 1.66598 12C1.6617 12 1.65748 12 1.6533 12C1.64912 12 1.645 12 1.64092 12C1.63685 12 1.63282 12 1.62885 12C1.62488 12 1.62095 12 1.61708 12C1.61321 12 1.60939 12 1.60562 12C1.60185 12 1.59813 12 1.59446 12C1.5908 12 1.58718 12 1.58362 12C1.58005 12 1.57654 12 1.57308 12C1.56962 12 1.56621 12 1.56285 12C1.55949 12 1.55618 12 1.55293 12C1.54968 12 1.54647 12 1.54332 12C1.54017 12 1.53708 12 1.53403 12C1.53098 12 1.52799 12 1.52505 12C1.52211 12 1.51922 12 1.51638 12C1.51355 12 1.51076 12 1.50803 12C1.5053 12 1.50262 12 1.5 12V14Z" fill="#5A3600"/>
<path d="M12.5 1C12.5 0.447716 12.9477 5.36442e-07 13.5 5.36442e-07C14.0523 5.36442e-07 14.5 0.447716 14.5 1H12.5ZM12.5 25C12.5 24.9974 12.5 24.9947 12.5 24.992C12.5 24.9892 12.5 24.9865 12.5 24.9836C12.5 24.9808 12.5 24.9779 12.5 24.975C12.5 24.972 12.5 24.969 12.5 24.966C12.5 24.9629 12.5 24.9598 12.5 24.9567C12.5 24.9535 12.5 24.9503 12.5 24.9471C12.5 24.9438 12.5 24.9405 12.5 24.9372C12.5 24.9338 12.5 24.9304 12.5 24.9269C12.5 24.9235 12.5 24.9199 12.5 24.9164C12.5 24.9128 12.5 24.9092 12.5 24.9055C12.5 24.9019 12.5 24.8982 12.5 24.8944C12.5 24.8906 12.5 24.8868 12.5 24.8829C12.5 24.879 12.5 24.8751 12.5 24.8712C12.5 24.8672 12.5 24.8632 12.5 24.8591C12.5 24.855 12.5 24.8509 12.5 24.8467C12.5 24.8425 12.5 24.8383 12.5 24.834C12.5 24.8297 12.5 24.8254 12.5 24.821C12.5 24.8167 12.5 24.8122 12.5 24.8078C12.5 24.8033 12.5 24.7987 12.5 24.7942C12.5 24.7896 12.5 24.785 12.5 24.7803C12.5 24.7756 12.5 24.7709 12.5 24.7661C12.5 24.7613 12.5 24.7565 12.5 24.7516C12.5 24.7468 12.5 24.7418 12.5 24.7369C12.5 24.7319 12.5 24.7269 12.5 24.7218C12.5 24.7167 12.5 24.7116 12.5 24.7064C12.5 24.7013 12.5 24.696 12.5 24.6908C12.5 24.6855 12.5 24.6802 12.5 24.6748C12.5 24.6695 12.5 24.664 12.5 24.6586C12.5 24.6531 12.5 24.6476 12.5 24.642C12.5 24.6365 12.5 24.6309 12.5 24.6252C12.5 24.6196 12.5 24.6139 12.5 24.6081C12.5 24.6024 12.5 24.5966 12.5 24.5907C12.5 24.5849 12.5 24.579 12.5 24.573C12.5 24.5671 12.5 24.5611 12.5 24.5551C12.5 24.549 12.5 24.543 12.5 24.5368C12.5 24.5307 12.5 24.5245 12.5 24.5183C12.5 24.5121 12.5 24.5058 12.5 24.4995C12.5 24.4931 12.5 24.4868 12.5 24.4804C12.5 24.4739 12.5 24.4675 12.5 24.461C12.5 24.4545 12.5 24.4479 12.5 24.4413C12.5 24.4347 12.5 24.4281 12.5 24.4214C12.5 24.4147 12.5 24.4079 12.5 24.4012C12.5 24.3944 12.5 24.3875 12.5 24.3807C12.5 24.3738 12.5 24.3669 12.5 24.3599C12.5 24.3529 12.5 24.3459 12.5 24.3388C12.5 24.3318 12.5 24.3247 12.5 24.3175C12.5 24.3104 12.5 24.3032 12.5 24.2959C12.5 24.2887 12.5 24.2814 12.5 24.2741C12.5 24.2667 12.5 24.2594 12.5 24.2519C12.5 24.2445 12.5 24.237 12.5 24.2295C12.5 24.222 12.5 24.2145 12.5 24.2069C12.5 24.1993 12.5 24.1916 12.5 24.1839C12.5 24.1762 12.5 24.1685 12.5 24.1607C12.5 24.1529 12.5 24.1451 12.5 24.1372C12.5 24.1294 12.5 24.1214 12.5 24.1135C12.5 24.1055 12.5 24.0975 12.5 24.0895C12.5 24.0814 12.5 24.0733 12.5 24.0652C12.5 24.0571 12.5 24.0489 12.5 24.0407C12.5 24.0325 12.5 24.0242 12.5 24.0159C12.5 24.0076 12.5 23.9992 12.5 23.9908C12.5 23.9824 12.5 23.974 12.5 23.9655C12.5 23.957 12.5 23.9485 12.5 23.9399C12.5 23.9314 12.5 23.9228 12.5 23.9141C12.5 23.9055 12.5 23.8968 12.5 23.888C12.5 23.8793 12.5 23.8705 12.5 23.8617C12.5 23.8529 12.5 23.844 12.5 23.8351C12.5 23.8262 12.5 23.8172 12.5 23.8082C12.5 23.7993 12.5 23.7902 12.5 23.7811C12.5 23.7721 12.5 23.7629 12.5 23.7538C12.5 23.7446 12.5 23.7354 12.5 23.7262C12.5 23.7169 12.5 23.7077 12.5 23.6983C12.5 23.689 12.5 23.6796 12.5 23.6702C12.5 23.6608 12.5 23.6514 12.5 23.6419C12.5 23.6324 12.5 23.6229 12.5 23.6133C12.5 23.6037 12.5 23.5941 12.5 23.5844C12.5 23.5748 12.5 23.5651 12.5 23.5553C12.5 23.5456 12.5 23.5358 12.5 23.526C12.5 23.5162 12.5 23.5063 12.5 23.4964C12.5 23.4865 12.5 23.4766 12.5 23.4666C12.5 23.4566 12.5 23.4466 12.5 23.4366C12.5 23.4265 12.5 23.4164 12.5 23.4063C12.5 23.3961 12.5 23.3859 12.5 23.3757C12.5 23.3655 12.5 23.3553 12.5 23.345C12.5 23.3347 12.5 23.3243 12.5 23.3139C12.5 23.3036 12.5 23.2931 12.5 23.2827C12.5 23.2722 12.5 23.2617 12.5 23.2512C12.5 23.2407 12.5 23.2301 12.5 23.2195C12.5 23.2089 12.5 23.1982 12.5 23.1875C12.5 23.1768 12.5 23.1661 12.5 23.1554C12.5 23.1446 12.5 23.1338 12.5 23.1229C12.5 23.1121 12.5 23.1012 12.5 23.0903C12.5 23.0794 12.5 23.0684 12.5 23.0574C12.5 23.0464 12.5 23.0354 12.5 23.0243C12.5 23.0132 12.5 23.0021 12.5 22.991C12.5 22.9798 12.5 22.9686 12.5 22.9574C12.5 22.9462 12.5 22.9349 12.5 22.9236C12.5 22.9123 12.5 22.901 12.5 22.8896C12.5 22.8783 12.5 22.8668 12.5 22.8554C12.5 22.8439 12.5 22.8325 12.5 22.8209C12.5 22.8094 12.5 22.7979 12.5 22.7863C12.5 22.7747 12.5 22.763 12.5 22.7514C12.5 22.7397 12.5 22.728 12.5 22.7163C12.5 22.7045 12.5 22.6927 12.5 22.6809C12.5 22.6691 12.5 22.6573 12.5 22.6454C12.5 22.6335 12.5 22.6216 12.5 22.6096C12.5 22.5976 12.5 22.5856 12.5 22.5736C12.5 22.5616 12.5 22.5495 12.5 22.5374C12.5 22.5253 12.5 22.5132 12.5 22.501C12.5 22.4888 12.5 22.4766 12.5 22.4644C12.5 22.4521 12.5 22.4398 12.5 22.4275C12.5 22.4152 12.5 22.4029 12.5 22.3905C12.5 22.3781 12.5 22.3657 12.5 22.3532C12.5 22.3408 12.5 22.3283 12.5 22.3157C12.5 22.3032 12.5 22.2907 12.5 22.2781C12.5 22.2655 12.5 22.2528 12.5 22.2402C12.5 22.2275 12.5 22.2148 12.5 22.2021C12.5 22.1894 12.5 22.1766 12.5 22.1638C12.5 22.151 12.5 22.1382 12.5 22.1253C12.5 22.1124 12.5 22.0995 12.5 22.0866C12.5 22.0736 12.5 22.0607 12.5 22.0477C12.5 22.0347 12.5 22.0216 12.5 22.0086C12.5 21.9955 12.5 21.9824 12.5 21.9693C12.5 21.9561 12.5 21.943 12.5 21.9297C12.5 21.9165 12.5 21.9033 12.5 21.89C12.5 21.8768 12.5 21.8635 12.5 21.8501C12.5 21.8368 12.5 21.8234 12.5 21.81C12.5 21.7966 12.5 21.7832 12.5 21.7697C12.5 21.7563 12.5 21.7428 12.5 21.7293C12.5 21.7157 12.5 21.7022 12.5 21.6886C12.5 21.675 12.5 21.6613 12.5 21.6477C12.5 21.634 12.5 21.6203 12.5 21.6066C12.5 21.5929 12.5 21.5791 12.5 21.5654C12.5 21.5516 12.5 21.5378 12.5 21.5239C12.5 21.5101 12.5 21.4962 12.5 21.4823C12.5 21.4684 12.5 21.4544 12.5 21.4404C12.5 21.4265 12.5 21.4125 12.5 21.3984C12.5 21.3844 12.5 21.3703 12.5 21.3562C12.5 21.3421 12.5 21.328 12.5 21.3139C12.5 21.2997 12.5 21.2855 12.5 21.2713C12.5 21.2571 12.5 21.2428 12.5 21.2285C12.5 21.2143 12.5 21.1999 12.5 21.1856C12.5 21.1713 12.5 21.1569 12.5 21.1425C12.5 21.1281 12.5 21.1137 12.5 21.0992C12.5 21.0847 12.5 21.0702 12.5 21.0557C12.5 21.0412 12.5 21.0266 12.5 21.0121C12.5 20.9975 12.5 20.9829 12.5 20.9682C12.5 20.9536 12.5 20.9389 12.5 20.9242C12.5 20.9095 12.5 20.8948 12.5 20.8801C12.5 20.8653 12.5 20.8505 12.5 20.8357C12.5 20.8209 12.5 20.806 12.5 20.7912C12.5 20.7763 12.5 20.7614 12.5 20.7465C12.5 20.7315 12.5 20.7166 12.5 20.7016C12.5 20.6866 12.5 20.6716 12.5 20.6566C12.5 20.6415 12.5 20.6264 12.5 20.6114C12.5 20.5963 12.5 20.5811 12.5 20.566C12.5 20.5508 12.5 20.5356 12.5 20.5204C12.5 20.5052 12.5 20.49 12.5 20.4747C12.5 20.4594 12.5 20.4442 12.5 20.4288C12.5 20.4135 12.5 20.3982 12.5 20.3828C12.5 20.3674 12.5 20.352 12.5 20.3366C12.5 20.3212 12.5 20.3057 12.5 20.2902C12.5 20.2747 12.5 20.2592 12.5 20.2437C12.5 20.2281 12.5 20.2126 12.5 20.197C12.5 20.1814 12.5 20.1658 12.5 20.1501C12.5 20.1345 12.5 20.1188 12.5 20.1031C12.5 20.0874 12.5 20.0717 12.5 20.056C12.5 20.0402 12.5 20.0244 12.5 20.0086C12.5 19.9928 12.5 19.977 12.5 19.9611C12.5 19.9453 12.5 19.9294 12.5 19.9135C12.5 19.8976 12.5 19.8817 12.5 19.8657C12.5 19.8498 12.5 19.8338 12.5 19.8178C12.5 19.8018 12.5 19.7857 12.5 19.7697C12.5 19.7536 12.5 19.7375 12.5 19.7214C12.5 19.7053 12.5 19.6892 12.5 19.673C12.5 19.6569 12.5 19.6407 12.5 19.6245C12.5 19.6083 12.5 19.5921 12.5 19.5758C12.5 19.5595 12.5 19.5433 12.5 19.527C12.5 19.5107 12.5 19.4943 12.5 19.478C12.5 19.4616 12.5 19.4452 12.5 19.4288C12.5 19.4124 12.5 19.396 12.5 19.3796C12.5 19.3631 12.5 19.3466 12.5 19.3301C12.5 19.3136 12.5 19.2971 12.5 19.2806C12.5 19.264 12.5 19.2475 12.5 19.2309C12.5 19.2143 12.5 19.1977 12.5 19.181C12.5 19.1644 12.5 19.1477 12.5 19.1311C12.5 19.1144 12.5 19.0977 12.5 19.0809C12.5 19.0642 12.5 19.0474 12.5 19.0307C12.5 19.0139 12.5 18.9971 12.5 18.9803C12.5 18.9635 12.5 18.9466 12.5 18.9297C12.5 18.9129 12.5 18.896 12.5 18.8791C12.5 18.8622 12.5 18.8452 12.5 18.8283C12.5 18.8113 12.5 18.7943 12.5 18.7773C12.5 18.7603 12.5 18.7433 12.5 18.7263C12.5 18.7092 12.5 18.6922 12.5 18.6751C12.5 18.658 12.5 18.6409 12.5 18.6238C12.5 18.6066 12.5 18.5895 12.5 18.5723C12.5 18.5551 12.5 18.5379 12.5 18.5207C12.5 18.5035 12.5 18.4863 12.5 18.469C12.5 18.4518 12.5 18.4345 12.5 18.4172C12.5 18.3999 12.5 18.3826 12.5 18.3652C12.5 18.3479 12.5 18.3305 12.5 18.3131C12.5 18.2958 12.5 18.2784 12.5 18.2609C12.5 18.2435 12.5 18.2261 12.5 18.2086C12.5 18.1911 12.5 18.1737 12.5 18.1562C12.5 18.1387 12.5 18.1211 12.5 18.1036C12.5 18.086 12.5 18.0685 12.5 18.0509C12.5 18.0333 12.5 18.0157 12.5 17.9981C12.5 17.9805 12.5 17.9628 12.5 17.9452C12.5 17.9275 12.5 17.9098 12.5 17.8921C12.5 17.8744 12.5 17.8567 12.5 17.839C12.5 17.8212 12.5 17.8035 12.5 17.7857C12.5 17.7679 12.5 17.7501 12.5 17.7323C12.5 17.7145 12.5 17.6967 12.5 17.6788C12.5 17.661 12.5 17.6431 12.5 17.6252C12.5 17.6073 12.5 17.5894 12.5 17.5715C12.5 17.5536 12.5 17.5356 12.5 17.5177C12.5 17.4997 12.5 17.4817 12.5 17.4637C12.5 17.4457 12.5 17.4277 12.5 17.4097C12.5 17.3917 12.5 17.3736 12.5 17.3556C12.5 17.3375 12.5 17.3194 12.5 17.3013C12.5 17.2832 12.5 17.2651 12.5 17.2469C12.5 17.2288 12.5 17.2106 12.5 17.1925C12.5 17.1743 12.5 17.1561 12.5 17.1379C12.5 17.1197 12.5 17.1015 12.5 17.0832C12.5 17.065 12.5 17.0468 12.5 17.0285C12.5 17.0102 12.5 16.9919 12.5 16.9736C12.5 16.9553 12.5 16.937 12.5 16.9186C12.5 16.9003 12.5 16.882 12.5 16.8636C12.5 16.8452 12.5 16.8268 12.5 16.8084C12.5 16.79 12.5 16.7716 12.5 16.7532C12.5 16.7347 12.5 16.7163 12.5 16.6978C12.5 16.6793 12.5 16.6609 12.5 16.6424C12.5 16.6239 12.5 16.6054 12.5 16.5868C12.5 16.5683 12.5 16.5498 12.5 16.5312C12.5 16.5126 12.5 16.4941 12.5 16.4755C12.5 16.4569 12.5 16.4383 12.5 16.4197C12.5 16.401 12.5 16.3824 12.5 16.3638C12.5 16.3451 12.5 16.3265 12.5 16.3078C12.5 16.2891 12.5 16.2704 12.5 16.2517C12.5 16.233 12.5 16.2143 12.5 16.1955C12.5 16.1768 12.5 16.1581 12.5 16.1393C12.5 16.1205 12.5 16.1017 12.5 16.083C12.5 16.0642 12.5 16.0454 12.5 16.0265C12.5 16.0077 12.5 15.9889 12.5 15.97C12.5 15.9512 12.5 15.9323 12.5 15.9135C12.5 15.8946 12.5 15.8757 12.5 15.8568C12.5 15.8379 12.5 15.819 12.5 15.8001C12.5 15.7811 12.5 15.7622 12.5 15.7432C12.5 15.7243 12.5 15.7053 12.5 15.6864C12.5 15.6674 12.5 15.6484 12.5 15.6294C12.5 15.6104 12.5 15.5914 12.5 15.5723C12.5 15.5533 12.5 15.5343 12.5 15.5152C12.5 15.4962 12.5 15.4771 12.5 15.458C12.5 15.4389 12.5 15.4199 12.5 15.4008C12.5 15.3816 12.5 15.3625 12.5 15.3434C12.5 15.3243 12.5 15.3051 12.5 15.286C12.5 15.2669 12.5 15.2477 12.5 15.2285C12.5 15.2093 12.5 15.1902 12.5 15.171C12.5 15.1518 12.5 15.1326 12.5 15.1134C12.5 15.0941 12.5 15.0749 12.5 15.0557C12.5 15.0364 12.5 15.0172 12.5 14.9979C12.5 14.9787 12.5 14.9594 12.5 14.9401C12.5 14.9208 12.5 14.9015 12.5 14.8822C12.5 14.8629 12.5 14.8436 12.5 14.8243C12.5 14.805 12.5 14.7856 12.5 14.7663C12.5 14.7469 12.5 14.7276 12.5 14.7082C12.5 14.6889 12.5 14.6695 12.5 14.6501C12.5 14.6307 12.5 14.6113 12.5 14.5919C12.5 14.5725 12.5 14.5531 12.5 14.5337C12.5 14.5142 12.5 14.4948 12.5 14.4754C12.5 14.4559 12.5 14.4365 12.5 14.417C12.5 14.3976 12.5 14.3781 12.5 14.3586C12.5 14.3391 12.5 14.3196 12.5 14.3001C12.5 14.2806 12.5 14.2611 12.5 14.2416C12.5 14.2221 12.5 14.2026 12.5 14.1831C12.5 14.1635 12.5 14.144 12.5 14.1244C12.5 14.1049 12.5 14.0853 12.5 14.0658C12.5 14.0462 12.5 14.0266 12.5 14.007C12.5 13.9875 12.5 13.9679 12.5 13.9483C12.5 13.9287 12.5 13.9091 12.5 13.8895C12.5 13.8698 12.5 13.8502 12.5 13.8306C12.5 13.811 12.5 13.7913 12.5 13.7717C12.5 13.752 12.5 13.7324 12.5 13.7127C12.5 13.6931 12.5 13.6734 12.5 13.6537C12.5 13.6341 12.5 13.6144 12.5 13.5947C12.5 13.575 12.5 13.5553 12.5 13.5356C12.5 13.5159 12.5 13.4962 12.5 13.4765C12.5 13.4568 12.5 13.437 12.5 13.4173C12.5 13.3976 12.5 13.3779 12.5 13.3581C12.5 13.3384 12.5 13.3186 12.5 13.2989C12.5 13.2791 12.5 13.2594 12.5 13.2396C12.5 13.2198 12.5 13.2001 12.5 13.1803C12.5 13.1605 12.5 13.1407 12.5 13.1209C12.5 13.1012 12.5 13.0814 12.5 13.0616C12.5 13.0418 12.5 13.022 12.5 13.0021C12.5 12.9823 12.5 12.9625 12.5 12.9427C12.5 12.9229 12.5 12.9031 12.5 12.8832C12.5 12.8634 12.5 12.8436 12.5 12.8237C12.5 12.8039 12.5 12.784 12.5 12.7642C12.5 12.7443 12.5 12.7245 12.5 12.7046C12.5 12.6848 12.5 12.6649 12.5 12.645C12.5 12.6252 12.5 12.6053 12.5 12.5854C12.5 12.5655 12.5 12.5456 12.5 12.5258C12.5 12.5059 12.5 12.486 12.5 12.4661C12.5 12.4462 12.5 12.4263 12.5 12.4064C12.5 12.3865 12.5 12.3666 12.5 12.3467C12.5 12.3268 12.5 12.3069 12.5 12.287C12.5 12.267 12.5 12.2471 12.5 12.2272C12.5 12.2073 12.5 12.1874 12.5 12.1674C12.5 12.1475 12.5 12.1276 12.5 12.1076C12.5 12.0877 12.5 12.0678 12.5 12.0478C12.5 12.0279 12.5 12.0079 12.5 11.988C12.5 11.9681 12.5 11.9481 12.5 11.9282C12.5 11.9082 12.5 11.8883 12.5 11.8683C12.5 11.8483 12.5 11.8284 12.5 11.8084C12.5 11.7885 12.5 11.7685 12.5 11.7485C12.5 11.7286 12.5 11.7086 12.5 11.6887C12.5 11.6687 12.5 11.6487 12.5 11.6287C12.5 11.6088 12.5 11.5888 12.5 11.5688C12.5 11.5489 12.5 11.5289 12.5 11.5089C12.5 11.4889 12.5 11.469 12.5 11.449C12.5 11.429 12.5 11.409 12.5 11.389C12.5 11.3691 12.5 11.3491 12.5 11.3291C12.5 11.3091 12.5 11.2891 12.5 11.2691C12.5 11.2492 12.5 11.2292 12.5 11.2092C12.5 11.1892 12.5 11.1692 12.5 11.1492C12.5 11.1292 12.5 11.1093 12.5 11.0893C12.5 11.0693 12.5 11.0493 12.5 11.0293C12.5 11.0093 12.5 10.9893 12.5 10.9694C12.5 10.9494 12.5 10.9294 12.5 10.9094C12.5 10.8894 12.5 10.8694 12.5 10.8494C12.5 10.8295 12.5 10.8095 12.5 10.7895C12.5 10.7695 12.5 10.7495 12.5 10.7295C12.5 10.7095 12.5 10.6896 12.5 10.6696C12.5 10.6496 12.5 10.6296 12.5 10.6096C12.5 10.5897 12.5 10.5697 12.5 10.5497C12.5 10.5297 12.5 10.5098 12.5 10.4898C12.5 10.4698 12.5 10.4498 12.5 10.4299C12.5 10.4099 12.5 10.3899 12.5 10.37C12.5 10.35 12.5 10.33 12.5 10.3101C12.5 10.2901 12.5 10.2701 12.5 10.2502C12.5 10.2302 12.5 10.2103 12.5 10.1903C12.5 10.1704 12.5 10.1504 12.5 10.1304C12.5 10.1105 12.5 10.0906 12.5 10.0706C12.5 10.0507 12.5 10.0307 12.5 10.0108C12.5 9.99083 12.5 9.9709 12.5 9.95096C12.5 9.93103 12.5 9.91109 12.5 9.89117C12.5 9.87124 12.5 9.85131 12.5 9.83139C12.5 9.81147 12.5 9.79155 12.5 9.77163C12.5 9.75171 12.5 9.7318 12.5 9.71189C12.5 9.69198 12.5 9.67208 12.5 9.65218C12.5 9.63227 12.5 9.61238 12.5 9.59248C12.5 9.57259 12.5 9.5527 12.5 9.53281C12.5 9.51292 12.5 9.49304 12.5 9.47316C12.5 9.45328 12.5 9.43341 12.5 9.41354C12.5 9.39367 12.5 9.3738 12.5 9.35394C12.5 9.33408 12.5 9.31423 12.5 9.29437C12.5 9.27452 12.5 9.25468 12.5 9.23483C12.5 9.21499 12.5 9.19515 12.5 9.17532C12.5 9.15549 12.5 9.13566 12.5 9.11584C12.5 9.09602 12.5 9.0762 12.5 9.05639C12.5 9.03657 12.5 9.01677 12.5 8.99697C12.5 8.97717 12.5 8.95737 12.5 8.93758C12.5 8.91779 12.5 8.89801 12.5 8.87823C12.5 8.85845 12.5 8.83868 12.5 8.81891C12.5 8.79914 12.5 8.77938 12.5 8.75963C12.5 8.73987 12.5 8.72012 12.5 8.70038C12.5 8.68064 12.5 8.6609 12.5 8.64117C12.5 8.62144 12.5 8.60172 12.5 8.582C12.5 8.56229 12.5 8.54258 12.5 8.52287C12.5 8.50317 12.5 8.48347 12.5 8.46378C12.5 8.44409 12.5 8.42441 12.5 8.40473C12.5 8.38506 12.5 8.36539 12.5 8.34573C12.5 8.32607 12.5 8.30641 12.5 8.28677C12.5 8.26712 12.5 8.24748 12.5 8.22785C12.5 8.20822 12.5 8.18859 12.5 8.16898C12.5 8.14936 12.5 8.12975 12.5 8.11015C12.5 8.09055 12.5 8.07096 12.5 8.05137C12.5 8.03179 12.5 8.01221 12.5 7.99264C12.5 7.97307 12.5 7.95351 12.5 7.93396C12.5 7.91441 12.5 7.89487 12.5 7.87533C12.5 7.8558 12.5 7.83627 12.5 7.81675C12.5 7.79723 12.5 7.77772 12.5 7.75822C12.5 7.73872 12.5 7.71923 12.5 7.69975C12.5 7.68027 12.5 7.66079 12.5 7.64133C12.5 7.62187 12.5 7.60241 12.5 7.58297C12.5 7.56352 12.5 7.54408 12.5 7.52466C12.5 7.50523 12.5 7.48581 12.5 7.4664C12.5 7.447 12.5 7.4276 12.5 7.40821C12.5 7.38882 12.5 7.36944 12.5 7.35008C12.5 7.33071 12.5 7.31135 12.5 7.292C12.5 7.27265 12.5 7.25331 12.5 7.23399C12.5 7.21466 12.5 7.19534 12.5 7.17603C12.5 7.15673 12.5 7.13743 12.5 7.11814C12.5 7.09886 12.5 7.07958 12.5 7.06032C12.5 7.04105 12.5 7.0218 12.5 7.00256C12.5 6.98331 12.5 6.96408 12.5 6.94486C12.5 6.92564 12.5 6.90643 12.5 6.88723C12.5 6.86804 12.5 6.84885 12.5 6.82967C12.5 6.8105 12.5 6.79133 12.5 6.77218C12.5 6.75303 12.5 6.73389 12.5 6.71476C12.5 6.69563 12.5 6.67651 12.5 6.65741C12.5 6.6383 12.5 6.61921 12.5 6.60013C12.5 6.58104 12.5 6.56197 12.5 6.54292C12.5 6.52386 12.5 6.50481 12.5 6.48578C12.5 6.46675 12.5 6.44773 12.5 6.42872C12.5 6.40971 12.5 6.39072 12.5 6.37174C12.5 6.35275 12.5 6.33379 12.5 6.31483C12.5 6.29587 12.5 6.27693 12.5 6.258C12.5 6.23907 12.5 6.22015 12.5 6.20124C12.5 6.18234 12.5 6.16345 12.5 6.14457C12.5 6.12569 12.5 6.10683 12.5 6.08798C12.5 6.06913 12.5 6.05029 12.5 6.03147C12.5 6.01264 12.5 5.99383 12.5 5.97504C12.5 5.95624 12.5 5.93746 12.5 5.91869C12.5 5.89992 12.5 5.88117 12.5 5.86243C12.5 5.84369 12.5 5.82496 12.5 5.80625C12.5 5.78754 12.5 5.76884 12.5 5.75016C12.5 5.73147 12.5 5.71281 12.5 5.69415C12.5 5.6755 12.5 5.65686 12.5 5.63824C12.5 5.61961 12.5 5.601 12.5 5.58241C12.5 5.56381 12.5 5.54523 12.5 5.52667C12.5 5.50811 12.5 5.48956 12.5 5.47102C12.5 5.45249 12.5 5.43397 12.5 5.41547C12.5 5.39697 12.5 5.37848 12.5 5.36001C12.5 5.34153 12.5 5.32308 12.5 5.30464C12.5 5.2862 12.5 5.26777 12.5 5.24936C12.5 5.23096 12.5 5.21256 12.5 5.19419C12.5 5.17581 12.5 5.15745 12.5 5.13911C12.5 5.12076 12.5 5.10243 12.5 5.08412C12.5 5.06581 12.5 5.04751 12.5 5.02924C12.5 5.01096 12.5 4.9927 12.5 4.97445C12.5 4.95621 12.5 4.93798 12.5 4.91977C12.5 4.90155 12.5 4.88336 12.5 4.86518C12.5 4.84701 12.5 4.82885 12.5 4.8107C12.5 4.79256 12.5 4.77443 12.5 4.75632C12.5 4.73822 12.5 4.72013 12.5 4.70205C12.5 4.68398 12.5 4.66592 12.5 4.64788C12.5 4.62985 12.5 4.61183 12.5 4.59382C12.5 4.57582 12.5 4.55784 12.5 4.53987C12.5 4.5219 12.5 4.50395 12.5 4.48602C12.5 4.46809 12.5 4.45018 12.5 4.43229C12.5 4.41439 12.5 4.39652 12.5 4.37866C12.5 4.3608 12.5 4.34297 12.5 4.32515C12.5 4.30733 12.5 4.28953 12.5 4.27174C12.5 4.25396 12.5 4.2362 12.5 4.21845C12.5 4.20071 12.5 4.18299 12.5 4.16528C12.5 4.14757 12.5 4.12989 12.5 4.11222C12.5 4.09455 12.5 4.0769 12.5 4.05927C12.5 4.04165 12.5 4.02404 12.5 4.00645C12.5 3.98886 12.5 3.97129 12.5 3.95374C12.5 3.93619 12.5 3.91866 12.5 3.90115C12.5 3.88364 12.5 3.86615 12.5 3.84868C12.5 3.83121 12.5 3.81376 12.5 3.79633C12.5 3.7789 12.5 3.76149 12.5 3.7441C12.5 3.72671 12.5 3.70934 12.5 3.692C12.5 3.67465 12.5 3.65732 12.5 3.64001C12.5 3.62271 12.5 3.60542 12.5 3.58816C12.5 3.57089 12.5 3.55365 12.5 3.53643C12.5 3.51921 12.5 3.502 12.5 3.48482C12.5 3.46764 12.5 3.45048 12.5 3.43335C12.5 3.41621 12.5 3.39909 12.5 3.382C12.5 3.36491 12.5 3.34783 12.5 3.33078C12.5 3.31373 12.5 3.2967 12.5 3.27969C12.5 3.26269 12.5 3.2457 12.5 3.22874C12.5 3.21178 12.5 3.19483 12.5 3.17791C12.5 3.161 12.5 3.1441 12.5 3.12722C12.5 3.11035 12.5 3.0935 12.5 3.07667C12.5 3.05984 12.5 3.04303 12.5 3.02625C12.5 3.00947 12.5 2.9927 12.5 2.97597C12.5 2.95923 12.5 2.94251 12.5 2.92582C12.5 2.90913 12.5 2.89246 12.5 2.87581C12.5 2.85916 12.5 2.84254 12.5 2.82594C12.5 2.80934 12.5 2.79277 12.5 2.77621C12.5 2.75966 12.5 2.74313 12.5 2.72663C12.5 2.71012 12.5 2.69364 12.5 2.67718C12.5 2.66072 12.5 2.64429 12.5 2.62788C12.5 2.61147 12.5 2.59508 12.5 2.57872C12.5 2.56236 12.5 2.54602 12.5 2.52971C12.5 2.51339 12.5 2.4971 12.5 2.48084C12.5 2.46458 12.5 2.44834 12.5 2.43212C12.5 2.41591 12.5 2.39971 12.5 2.38355C12.5 2.36738 12.5 2.35124 12.5 2.33513C12.5 2.31901 12.5 2.30292 12.5 2.28685C12.5 2.27079 12.5 2.25475 12.5 2.23873C12.5 2.22271 12.5 2.20672 12.5 2.19076C12.5 2.1748 12.5 2.15886 12.5 2.14294C12.5 2.12703 12.5 2.11114 12.5 2.09528C12.5 2.07942 12.5 2.06358 12.5 2.04777C12.5 2.03196 12.5 2.01617 12.5 2.00042C12.5 1.98466 12.5 1.96893 12.5 1.95322C12.5 1.93751 12.5 1.92183 12.5 1.90618C12.5 1.89053 12.5 1.8749 12.5 1.8593C12.5 1.8437 12.5 1.82813 12.5 1.81258C12.5 1.79703 12.5 1.78151 12.5 1.76602C12.5 1.75053 12.5 1.73506 12.5 1.71962C12.5 1.70418 12.5 1.68877 12.5 1.67339C12.5 1.658 12.5 1.64264 12.5 1.62731C12.5 1.61198 12.5 1.59668 12.5 1.5814C12.5 1.56613 12.5 1.55088 12.5 1.53566C12.5 1.52044 12.5 1.50525 12.5 1.49008C12.5 1.47492 12.5 1.45978 12.5 1.44468C12.5 1.42957 12.5 1.41449 12.5 1.39943C12.5 1.38438 12.5 1.36936 12.5 1.35436C12.5 1.33937 12.5 1.3244 12.5 1.30946C12.5 1.29452 12.5 1.27961 12.5 1.26473C12.5 1.24985 12.5 1.235 12.5 1.22017C12.5 1.20535 12.5 1.19056 12.5 1.17579C12.5 1.16102 12.5 1.14629 12.5 1.13158C12.5 1.11687 12.5 1.10219 12.5 1.08754C12.5 1.07289 12.5 1.05827 12.5 1.04368C12.5 1.02909 12.5 1.01453 12.5 1H14.5C14.5 1.01453 14.5 1.02909 14.5 1.04368C14.5 1.05827 14.5 1.07289 14.5 1.08754C14.5 1.10219 14.5 1.11687 14.5 1.13158C14.5 1.14629 14.5 1.16102 14.5 1.17579C14.5 1.19056 14.5 1.20535 14.5 1.22017C14.5 1.235 14.5 1.24985 14.5 1.26473C14.5 1.27961 14.5 1.29452 14.5 1.30946C14.5 1.3244 14.5 1.33937 14.5 1.35436C14.5 1.36936 14.5 1.38438 14.5 1.39943C14.5 1.41449 14.5 1.42957 14.5 1.44468C14.5 1.45978 14.5 1.47492 14.5 1.49008C14.5 1.50525 14.5 1.52044 14.5 1.53566C14.5 1.55088 14.5 1.56613 14.5 1.5814C14.5 1.59668 14.5 1.61198 14.5 1.62731C14.5 1.64264 14.5 1.658 14.5 1.67339C14.5 1.68877 14.5 1.70418 14.5 1.71962C14.5 1.73506 14.5 1.75053 14.5 1.76602C14.5 1.78151 14.5 1.79703 14.5 1.81258C14.5 1.82813 14.5 1.8437 14.5 1.8593C14.5 1.8749 14.5 1.89053 14.5 1.90618C14.5 1.92183 14.5 1.93751 14.5 1.95322C14.5 1.96893 14.5 1.98466 14.5 2.00042C14.5 2.01617 14.5 2.03196 14.5 2.04777C14.5 2.06358 14.5 2.07942 14.5 2.09528C14.5 2.11114 14.5 2.12703 14.5 2.14294C14.5 2.15886 14.5 2.1748 14.5 2.19076C14.5 2.20672 14.5 2.22271 14.5 2.23873C14.5 2.25475 14.5 2.27079 14.5 2.28685C14.5 2.30292 14.5 2.31901 14.5 2.33513C14.5 2.35124 14.5 2.36738 14.5 2.38355C14.5 2.39971 14.5 2.41591 14.5 2.43212C14.5 2.44834 14.5 2.46458 14.5 2.48084C14.5 2.4971 14.5 2.51339 14.5 2.52971C14.5 2.54602 14.5 2.56236 14.5 2.57872C14.5 2.59508 14.5 2.61147 14.5 2.62788C14.5 2.64429 14.5 2.66072 14.5 2.67718C14.5 2.69364 14.5 2.71012 14.5 2.72663C14.5 2.74313 14.5 2.75966 14.5 2.77621C14.5 2.79277 14.5 2.80934 14.5 2.82594C14.5 2.84254 14.5 2.85916 14.5 2.87581C14.5 2.89246 14.5 2.90913 14.5 2.92582C14.5 2.94251 14.5 2.95923 14.5 2.97597C14.5 2.9927 14.5 3.00947 14.5 3.02625C14.5 3.04303 14.5 3.05984 14.5 3.07667C14.5 3.0935 14.5 3.11035 14.5 3.12722C14.5 3.1441 14.5 3.161 14.5 3.17791C14.5 3.19483 14.5 3.21178 14.5 3.22874C14.5 3.2457 14.5 3.26269 14.5 3.27969C14.5 3.2967 14.5 3.31373 14.5 3.33078C14.5 3.34783 14.5 3.36491 14.5 3.382C14.5 3.39909 14.5 3.41621 14.5 3.43335C14.5 3.45048 14.5 3.46764 14.5 3.48482C14.5 3.502 14.5 3.51921 14.5 3.53643C14.5 3.55365 14.5 3.57089 14.5 3.58816C14.5 3.60542 14.5 3.62271 14.5 3.64001C14.5 3.65732 14.5 3.67465 14.5 3.692C14.5 3.70934 14.5 3.72671 14.5 3.7441C14.5 3.76149 14.5 3.7789 14.5 3.79633C14.5 3.81376 14.5 3.83121 14.5 3.84868C14.5 3.86615 14.5 3.88364 14.5 3.90115C14.5 3.91866 14.5 3.93619 14.5 3.95374C14.5 3.97129 14.5 3.98886 14.5 4.00645C14.5 4.02404 14.5 4.04165 14.5 4.05927C14.5 4.0769 14.5 4.09455 14.5 4.11222C14.5 4.12989 14.5 4.14757 14.5 4.16528C14.5 4.18299 14.5 4.20071 14.5 4.21845C14.5 4.2362 14.5 4.25396 14.5 4.27174C14.5 4.28953 14.5 4.30733 14.5 4.32515C14.5 4.34297 14.5 4.3608 14.5 4.37866C14.5 4.39652 14.5 4.41439 14.5 4.43229C14.5 4.45018 14.5 4.46809 14.5 4.48602C14.5 4.50395 14.5 4.5219 14.5 4.53987C14.5 4.55784 14.5 4.57582 14.5 4.59382C14.5 4.61183 14.5 4.62985 14.5 4.64788C14.5 4.66592 14.5 4.68398 14.5 4.70205C14.5 4.72013 14.5 4.73822 14.5 4.75632C14.5 4.77443 14.5 4.79256 14.5 4.8107C14.5 4.82885 14.5 4.84701 14.5 4.86518C14.5 4.88336 14.5 4.90155 14.5 4.91977C14.5 4.93798 14.5 4.95621 14.5 4.97445C14.5 4.9927 14.5 5.01096 14.5 5.02924C14.5 5.04751 14.5 5.06581 14.5 5.08412C14.5 5.10243 14.5 5.12076 14.5 5.13911C14.5 5.15745 14.5 5.17581 14.5 5.19419C14.5 5.21256 14.5 5.23096 14.5 5.24936C14.5 5.26777 14.5 5.2862 14.5 5.30464C14.5 5.32308 14.5 5.34153 14.5 5.36001C14.5 5.37848 14.5 5.39697 14.5 5.41547C14.5 5.43397 14.5 5.45249 14.5 5.47102C14.5 5.48956 14.5 5.50811 14.5 5.52667C14.5 5.54523 14.5 5.56381 14.5 5.58241C14.5 5.601 14.5 5.61961 14.5 5.63824C14.5 5.65686 14.5 5.6755 14.5 5.69415C14.5 5.71281 14.5 5.73147 14.5 5.75016C14.5 5.76884 14.5 5.78754 14.5 5.80625C14.5 5.82496 14.5 5.84369 14.5 5.86243C14.5 5.88117 14.5 5.89992 14.5 5.91869C14.5 5.93746 14.5 5.95624 14.5 5.97504C14.5 5.99383 14.5 6.01264 14.5 6.03147C14.5 6.05029 14.5 6.06913 14.5 6.08798C14.5 6.10683 14.5 6.12569 14.5 6.14457C14.5 6.16345 14.5 6.18234 14.5 6.20124C14.5 6.22015 14.5 6.23907 14.5 6.258C14.5 6.27693 14.5 6.29587 14.5 6.31483C14.5 6.33379 14.5 6.35275 14.5 6.37174C14.5 6.39072 14.5 6.40971 14.5 6.42872C14.5 6.44773 14.5 6.46675 14.5 6.48578C14.5 6.50481 14.5 6.52386 14.5 6.54292C14.5 6.56197 14.5 6.58104 14.5 6.60013C14.5 6.61921 14.5 6.6383 14.5 6.65741C14.5 6.67651 14.5 6.69563 14.5 6.71476C14.5 6.73389 14.5 6.75303 14.5 6.77218C14.5 6.79133 14.5 6.8105 14.5 6.82967C14.5 6.84885 14.5 6.86804 14.5 6.88723C14.5 6.90643 14.5 6.92564 14.5 6.94486C14.5 6.96408 14.5 6.98331 14.5 7.00256C14.5 7.0218 14.5 7.04105 14.5 7.06032C14.5 7.07958 14.5 7.09886 14.5 7.11814C14.5 7.13743 14.5 7.15673 14.5 7.17603C14.5 7.19534 14.5 7.21466 14.5 7.23399C14.5 7.25331 14.5 7.27265 14.5 7.292C14.5 7.31135 14.5 7.33071 14.5 7.35008C14.5 7.36944 14.5 7.38882 14.5 7.40821C14.5 7.4276 14.5 7.447 14.5 7.4664C14.5 7.48581 14.5 7.50523 14.5 7.52466C14.5 7.54408 14.5 7.56352 14.5 7.58297C14.5 7.60241 14.5 7.62187 14.5 7.64133C14.5 7.66079 14.5 7.68027 14.5 7.69975C14.5 7.71923 14.5 7.73872 14.5 7.75822C14.5 7.77772 14.5 7.79723 14.5 7.81675C14.5 7.83627 14.5 7.8558 14.5 7.87533C14.5 7.89487 14.5 7.91441 14.5 7.93396C14.5 7.95351 14.5 7.97307 14.5 7.99264C14.5 8.01221 14.5 8.03179 14.5 8.05137C14.5 8.07096 14.5 8.09055 14.5 8.11015C14.5 8.12975 14.5 8.14936 14.5 8.16898C14.5 8.18859 14.5 8.20822 14.5 8.22785C14.5 8.24748 14.5 8.26712 14.5 8.28677C14.5 8.30641 14.5 8.32607 14.5 8.34573C14.5 8.36539 14.5 8.38506 14.5 8.40473C14.5 8.42441 14.5 8.44409 14.5 8.46378C14.5 8.48347 14.5 8.50317 14.5 8.52287C14.5 8.54258 14.5 8.56229 14.5 8.582C14.5 8.60172 14.5 8.62144 14.5 8.64117C14.5 8.6609 14.5 8.68064 14.5 8.70038C14.5 8.72012 14.5 8.73987 14.5 8.75963C14.5 8.77938 14.5 8.79914 14.5 8.81891C14.5 8.83868 14.5 8.85845 14.5 8.87823C14.5 8.89801 14.5 8.91779 14.5 8.93758C14.5 8.95737 14.5 8.97717 14.5 8.99697C14.5 9.01677 14.5 9.03657 14.5 9.05639C14.5 9.0762 14.5 9.09602 14.5 9.11584C14.5 9.13566 14.5 9.15549 14.5 9.17532C14.5 9.19515 14.5 9.21499 14.5 9.23483C14.5 9.25468 14.5 9.27452 14.5 9.29437C14.5 9.31423 14.5 9.33408 14.5 9.35394C14.5 9.3738 14.5 9.39367 14.5 9.41354C14.5 9.43341 14.5 9.45328 14.5 9.47316C14.5 9.49304 14.5 9.51292 14.5 9.53281C14.5 9.5527 14.5 9.57259 14.5 9.59248C14.5 9.61238 14.5 9.63227 14.5 9.65218C14.5 9.67208 14.5 9.69198 14.5 9.71189C14.5 9.7318 14.5 9.75171 14.5 9.77163C14.5 9.79155 14.5 9.81147 14.5 9.83139C14.5 9.85131 14.5 9.87124 14.5 9.89117C14.5 9.91109 14.5 9.93103 14.5 9.95096C14.5 9.9709 14.5 9.99083 14.5 10.0108C14.5 10.0307 14.5 10.0507 14.5 10.0706C14.5 10.0906 14.5 10.1105 14.5 10.1304C14.5 10.1504 14.5 10.1704 14.5 10.1903C14.5 10.2103 14.5 10.2302 14.5 10.2502C14.5 10.2701 14.5 10.2901 14.5 10.3101C14.5 10.33 14.5 10.35 14.5 10.37C14.5 10.3899 14.5 10.4099 14.5 10.4299C14.5 10.4498 14.5 10.4698 14.5 10.4898C14.5 10.5098 14.5 10.5297 14.5 10.5497C14.5 10.5697 14.5 10.5897 14.5 10.6096C14.5 10.6296 14.5 10.6496 14.5 10.6696C14.5 10.6896 14.5 10.7095 14.5 10.7295C14.5 10.7495 14.5 10.7695 14.5 10.7895C14.5 10.8095 14.5 10.8295 14.5 10.8494C14.5 10.8694 14.5 10.8894 14.5 10.9094C14.5 10.9294 14.5 10.9494 14.5 10.9694C14.5 10.9893 14.5 11.0093 14.5 11.0293C14.5 11.0493 14.5 11.0693 14.5 11.0893C14.5 11.1093 14.5 11.1292 14.5 11.1492C14.5 11.1692 14.5 11.1892 14.5 11.2092C14.5 11.2292 14.5 11.2492 14.5 11.2691C14.5 11.2891 14.5 11.3091 14.5 11.3291C14.5 11.3491 14.5 11.3691 14.5 11.389C14.5 11.409 14.5 11.429 14.5 11.449C14.5 11.469 14.5 11.4889 14.5 11.5089C14.5 11.5289 14.5 11.5489 14.5 11.5688C14.5 11.5888 14.5 11.6088 14.5 11.6287C14.5 11.6487 14.5 11.6687 14.5 11.6887C14.5 11.7086 14.5 11.7286 14.5 11.7485C14.5 11.7685 14.5 11.7885 14.5 11.8084C14.5 11.8284 14.5 11.8483 14.5 11.8683C14.5 11.8883 14.5 11.9082 14.5 11.9282C14.5 11.9481 14.5 11.9681 14.5 11.988C14.5 12.0079 14.5 12.0279 14.5 12.0478C14.5 12.0678 14.5 12.0877 14.5 12.1076C14.5 12.1276 14.5 12.1475 14.5 12.1674C14.5 12.1874 14.5 12.2073 14.5 12.2272C14.5 12.2471 14.5 12.267 14.5 12.287C14.5 12.3069 14.5 12.3268 14.5 12.3467C14.5 12.3666 14.5 12.3865 14.5 12.4064C14.5 12.4263 14.5 12.4462 14.5 12.4661C14.5 12.486 14.5 12.5059 14.5 12.5258C14.5 12.5456 14.5 12.5655 14.5 12.5854C14.5 12.6053 14.5 12.6252 14.5 12.645C14.5 12.6649 14.5 12.6848 14.5 12.7046C14.5 12.7245 14.5 12.7443 14.5 12.7642C14.5 12.784 14.5 12.8039 14.5 12.8237C14.5 12.8436 14.5 12.8634 14.5 12.8832C14.5 12.9031 14.5 12.9229 14.5 12.9427C14.5 12.9625 14.5 12.9823 14.5 13.0021C14.5 13.022 14.5 13.0418 14.5 13.0616C14.5 13.0814 14.5 13.1012 14.5 13.1209C14.5 13.1407 14.5 13.1605 14.5 13.1803C14.5 13.2001 14.5 13.2198 14.5 13.2396C14.5 13.2594 14.5 13.2791 14.5 13.2989C14.5 13.3186 14.5 13.3384 14.5 13.3581C14.5 13.3779 14.5 13.3976 14.5 13.4173C14.5 13.437 14.5 13.4568 14.5 13.4765C14.5 13.4962 14.5 13.5159 14.5 13.5356C14.5 13.5553 14.5 13.575 14.5 13.5947C14.5 13.6144 14.5 13.6341 14.5 13.6537C14.5 13.6734 14.5 13.6931 14.5 13.7127C14.5 13.7324 14.5 13.752 14.5 13.7717C14.5 13.7913 14.5 13.811 14.5 13.8306C14.5 13.8502 14.5 13.8698 14.5 13.8895C14.5 13.9091 14.5 13.9287 14.5 13.9483C14.5 13.9679 14.5 13.9875 14.5 14.007C14.5 14.0266 14.5 14.0462 14.5 14.0658C14.5 14.0853 14.5 14.1049 14.5 14.1244C14.5 14.144 14.5 14.1635 14.5 14.1831C14.5 14.2026 14.5 14.2221 14.5 14.2416C14.5 14.2611 14.5 14.2806 14.5 14.3001C14.5 14.3196 14.5 14.3391 14.5 14.3586C14.5 14.3781 14.5 14.3976 14.5 14.417C14.5 14.4365 14.5 14.4559 14.5 14.4754C14.5 14.4948 14.5 14.5142 14.5 14.5337C14.5 14.5531 14.5 14.5725 14.5 14.5919C14.5 14.6113 14.5 14.6307 14.5 14.6501C14.5 14.6695 14.5 14.6889 14.5 14.7082C14.5 14.7276 14.5 14.7469 14.5 14.7663C14.5 14.7856 14.5 14.805 14.5 14.8243C14.5 14.8436 14.5 14.8629 14.5 14.8822C14.5 14.9015 14.5 14.9208 14.5 14.9401C14.5 14.9594 14.5 14.9787 14.5 14.9979C14.5 15.0172 14.5 15.0364 14.5 15.0557C14.5 15.0749 14.5 15.0941 14.5 15.1134C14.5 15.1326 14.5 15.1518 14.5 15.171C14.5 15.1902 14.5 15.2093 14.5 15.2285C14.5 15.2477 14.5 15.2669 14.5 15.286C14.5 15.3051 14.5 15.3243 14.5 15.3434C14.5 15.3625 14.5 15.3816 14.5 15.4008C14.5 15.4199 14.5 15.4389 14.5 15.458C14.5 15.4771 14.5 15.4962 14.5 15.5152C14.5 15.5343 14.5 15.5533 14.5 15.5723C14.5 15.5914 14.5 15.6104 14.5 15.6294C14.5 15.6484 14.5 15.6674 14.5 15.6864C14.5 15.7053 14.5 15.7243 14.5 15.7432C14.5 15.7622 14.5 15.7811 14.5 15.8001C14.5 15.819 14.5 15.8379 14.5 15.8568C14.5 15.8757 14.5 15.8946 14.5 15.9135C14.5 15.9323 14.5 15.9512 14.5 15.97C14.5 15.9889 14.5 16.0077 14.5 16.0265C14.5 16.0454 14.5 16.0642 14.5 16.083C14.5 16.1017 14.5 16.1205 14.5 16.1393C14.5 16.1581 14.5 16.1768 14.5 16.1955C14.5 16.2143 14.5 16.233 14.5 16.2517C14.5 16.2704 14.5 16.2891 14.5 16.3078C14.5 16.3265 14.5 16.3451 14.5 16.3638C14.5 16.3824 14.5 16.401 14.5 16.4197C14.5 16.4383 14.5 16.4569 14.5 16.4755C14.5 16.4941 14.5 16.5126 14.5 16.5312C14.5 16.5498 14.5 16.5683 14.5 16.5868C14.5 16.6054 14.5 16.6239 14.5 16.6424C14.5 16.6609 14.5 16.6793 14.5 16.6978C14.5 16.7163 14.5 16.7347 14.5 16.7532C14.5 16.7716 14.5 16.79 14.5 16.8084C14.5 16.8268 14.5 16.8452 14.5 16.8636C14.5 16.882 14.5 16.9003 14.5 16.9186C14.5 16.937 14.5 16.9553 14.5 16.9736C14.5 16.9919 14.5 17.0102 14.5 17.0285C14.5 17.0468 14.5 17.065 14.5 17.0832C14.5 17.1015 14.5 17.1197 14.5 17.1379C14.5 17.1561 14.5 17.1743 14.5 17.1925C14.5 17.2106 14.5 17.2288 14.5 17.2469C14.5 17.2651 14.5 17.2832 14.5 17.3013C14.5 17.3194 14.5 17.3375 14.5 17.3556C14.5 17.3736 14.5 17.3917 14.5 17.4097C14.5 17.4277 14.5 17.4457 14.5 17.4637C14.5 17.4817 14.5 17.4997 14.5 17.5177C14.5 17.5356 14.5 17.5536 14.5 17.5715C14.5 17.5894 14.5 17.6073 14.5 17.6252C14.5 17.6431 14.5 17.661 14.5 17.6788C14.5 17.6967 14.5 17.7145 14.5 17.7323C14.5 17.7501 14.5 17.7679 14.5 17.7857C14.5 17.8035 14.5 17.8212 14.5 17.839C14.5 17.8567 14.5 17.8744 14.5 17.8921C14.5 17.9098 14.5 17.9275 14.5 17.9452C14.5 17.9628 14.5 17.9805 14.5 17.9981C14.5 18.0157 14.5 18.0333 14.5 18.0509C14.5 18.0685 14.5 18.086 14.5 18.1036C14.5 18.1211 14.5 18.1387 14.5 18.1562C14.5 18.1737 14.5 18.1911 14.5 18.2086C14.5 18.2261 14.5 18.2435 14.5 18.2609C14.5 18.2784 14.5 18.2958 14.5 18.3131C14.5 18.3305 14.5 18.3479 14.5 18.3652C14.5 18.3826 14.5 18.3999 14.5 18.4172C14.5 18.4345 14.5 18.4518 14.5 18.469C14.5 18.4863 14.5 18.5035 14.5 18.5207C14.5 18.5379 14.5 18.5551 14.5 18.5723C14.5 18.5895 14.5 18.6066 14.5 18.6238C14.5 18.6409 14.5 18.658 14.5 18.6751C14.5 18.6922 14.5 18.7092 14.5 18.7263C14.5 18.7433 14.5 18.7603 14.5 18.7773C14.5 18.7943 14.5 18.8113 14.5 18.8283C14.5 18.8452 14.5 18.8622 14.5 18.8791C14.5 18.896 14.5 18.9129 14.5 18.9297C14.5 18.9466 14.5 18.9635 14.5 18.9803C14.5 18.9971 14.5 19.0139 14.5 19.0307C14.5 19.0474 14.5 19.0642 14.5 19.0809C14.5 19.0977 14.5 19.1144 14.5 19.1311C14.5 19.1477 14.5 19.1644 14.5 19.181C14.5 19.1977 14.5 19.2143 14.5 19.2309C14.5 19.2475 14.5 19.264 14.5 19.2806C14.5 19.2971 14.5 19.3136 14.5 19.3301C14.5 19.3466 14.5 19.3631 14.5 19.3796C14.5 19.396 14.5 19.4124 14.5 19.4288C14.5 19.4452 14.5 19.4616 14.5 19.478C14.5 19.4943 14.5 19.5107 14.5 19.527C14.5 19.5433 14.5 19.5595 14.5 19.5758C14.5 19.5921 14.5 19.6083 14.5 19.6245C14.5 19.6407 14.5 19.6569 14.5 19.673C14.5 19.6892 14.5 19.7053 14.5 19.7214C14.5 19.7375 14.5 19.7536 14.5 19.7697C14.5 19.7857 14.5 19.8018 14.5 19.8178C14.5 19.8338 14.5 19.8498 14.5 19.8657C14.5 19.8817 14.5 19.8976 14.5 19.9135C14.5 19.9294 14.5 19.9453 14.5 19.9611C14.5 19.977 14.5 19.9928 14.5 20.0086C14.5 20.0244 14.5 20.0402 14.5 20.056C14.5 20.0717 14.5 20.0874 14.5 20.1031C14.5 20.1188 14.5 20.1345 14.5 20.1501C14.5 20.1658 14.5 20.1814 14.5 20.197C14.5 20.2126 14.5 20.2281 14.5 20.2437C14.5 20.2592 14.5 20.2747 14.5 20.2902C14.5 20.3057 14.5 20.3212 14.5 20.3366C14.5 20.352 14.5 20.3674 14.5 20.3828C14.5 20.3982 14.5 20.4135 14.5 20.4288C14.5 20.4442 14.5 20.4594 14.5 20.4747C14.5 20.49 14.5 20.5052 14.5 20.5204C14.5 20.5356 14.5 20.5508 14.5 20.566C14.5 20.5811 14.5 20.5963 14.5 20.6114C14.5 20.6264 14.5 20.6415 14.5 20.6566C14.5 20.6716 14.5 20.6866 14.5 20.7016C14.5 20.7166 14.5 20.7315 14.5 20.7465C14.5 20.7614 14.5 20.7763 14.5 20.7912C14.5 20.806 14.5 20.8209 14.5 20.8357C14.5 20.8505 14.5 20.8653 14.5 20.8801C14.5 20.8948 14.5 20.9095 14.5 20.9242C14.5 20.9389 14.5 20.9536 14.5 20.9682C14.5 20.9829 14.5 20.9975 14.5 21.0121C14.5 21.0266 14.5 21.0412 14.5 21.0557C14.5 21.0702 14.5 21.0847 14.5 21.0992C14.5 21.1137 14.5 21.1281 14.5 21.1425C14.5 21.1569 14.5 21.1713 14.5 21.1856C14.5 21.1999 14.5 21.2143 14.5 21.2285C14.5 21.2428 14.5 21.2571 14.5 21.2713C14.5 21.2855 14.5 21.2997 14.5 21.3139C14.5 21.328 14.5 21.3421 14.5 21.3562C14.5 21.3703 14.5 21.3844 14.5 21.3984C14.5 21.4125 14.5 21.4265 14.5 21.4404C14.5 21.4544 14.5 21.4684 14.5 21.4823C14.5 21.4962 14.5 21.5101 14.5 21.5239C14.5 21.5378 14.5 21.5516 14.5 21.5654C14.5 21.5791 14.5 21.5929 14.5 21.6066C14.5 21.6203 14.5 21.634 14.5 21.6477C14.5 21.6613 14.5 21.675 14.5 21.6886C14.5 21.7022 14.5 21.7157 14.5 21.7293C14.5 21.7428 14.5 21.7563 14.5 21.7697C14.5 21.7832 14.5 21.7966 14.5 21.81C14.5 21.8234 14.5 21.8368 14.5 21.8501C14.5 21.8635 14.5 21.8768 14.5 21.89C14.5 21.9033 14.5 21.9165 14.5 21.9297C14.5 21.943 14.5 21.9561 14.5 21.9693C14.5 21.9824 14.5 21.9955 14.5 22.0086C14.5 22.0216 14.5 22.0347 14.5 22.0477C14.5 22.0607 14.5 22.0736 14.5 22.0866C14.5 22.0995 14.5 22.1124 14.5 22.1253C14.5 22.1382 14.5 22.151 14.5 22.1638C14.5 22.1766 14.5 22.1894 14.5 22.2021C14.5 22.2148 14.5 22.2275 14.5 22.2402C14.5 22.2528 14.5 22.2655 14.5 22.2781C14.5 22.2907 14.5 22.3032 14.5 22.3157C14.5 22.3283 14.5 22.3408 14.5 22.3532C14.5 22.3657 14.5 22.3781 14.5 22.3905C14.5 22.4029 14.5 22.4152 14.5 22.4275C14.5 22.4398 14.5 22.4521 14.5 22.4644C14.5 22.4766 14.5 22.4888 14.5 22.501C14.5 22.5132 14.5 22.5253 14.5 22.5374C14.5 22.5495 14.5 22.5616 14.5 22.5736C14.5 22.5856 14.5 22.5976 14.5 22.6096C14.5 22.6216 14.5 22.6335 14.5 22.6454C14.5 22.6573 14.5 22.6691 14.5 22.6809C14.5 22.6927 14.5 22.7045 14.5 22.7163C14.5 22.728 14.5 22.7397 14.5 22.7514C14.5 22.763 14.5 22.7747 14.5 22.7863C14.5 22.7979 14.5 22.8094 14.5 22.8209C14.5 22.8325 14.5 22.8439 14.5 22.8554C14.5 22.8668 14.5 22.8783 14.5 22.8896C14.5 22.901 14.5 22.9123 14.5 22.9236C14.5 22.9349 14.5 22.9462 14.5 22.9574C14.5 22.9686 14.5 22.9798 14.5 22.991C14.5 23.0021 14.5 23.0132 14.5 23.0243C14.5 23.0354 14.5 23.0464 14.5 23.0574C14.5 23.0684 14.5 23.0794 14.5 23.0903C14.5 23.1012 14.5 23.1121 14.5 23.1229C14.5 23.1338 14.5 23.1446 14.5 23.1554C14.5 23.1661 14.5 23.1768 14.5 23.1875C14.5 23.1982 14.5 23.2089 14.5 23.2195C14.5 23.2301 14.5 23.2407 14.5 23.2512C14.5 23.2617 14.5 23.2722 14.5 23.2827C14.5 23.2931 14.5 23.3036 14.5 23.3139C14.5 23.3243 14.5 23.3347 14.5 23.345C14.5 23.3553 14.5 23.3655 14.5 23.3757C14.5 23.3859 14.5 23.3961 14.5 23.4063C14.5 23.4164 14.5 23.4265 14.5 23.4366C14.5 23.4466 14.5 23.4566 14.5 23.4666C14.5 23.4766 14.5 23.4865 14.5 23.4964C14.5 23.5063 14.5 23.5162 14.5 23.526C14.5 23.5358 14.5 23.5456 14.5 23.5553C14.5 23.5651 14.5 23.5748 14.5 23.5844C14.5 23.5941 14.5 23.6037 14.5 23.6133C14.5 23.6229 14.5 23.6324 14.5 23.6419C14.5 23.6514 14.5 23.6608 14.5 23.6702C14.5 23.6796 14.5 23.689 14.5 23.6983C14.5 23.7077 14.5 23.7169 14.5 23.7262C14.5 23.7354 14.5 23.7446 14.5 23.7538C14.5 23.7629 14.5 23.7721 14.5 23.7811C14.5 23.7902 14.5 23.7993 14.5 23.8082C14.5 23.8172 14.5 23.8262 14.5 23.8351C14.5 23.844 14.5 23.8529 14.5 23.8617C14.5 23.8705 14.5 23.8793 14.5 23.888C14.5 23.8968 14.5 23.9055 14.5 23.9141C14.5 23.9228 14.5 23.9314 14.5 23.9399C14.5 23.9485 14.5 23.957 14.5 23.9655C14.5 23.974 14.5 23.9824 14.5 23.9908C14.5 23.9992 14.5 24.0076 14.5 24.0159C14.5 24.0242 14.5 24.0325 14.5 24.0407C14.5 24.0489 14.5 24.0571 14.5 24.0652C14.5 24.0733 14.5 24.0814 14.5 24.0895C14.5 24.0975 14.5 24.1055 14.5 24.1135C14.5 24.1214 14.5 24.1294 14.5 24.1372C14.5 24.1451 14.5 24.1529 14.5 24.1607C14.5 24.1685 14.5 24.1762 14.5 24.1839C14.5 24.1916 14.5 24.1993 14.5 24.2069C14.5 24.2145 14.5 24.222 14.5 24.2295C14.5 24.237 14.5 24.2445 14.5 24.2519C14.5 24.2594 14.5 24.2667 14.5 24.2741C14.5 24.2814 14.5 24.2887 14.5 24.2959C14.5 24.3032 14.5 24.3104 14.5 24.3175C14.5 24.3247 14.5 24.3318 14.5 24.3388C14.5 24.3459 14.5 24.3529 14.5 24.3599C14.5 24.3669 14.5 24.3738 14.5 24.3807C14.5 24.3875 14.5 24.3944 14.5 24.4012C14.5 24.4079 14.5 24.4147 14.5 24.4214C14.5 24.4281 14.5 24.4347 14.5 24.4413C14.5 24.4479 14.5 24.4545 14.5 24.461C14.5 24.4675 14.5 24.4739 14.5 24.4804C14.5 24.4868 14.5 24.4931 14.5 24.4995C14.5 24.5058 14.5 24.5121 14.5 24.5183C14.5 24.5245 14.5 24.5307 14.5 24.5368C14.5 24.543 14.5 24.549 14.5 24.5551C14.5 24.5611 14.5 24.5671 14.5 24.573C14.5 24.579 14.5 24.5849 14.5 24.5907C14.5 24.5966 14.5 24.6024 14.5 24.6081C14.5 24.6139 14.5 24.6196 14.5 24.6252C14.5 24.6309 14.5 24.6365 14.5 24.642C14.5 24.6476 14.5 24.6531 14.5 24.6586C14.5 24.664 14.5 24.6695 14.5 24.6748C14.5 24.6802 14.5 24.6855 14.5 24.6908C14.5 24.696 14.5 24.7013 14.5 24.7064C14.5 24.7116 14.5 24.7167 14.5 24.7218C14.5 24.7269 14.5 24.7319 14.5 24.7369C14.5 24.7418 14.5 24.7468 14.5 24.7516C14.5 24.7565 14.5 24.7613 14.5 24.7661C14.5 24.7709 14.5 24.7756 14.5 24.7803C14.5 24.785 14.5 24.7896 14.5 24.7942C14.5 24.7987 14.5 24.8033 14.5 24.8078C14.5 24.8122 14.5 24.8167 14.5 24.821C14.5 24.8254 14.5 24.8297 14.5 24.834C14.5 24.8383 14.5 24.8425 14.5 24.8467C14.5 24.8509 14.5 24.855 14.5 24.8591C14.5 24.8632 14.5 24.8672 14.5 24.8712C14.5 24.8751 14.5 24.879 14.5 24.8829C14.5 24.8868 14.5 24.8906 14.5 24.8944C14.5 24.8982 14.5 24.9019 14.5 24.9055C14.5 24.9092 14.5 24.9128 14.5 24.9164C14.5 24.9199 14.5 24.9235 14.5 24.9269C14.5 24.9304 14.5 24.9338 14.5 24.9372C14.5 24.9405 14.5 24.9438 14.5 24.9471C14.5 24.9503 14.5 24.9535 14.5 24.9567C14.5 24.9598 14.5 24.9629 14.5 24.966C14.5 24.969 14.5 24.972 14.5 24.975C14.5 24.9779 14.5 24.9808 14.5 24.9836C14.5 24.9865 14.5 24.9892 14.5 24.992C14.5 24.9947 14.5 24.9974 14.5 25H12.5Z" fill="#5A3600"/>
</svg>
